<svg width="37" height="43" viewBox="0 0 37 43" fill="none" xmlns="http://www.w3.org/2000/svg">
<path d="M29.1281 12.9911C29.1281 12.9911 11.4279 7.26381 7.19285 6.19584C4.03587 10.6648 -1.31733 24.1902 21.1335 37.0048C25.3685 25.5099 29.1281 12.9911 29.1281 12.9911Z" fill="#F498A7"/>
<path d="M7.71326 7.82912C7.76627 7.75919 7.84295 7.756 7.91247 7.80578C8.01208 7.79411 8.11957 7.80468 8.21992 7.86823C8.24285 7.85975 8.26578 7.85127 8.29659 7.86504C15.6324 9.6818 22.9854 11.6935 30.0598 14.236C30.1135 14.2413 30.1293 14.2858 30.1143 14.3165C30.1451 14.3303 30.1838 14.3663 30.1537 14.4278C27.7544 22.4365 24.7173 30.3288 21.7023 38.1374C21.7181 38.1819 21.726 38.2041 21.7188 38.2571C21.7117 38.3101 21.6579 38.3048 21.6422 38.2603C21.6343 38.2381 21.6264 38.2158 21.6414 38.1851C21.5497 38.219 21.4185 38.1417 21.4558 38.0273C21.7551 37.2623 22.0315 36.5058 22.3309 35.7408C11.8865 31.3745 4.99671 19.4782 9.36019 8.37763C8.96029 8.27387 8.59121 8.18388 8.19131 8.08013C8.12967 8.05259 8.1139 8.0081 8.12105 7.95512C8.0673 7.94984 8.01355 7.94455 7.9598 7.93926C7.96769 7.96151 7.94476 7.96999 7.92972 8.00071C3.92377 13.3071 4.0812 20.773 7.2866 26.1554C10.5701 31.6852 16.1563 35.0045 21.5504 38.2942C21.6429 38.3355 21.5448 38.4976 21.4523 38.4563C15.6526 35.2663 9.71586 31.3972 6.5741 25.4627C3.75283 20.1395 3.85056 12.8812 7.71326 7.82912ZM9.59096 8.44328C7.70609 13.3679 7.93537 18.7689 9.96032 23.4555C12.3775 29.0288 17.0179 32.8993 22.3832 35.5957C25.0529 28.569 27.4532 21.4407 29.9996 14.3589C23.3754 12.3545 16.7892 10.3109 10.0754 8.56609L10.0833 8.58834C9.15813 11.2456 9.17968 14.2321 9.27571 16.9899C9.36879 19.4467 9.9212 21.8092 10.9551 23.9936C13.3284 29.0043 17.7265 32.4107 22.4934 35.102C22.5629 35.1517 22.4949 35.2524 22.4103 35.2334C17.4765 32.7297 12.9981 28.9503 10.6398 23.9089C9.53486 21.5242 9.03473 19.0166 9.00897 16.3839C8.96816 13.7819 8.94882 11.021 9.84465 8.50045C9.76009 8.48139 9.67552 8.46233 9.59096 8.44328Z" fill="white"/>
<path d="M25.3835 17.4211C25.1875 17.6626 25.2483 17.9784 25.4825 18.1334C26.2984 18.6292 26.6816 17.3278 26.9527 16.8652C27.0054 16.7974 26.8996 16.7157 26.8167 16.7705C26.794 16.7788 26.794 16.7788 26.779 16.8086C26.7638 16.7659 26.7336 16.7529 26.7034 16.7399C26.3186 16.8096 25.9716 16.9862 25.6776 17.2399C25.5568 17.2603 25.4513 17.3235 25.3835 17.4211Z" fill="white"/>
<path d="M19.8545 15.2218C20.2512 15.1916 20.6845 15.2644 21.0118 15.4694C21.1761 15.5018 21.212 15.6748 21.0764 15.7948C20.715 16.0679 20.2946 16.2465 19.8456 16.2727C19.4714 16.2945 18.956 16.2055 18.9298 15.7729C18.9486 15.3236 19.5254 15.227 19.8545 15.2218Z" fill="white"/>
<path d="M24.1659 22.1988C24.2478 22.1423 24.3872 22.2483 24.3751 22.3579C24.4059 22.3728 24.4141 22.396 24.4224 22.4193C24.5113 22.8856 24.4179 23.3405 24.1482 23.7293C23.9665 24.0068 23.6331 24.2877 23.3092 24.0923C22.9852 23.8968 23.1094 23.4568 23.2379 23.1728C23.4235 22.7625 23.7629 22.4268 24.1659 22.1988ZM23.9248 23.6018C23.9983 23.522 24.033 23.4041 24.0758 23.3094C23.9736 23.4523 23.8858 23.5637 23.7836 23.7066C23.7611 23.7149 23.7468 23.7464 23.7468 23.7464L23.6447 23.8893C23.7633 23.7929 23.888 23.6417 23.9248 23.6018Z" fill="white"/>
<path d="M16.9526 21.2498C17.407 21.1332 17.8715 21.192 18.2829 21.3216C18.3451 21.3498 18.3612 21.3951 18.3622 21.4715C18.4545 21.4374 18.5338 21.5873 18.4495 21.644C18.0744 21.9106 17.5929 22.3188 17.1305 22.4128C16.8145 22.4784 16.4412 22.3091 16.3288 21.9922C16.2384 21.5905 16.6215 21.3465 16.9526 21.2498Z" fill="white"/>
<path d="M20.6622 29.0933C20.686 29.0845 20.7098 29.0757 20.7573 29.0581C20.8045 28.9636 20.9553 28.9336 20.9717 29.0559C21.1331 29.5868 20.8375 30.8775 19.9869 30.6785C19.6928 30.6075 19.5486 30.3527 19.6584 30.0553C19.8153 29.6634 20.3059 29.3022 20.6622 29.0933Z" fill="white"/>
<path d="M12.3009 15.7946C12.8376 15.9088 13.2535 16.198 13.6016 16.5905C13.6968 16.7117 13.576 16.8866 13.4361 16.8602C13.3274 16.8483 13.2418 16.8279 13.1331 16.8159C12.4077 16.98 11.0287 16.9949 11.2455 16.1329C11.3851 15.7164 11.9666 15.7358 12.3009 15.7946ZM12.5879 16.2358C12.5253 16.2068 12.4628 16.1778 12.4003 16.1488C12.4003 16.1488 12.4003 16.1488 12.4085 16.1718C12.5022 16.2153 12.5648 16.2443 12.6354 16.2963L12.6667 16.3108C12.698 16.3253 12.7143 16.3714 12.7225 16.3945C12.8081 16.4149 12.8624 16.4209 12.948 16.4413C12.8461 16.3748 12.736 16.2852 12.5879 16.2358Z" fill="white"/>
</svg>
