<svg width="0" height="0" class="hidden">
  <symbol fill="none" xmlns="http://www.w3.org/2000/svg" viewBox="0 0 32 32" id="icon1">
    <g clip-path="url(#clip0)" fill="#044FE9">
      <path d="M27.794 14.976v14.226H4.242V14.976H2.048v15.323c0 .606.491 1.097 1.097 1.097h25.746c.606 0 1.098-.49 1.098-1.097V14.976h-2.195z"></path>
      <path d="M30.903 6.747H1.097C.491 6.747 0 7.238 0 7.844v7.168c0 .606.491 1.097 1.097 1.097h29.806c.606 0 1.097-.49 1.097-1.097V7.844c0-.606-.491-1.097-1.097-1.097zm-1.097 7.168H2.194V8.942h27.612v4.973z"></path>
      <path d="M17.08 7.566C17.005 7.282 15.195.603 9.91.603a4.174 4.174 0 00-4.168 4.17c0 2.298 1.854 4.169 4.132 4.169h6.144a1.097 1.097 0 001.062-1.376zm-7.206-.819c-1.087 0-1.938-.867-1.938-1.975 0-1.07.904-1.974 1.975-1.974 2.407 0 3.849 2.371 4.542 3.95H9.874z"></path>
      <path d="M22.126.603c-5.285 0-7.094 6.679-7.17 6.963a1.097 1.097 0 001.062 1.376h6.144c2.279 0 4.133-1.87 4.133-4.17a4.174 4.174 0 00-4.17-4.169zm.036 6.144H17.58c.688-1.578 2.125-3.95 4.547-3.95 1.07 0 1.975.905 1.975 1.975 0 1.108-.851 1.975-1.939 1.975z"></path>
      <path d="M17.115 7.844h-2.194V30.3h2.194V7.844z"></path>
    </g>
    <defs>
      <clipPath id="clip0">
        <path fill="#fff" d="M0 0h32v32H0z"></path>
      </clipPath>
    </defs>
  </symbol>
  <symbol fill="none" xmlns="http://www.w3.org/2000/svg" viewBox="0 0 36 34" id="icon2">
    <path d="M36 18.687c0-2.929-2.078-5.334-4.701-5.539a3.176 3.176 0 00-2.211-2.156C28.382 5.185 23.666.758 18 .758c-5.666 0-10.382 4.427-11.088 10.234a3.176 3.176 0 00-2.211 2.156 4.58 4.58 0 00-.271.03V6.312a1.055 1.055 0 00-2.11 0v7.71C.926 15.012 0 16.732 0 18.687c0 2.93 2.078 5.335 4.7 5.54a3.176 3.176 0 002.202 2.153 5.563 5.563 0 005.473 4.612h.244a3.31 3.31 0 003.131 2.25h4.5a3.308 3.308 0 003.305-3.305 3.308 3.308 0 00-3.305-3.304h-4.5a3.31 3.31 0 00-3.131 2.25h-.244a3.451 3.451 0 01-3.33-2.564 3.169 3.169 0 002.135-2.991v-9.281c0-1.39-.9-2.572-2.148-2.996.658-4.659 4.44-8.184 8.968-8.184s8.31 3.525 8.968 8.184a3.169 3.169 0 00-2.148 2.996v9.281a3.168 3.168 0 003.164 3.164h.282a3.17 3.17 0 003.033-2.266c2.623-.204 4.701-2.61 4.701-5.539zM15.75 28.742h4.5a1.196 1.196 0 010 2.391h-4.5a1.197 1.197 0 010-2.39zM2.11 18.687c0-1.672 1.084-3.112 2.46-3.395v6.79c-1.376-.282-2.46-1.722-2.46-3.395zm6.96 4.641c0 .582-.473 1.055-1.054 1.055h-.282a1.056 1.056 0 01-1.054-1.055v-9.281c0-.582.473-1.055 1.054-1.055h.282c.581 0 1.054.473 1.054 1.055v9.281zm20.25 0c0 .582-.473 1.055-1.054 1.055h-.282a1.056 1.056 0 01-1.054-1.055v-9.281c0-.582.473-1.055 1.054-1.055h.282c.581 0 1.054.473 1.054 1.055v9.281zm2.11-1.245v-6.79c1.376.282 2.46 1.722 2.46 3.394 0 1.673-1.084 3.113-2.46 3.396z" fill="#044FE9"></path>
  </symbol>
  <symbol fill="none" xmlns="http://www.w3.org/2000/svg" viewBox="0 0 33 33" id="icon3">
    <path d="M29.95 6.975a.285.285 0 00-.004-.032c-.04-.058-.091-.11-.134-.167a16.917 16.917 0 00-1.264-1.527c-.354-.38-.726-.741-1.115-1.085-.072-.064-.14-.13-.211-.193a16.524 16.524 0 00-3.129-2.112c-.045-.024-.092-.044-.138-.067a16.4 16.4 0 00-1.532-.683c-.118-.042-.226-.082-.338-.118a16.652 16.652 0 00-1.414-.44c-.142-.037-.283-.076-.427-.11A16.613 16.613 0 0018.819.18c-.146-.021-.29-.05-.438-.067a15.5 15.5 0 00-3.74 0c-.147.018-.29.046-.437.067-.482.068-.958.152-1.425.262-.144.033-.285.072-.427.11-.482.125-.953.272-1.414.44-.118.04-.226.08-.338.117a16.39 16.39 0 00-1.532.683c-.046.023-.093.043-.138.067A16.527 16.527 0 005.79 3.97c-.072.063-.139.129-.21.193a15.33 15.33 0 00-1.401 1.4A16.14 16.14 0 003.2 6.776c-.042.058-.093.108-.134.167a.266.266 0 00-.014.032 16.397 16.397 0 000 19.049c.004.01.008.022.014.032.041.059.092.11.134.167a16.489 16.489 0 002.38 2.613c.071.063.138.13.21.192.96.821 2.009 1.53 3.13 2.113.044.023.091.043.137.067.499.253 1.01.481 1.533.682.118.043.225.083.337.118.464.168.936.314 1.415.44.141.038.283.077.426.11.472.11.943.193 1.426.261.146.021.29.05.437.067 1.242.151 2.498.151 3.74 0 .147-.017.29-.046.437-.067.482-.068.959-.152 1.425-.261.144-.033.286-.072.427-.11.483-.126.954-.272 1.415-.44.118-.04.225-.08.337-.118a16.384 16.384 0 001.533-.682c.046-.024.093-.044.137-.067a16.524 16.524 0 003.13-2.113c.071-.063.139-.129.21-.192a15.02 15.02 0 001.4-1.4c.346-.39.672-.793.98-1.213.042-.057.093-.108.134-.167a.284.284 0 00.014-.032 16.398 16.398 0 000-19.049zm-1.345 2.23a14.027 14.027 0 011.989 6.116h-7.062a22.003 22.003 0 00-.66-4.16 21.181 21.181 0 005.733-1.955zm-9.099-6.527c.066.016.13.037.196.052.422.1.84.212 1.25.354.062.021.123.046.184.068.406.142.806.298 1.197.472.069.032.136.067.204.099.375.178.741.371 1.099.579l.236.142c.34.208.67.43.99.666.082.06.165.118.246.184.315.236.616.489.903.758.076.069.154.136.228.207.302.286.59.59.867.903l.109.118a19.774 19.774 0 01-5.028 1.615 29.974 29.974 0 00-3.174-6.298c.164.03.331.046.493.081zm-7.672 12.643a19.67 19.67 0 01.648-3.773c1.336.159 2.68.238 4.025.236a33.69 33.69 0 004.028-.242 19.6 19.6 0 01.645 3.779h-9.346zm9.346 2.358a19.664 19.664 0 01-.648 3.772 33.773 33.773 0 00-4.025-.236 33.873 33.873 0 00-4.029.236 19.635 19.635 0 01-.644-3.772h9.346zM16.507 3.122a28.474 28.474 0 013.285 6.13 31.202 31.202 0 01-3.285.174 31.438 31.438 0 01-3.282-.175 28.695 28.695 0 013.282-6.13zM5.908 7.16c.278-.313.566-.616.868-.903.074-.07.152-.138.228-.206.29-.265.592-.517.903-.758.081-.062.164-.118.246-.184.32-.236.65-.458.99-.666L9.38 4.3c.358-.209.724-.402 1.099-.578.068-.032.136-.068.204-.1.391-.176.79-.333 1.197-.471.06-.022.117-.047.184-.068.41-.137.826-.25 1.25-.354.066-.016.13-.037.197-.05.162-.036.329-.053.493-.082a29.981 29.981 0 00-3.175 6.299A19.774 19.774 0 015.8 7.28c.035-.042.073-.08.108-.12zm-1.5 2.046a21.18 21.18 0 005.733 1.955 22 22 0 00-.66 4.16h-7.06a14.03 14.03 0 011.988-6.115zm0 14.588a14.028 14.028 0 01-1.988-6.115h7.062a21.93 21.93 0 00.66 4.16 21.179 21.179 0 00-5.733 1.955zm9.1 6.527c-.066-.015-.13-.036-.196-.052a12.67 12.67 0 01-1.25-.353c-.062-.021-.123-.046-.185-.069a15.89 15.89 0 01-1.196-.471c-.069-.032-.136-.067-.204-.1a15.213 15.213 0 01-1.1-.578l-.235-.143c-.34-.207-.67-.43-.99-.666-.083-.06-.165-.118-.247-.184a10.744 10.744 0 01-.903-.758c-.075-.068-.153-.135-.227-.206-.302-.287-.59-.59-.868-.903-.035-.041-.073-.08-.108-.118a19.772 19.772 0 015.028-1.615A29.974 29.974 0 0014 30.402c-.163-.029-.33-.045-.492-.08zm2.999-.443a28.473 28.473 0 01-3.286-6.13 30.69 30.69 0 016.569 0h-.001a28.689 28.689 0 01-3.282 6.13zm10.598-4.039a14.24 14.24 0 01-.867.903c-.075.07-.152.138-.228.206a14.035 14.035 0 01-2.14 1.608l-.235.143c-.357.208-.724.401-1.1.579-.068.032-.135.067-.203.099-.392.177-.791.334-1.197.472-.061.022-.118.047-.185.068-.409.137-.825.25-1.25.354-.066.015-.13.036-.196.05-.162.036-.33.052-.493.082a29.97 29.97 0 003.173-6.298c1.741.311 3.432.854 5.028 1.615-.034.04-.071.078-.107.119zm1.5-2.045a21.183 21.183 0 00-5.732-1.955c.352-1.362.573-2.756.659-4.16h7.062a14.03 14.03 0 01-1.99 6.115z" fill="#044FE9"></path>
  </symbol>
</svg>