<svg width="189" height="40" fill="none" xmlns="http://www.w3.org/2000/svg"><path d="M23.078 39.958h-2.21v-11.47c0-5.047-4.208-9.176-9.35-9.176-5.143 0-9.35 4.13-9.35 9.176V40H0V28.488c0-6.256 5.185-11.345 11.56-11.345 6.375 0 11.56 5.088 11.56 11.345v11.47h-.042zM189 39.958h-2.167v-11.47c0-5.047-4.208-9.176-9.351-9.176-5.142 0-9.35 4.13-9.35 9.176V40h-2.167V28.488c0-6.256 5.185-11.345 11.56-11.345 6.375 0 11.56 5.088 11.56 11.345v11.47H189zM48.663 40c-6.375 0-11.56-5.089-11.56-11.345v-11.47h2.21v11.512c0 5.046 4.207 9.176 9.35 9.176 5.142 0 9.35-4.13 9.35-9.176V17.185h2.21v11.512c0 6.256-5.185 11.303-11.56 11.303zM140.549 37.79c-5.143 0-9.308-4.047-9.393-9.093h20.996l-.128-1.168c-.552-5.881-5.482-10.303-11.518-10.303-6.375 0-11.56 5.089-11.56 11.346 0 6.256 5.185 11.345 11.56 11.345 4.378 0 8.416-2.461 10.371-6.34h-2.508c-1.657 2.586-4.632 4.212-7.82 4.212zm0-18.395c4.463 0 8.203 3.003 9.138 7.174h-18.276c.978-4.129 4.675-7.174 9.138-7.174z" fill="#231F20"/><path d="M114.879 17.268c-.085-.042-.17-.042-.255-.042-2.083-.208-4.293.25-6.163 1.502a9.355 9.355 0 00-2.805 2.961v-4.504h-2.21V40h2.21V28.405c0-1.001.17-1.96.468-2.837a9.464 9.464 0 005.992-1.543c2.338-1.543 3.698-3.962 3.995-6.548a10.759 10.759 0 00-1.232-.209z" fill="url(#paint0_linear)"/><path d="M80.326 28.738v-6.715c0-.5-.043-2.294.892-2.294 1.913 0 3.868-.417 5.61-1.543 2.338-1.544 3.698-3.963 3.995-6.549-2.55-.667-5.312-.292-7.65 1.251a9.202 9.202 0 00-2.847 3.004V0h-2.21v14.307c-.553-.835-1.275-1.544-2.21-2.002-1.615-.793-3.4-.835-4.93-.21.382 1.586 1.445 3.004 3.06 3.838.977.5 2.04.626 3.102.626 1.063 0 1.02 1.418 1.02 1.96V28.78c0 6.173 5.1 11.178 11.39 11.178V37.79c-5.1 0-9.222-4.046-9.222-9.05z" fill="url(#paint1_linear)"/><defs><linearGradient id="paint0_linear" x1="109.827" y1="39.855" x2="109.827" y2="19.348" gradientUnits="userSpaceOnUse"><stop offset=".181" stop-color="#231F20"/><stop offset=".806" stop-color="#8BC53F"/></linearGradient><linearGradient id="paint1_linear" x1="80.889" y1="39.855" x2="80.889" y2="19.347" gradientUnits="userSpaceOnUse"><stop offset=".181" stop-color="#231F20"/><stop offset=".806" stop-color="#8BC53F"/></linearGradient></defs></svg>