<svg width="42" height="42" fill="none" xmlns="http://www.w3.org/2000/svg"><g opacity=".8" clip-path="url(#clip0)"><path d="M40.522 24.313c1.253-10.548-.602-17.206-3.948-20.218l.001-.002c-5.4-5.143-23.639-5.904-30.1.231-2.901 3.001-3.923 7.406-4.035 12.86-.112 5.454-.245 15.672 9.277 18.444h.008l-.008 4.233s-.065 1.715 1.03 2.06c1.253.406 1.82-.39 5.718-5.045 6.517.565 11.522-.73 12.09-.919 1.316-.44 8.763-1.426 9.967-11.644z" fill="#719C3F"/><path d="M21.389 7.52c-.674 0-.674 1.05 0 1.058 5.227.04 9.532 3.684 9.58 10.367 0 .706 1.032.697 1.023-.009h-.002c-.056-7.2-4.756-11.376-10.601-11.416z" fill="#fff"/><path d="M28.264 17.838c-.016.696 1.015.73 1.024.024.086-3.97-2.363-7.241-6.963-7.586-.674-.049-.744 1.01-.072 1.059 3.99.303 6.092 3.026 6.011 6.503zM27.162 22.354c-.865-.5-1.745-.189-2.109.303l-.761.985c-.387.5-1.11.434-1.11.434-5.274-1.394-6.685-6.914-6.685-6.914s-.064-.747.419-1.148l.952-.787c.476-.378.777-1.288.292-2.183-1.295-2.34-2.165-3.146-2.608-3.766-.465-.582-1.165-.714-1.893-.32h-.016c-1.514.886-3.17 2.543-2.64 4.25.904 1.798 2.567 7.533 7.866 11.866 2.49 2.05 6.43 4.15 8.104 4.634l.016.024c1.648.55 3.251-1.172 4.107-2.731v-.013c.38-.754.254-1.468-.301-1.935-.984-.96-2.468-2.018-3.633-2.699z" fill="#fff"/><path d="M23.046 14.182c1.682.098 2.497.976 2.585 2.78.031.706 1.055.657 1.023-.048-.112-2.356-1.34-3.668-3.552-3.79-.674-.041-.737 1.018-.056 1.058z" fill="#fff"/></g><defs><clipPath id="clip0"><path fill="#fff" d="M0 0h42v42H0z"/></clipPath></defs></svg>