<svg width="42" height="42" fill="none" xmlns="http://www.w3.org/2000/svg"><g opacity=".8" fill="#8BC53F"><path d="M15.75 2.625C7.064 2.625 0 8.513 0 15.75c0 3.825 1.953 7.374 5.4 9.894L4.077 28.29a1.309 1.309 0 001.173 1.898c.173 0 .35-.035.517-.105l4.641-1.988c2.176.66 4.497.859 6.825.725a1.311 1.311 0 001.242-1.38c-.04-.728-.727-1.321-1.381-1.24-2.174.11-4.331-.081-6.337-.75a1.34 1.34 0 00-.932.039l-1.798.771.237-.475a1.31 1.31 0 00-.48-1.698c-3.28-2.047-5.159-5.085-5.159-8.337 0-5.79 5.888-10.5 13.125-10.5s13.125 4.71 13.125 10.5c0 .394-.018.764-.084 1.134a1.311 1.311 0 001.06 1.523 1.302 1.302 0 001.523-1.061 9.116 9.116 0 00.126-1.596c0-7.237-7.064-13.125-15.75-13.125z"/><path d="M37.55 34.101C40.358 32.117 42 29.256 42 26.25c0-5.79-5.888-10.5-13.125-10.5S15.75 20.46 15.75 26.25c0 6.413 7.14 11.59 15.498 10.319l6.297 2.701a1.307 1.307 0 001.473-.31c.38-.399.467-.992.22-1.486l-1.687-3.373zm-2.354-1.609a1.313 1.313 0 00-.522 1.725l.611 1.228-3.354-1.44a1.348 1.348 0 00-.74-.087c-.807.141-1.565.207-2.316.207-5.79 0-10.5-3.533-10.5-7.875 0-4.342 4.71-7.875 10.5-7.875s10.5 3.533 10.5 7.875c0 2.447-1.523 4.722-4.179 6.242zM10.552 10.5h-.026c-.725 0-1.3.588-1.3 1.313 0 .724.602 1.312 1.326 1.312a1.313 1.313 0 000-2.625zM21.053 10.5h-.027c-.724 0-1.299.588-1.299 1.313 0 .724.601 1.312 1.326 1.312a1.313 1.313 0 000-2.625z"/><path d="M24.99 22.313h-.026a1.3 1.3 0 00-1.3 1.312c0 .724.602 1.313 1.326 1.313a1.313 1.313 0 000-2.625zM32.865 22.313h-.026c-.725 0-1.3.588-1.3 1.312 0 .724.604 1.313 1.326 1.313a1.313 1.313 0 000-2.625z"/></g></svg>