<svg width="42" height="42" fill="none" xmlns="http://www.w3.org/2000/svg"><g opacity=".8"><path fill-rule="evenodd" clip-rule="evenodd" d="M0 15.75C0 8.513 7.064 2.625 15.75 2.625S31.5 8.513 31.5 15.75c0 .07 0 .14-.002.21C37.483 16.936 42 21.179 42 26.25c0 3.006-1.643 5.867-4.45 7.851l1.689 3.373c.246.494.16 1.087-.221 1.486a1.307 1.307 0 01-1.473.31l-6.297-2.701c-7.128 1.083-13.37-2.522-15.053-7.584a15.952 15.952 0 01-5.892-.845l-4.536 1.942a1.314 1.314 0 01-1.473-.307 1.309 1.309 0 01-.217-1.485L5.4 25.644C1.953 23.124 0 19.574 0 15.75z" fill="#719C3F"/><path d="M10.552 10.5h-.026c-.725 0-1.3.588-1.3 1.313 0 .724.602 1.312 1.326 1.312a1.313 1.313 0 000-2.625zM21.053 10.5h-.027c-.724 0-1.299.588-1.299 1.313 0 .724.601 1.312 1.326 1.312a1.313 1.313 0 000-2.625zM24.99 22.313h-.026a1.3 1.3 0 00-1.3 1.312c0 .724.602 1.313 1.326 1.313a1.313 1.313 0 000-2.625zM32.865 22.313h-.026c-.725 0-1.3.588-1.3 1.312 0 .724.604 1.313 1.326 1.313a1.313 1.313 0 000-2.625z" fill="#fff"/></g></svg>