<svg width="42" height="42" fill="none" xmlns="http://www.w3.org/2000/svg"><g opacity=".8" fill-rule="evenodd" clip-rule="evenodd"><path d="M41.986 19.942C41.708 8.87 32.597 0 21.383 0 10.295 0 1.268 8.676.78 19.566c-.014.292-.014.599-.014.89 0 3.872 1.087 7.479 2.953 10.57L0 42l11.423-3.635a20.716 20.716 0 009.96 2.549C32.778 40.914 42 31.75 42 20.457c0-.181 0-.348-.014-.515z" fill="#8BC53F"/><path d="M30.828 24.579c-.515-.25-2.995-1.462-3.455-1.63-.46-.167-.808-.25-1.142.251-.334.502-1.31 1.63-1.602 1.964-.293.334-.585.376-1.1.125-.502-.25-2.132-.766-4.068-2.492-1.49-1.323-2.522-2.967-2.814-3.468-.293-.501-.028-.766.223-1.017.236-.236.501-.585.766-.877.07-.083.125-.167.181-.237.111-.18.209-.362.32-.599.168-.334.084-.626-.041-.877-.126-.25-1.143-2.715-1.56-3.718-.419-1.003-.836-.835-1.143-.835-.292 0-.627-.042-.961-.042a1.87 1.87 0 00-1.351.626c-.46.502-1.77 1.713-1.77 4.192 0 .585.112 1.156.265 1.713.516 1.768 1.616 3.217 1.811 3.467.25.335 3.497 5.557 8.623 7.576 5.14 1.991 5.14 1.337 6.074 1.24.92-.084 2.995-1.212 3.413-2.382.431-1.17.431-2.172.292-2.381-.125-.21-.46-.334-.961-.599z" fill="#fff"/></g></svg>