<svg width="16" height="16" viewBox="0 0 16 16" fill="none" xmlns="http://www.w3.org/2000/svg">
<path fill-rule="evenodd" clip-rule="evenodd" d="M15.111 16C15.5984 16 15.9936 15.6046 15.9936 15.117V0.883044C15.9936 0.395242 15.5983 0 15.111 0H0.882697C0.395086 0 0 0.395302 0 0.883044V15.1169C0 15.6046 0.395086 15.9999 0.882697 15.9999H15.111V16ZM11.0353 16V9.80395H13.1143L13.4255 7.38921H11.0353V5.84751C11.0353 5.14839 11.2293 4.67198 12.2315 4.67198L13.5096 4.67138V2.51167C13.2886 2.48229 12.5298 2.41653 11.6472 2.41653C9.80429 2.41653 8.54262 3.54183 8.54262 5.60844V7.38921H6.45837V9.80395H8.54262V15.9999H11.0353V16Z" fill="white"/>
</svg>
