<svg width="29" height="29" viewBox="0 0 29 29" fill="none" xmlns="http://www.w3.org/2000/svg">
<rect width="29" height="29" fill="#009087"/>
<path d="M9.90493 20.2236L9.76498 21.6312C9.69167 22.392 10.2781 23.007 11.0778 23.007H17.9221C18.7218 23.007 19.3283 22.392 19.2683 21.6312L19.1617 20.2236H9.90493Z" fill="white"/>
<path d="M24 20.3121V12.5453C24 11.7844 23.3536 11.1631 22.5472 11.1631H20.0281V14.8404H8.96528V11.1631H6.45282C5.64644 11.1631 5 11.7781 5 12.5453V20.3184C5 21.0792 5.64644 21.7006 6.45282 21.7006H8.97194V19.3167H20.0414V21.7006H22.5605C23.3536 21.6943 24 21.0729 24 20.3121ZM22.034 13.7436C21.6608 13.7436 21.3543 13.4519 21.3543 13.0969C21.3543 12.7418 21.6608 12.4502 22.034 12.4502C22.4072 12.4502 22.7138 12.7418 22.7138 13.0969C22.7138 13.4519 22.4139 13.7436 22.034 13.7436Z" fill="white"/>
<path d="M19.0351 7.65657V7.33956L16.4827 5H16.1161H11.3711C10.6114 5 9.99829 5.58964 9.99829 6.30609V13.9461H19.0418V7.68193C19.0351 7.67559 19.0351 7.66925 19.0351 7.65657ZM17.6823 12.5639C17.6823 12.5766 17.6756 12.583 17.6623 12.583H11.3711C11.3578 12.583 11.3445 12.5766 11.3445 12.5639V6.30609C11.3445 6.29341 11.3578 6.28707 11.3711 6.28707H15.3497V7.07327C15.3497 8.05601 16.2361 8.4174 16.8359 8.4174H17.6823V12.5639Z" fill="white"/>
</svg>
