<svg width="29" height="29" viewBox="0 0 29 29" fill="none" xmlns="http://www.w3.org/2000/svg">
<rect width="29" height="29" fill="#1DA1F2"/>
<path d="M11.6606 22C18.4534 22 22.1678 16.228 22.1678 11.2237C22.1678 11.0599 22.1678 10.8962 22.1578 10.7338C22.8805 10.1975 23.5043 9.53343 24 8.77278C23.3263 9.07924 22.6116 9.28036 21.8798 9.36943C22.6504 8.89564 23.227 8.15095 23.5024 7.27384C22.7773 7.71526 21.9841 8.02635 21.1568 8.19367C20.6001 7.58654 19.8638 7.18452 19.0619 7.04983C18.2599 6.91514 17.437 7.05529 16.7206 7.44859C16.0041 7.84189 15.434 8.46641 15.0985 9.22551C14.763 9.98461 14.6807 10.836 14.8645 11.6478C13.3963 11.5724 11.9599 11.1811 10.6486 10.4993C9.33738 9.81759 8.18058 8.86064 7.25333 7.69062C6.7806 8.52419 6.63542 9.51122 6.84734 10.4507C7.05927 11.3902 7.61236 12.2116 8.39401 12.7475C7.81036 12.7273 7.23987 12.5643 6.73004 12.2723C6.73004 12.2883 6.73004 12.3044 6.73004 12.3205C6.72994 13.194 7.02409 14.0407 7.56272 14.7173C8.10135 15.3939 8.85136 15.8589 9.68584 16.0335C9.14186 16.1855 8.57115 16.2075 8.01759 16.0978C8.25327 16.8508 8.71262 17.5094 9.33134 17.9814C9.95006 18.4534 10.6972 18.7152 11.4682 18.7301C10.1592 19.7815 8.54373 20.3511 6.88118 20.3475C6.5867 20.3477 6.29247 20.3301 6 20.2949C7.6886 21.4073 9.65371 21.9977 11.6606 21.9956" fill="white"/>
</svg>
