<svg width="140" height="140" viewBox="0 0 140 140" fill="none" xmlns="http://www.w3.org/2000/svg">
<rect width="140" height="140" rx="70" fill="#031933"/>
<path d="M69.4485 90.9077C80.9021 90.9077 90.187 81.6228 90.187 70.1692C90.187 58.7156 80.9021 49.4307 69.4485 49.4307C57.9949 49.4307 48.71 58.7156 48.71 70.1692C48.71 81.6228 57.9949 90.9077 69.4485 90.9077Z" fill="#FF5C33"/>
<path d="M43.7131 42.5443C42.8225 42.5451 41.9516 42.2818 41.2107 41.7875C40.4698 41.2932 39.8922 40.5902 39.551 39.7675C39.2098 38.9448 39.1203 38.0393 39.2938 37.1658C39.4674 36.2922 39.8962 35.4897 40.526 34.8599C41.1557 34.2301 41.9582 33.8013 42.8318 33.6278C43.7054 33.4542 44.6108 33.5437 45.4335 33.885C46.2562 34.2262 46.9592 34.8038 47.4535 35.5447C47.9478 36.2856 48.2112 37.1565 48.2103 38.0471C48.2088 39.2394 47.7345 40.3823 46.8914 41.2254C46.0484 42.0684 44.9054 42.5428 43.7131 42.5443Z" fill="#FF5C33"/>
<path d="M108.032 67.2998C108.055 68.9767 107.411 70.594 106.241 71.7964C105.072 72.9988 103.474 73.6879 101.797 73.7123C100.912 73.7114 100.039 73.5185 99.236 73.147C98.4333 72.7756 97.7208 72.2344 97.1477 71.5608C96.7941 71.1339 96.3524 70.7886 95.8529 70.5483C95.3534 70.308 94.8078 70.1785 94.2536 70.1686C93.7981 70.1689 93.3465 70.2518 92.9205 70.4133L86.2464 72.9867L87.9171 78.0998C88.2949 79.2531 89.0498 80.2458 90.0602 80.9179C90.8959 81.4922 91.8815 81.8089 92.8952 81.8292C93.0133 81.8292 93.1315 81.8208 93.2496 81.8123C93.3677 81.8039 93.5111 81.8039 93.6377 81.8039C94.3776 81.8169 95.1004 82.0292 95.7298 82.4186C96.3591 82.8079 96.8718 83.3598 97.2138 84.0161C97.5559 84.6724 97.7145 85.4087 97.6731 86.1476C97.6317 86.8865 97.3917 87.6006 96.9785 88.2145C96.5653 88.8285 95.9941 89.3196 95.3251 89.6362C94.6562 89.9527 93.9143 90.083 93.1775 90.0132C92.4407 89.9434 91.7364 89.6762 91.1388 89.2397C90.5412 88.8032 90.0724 88.2136 89.7818 87.5329C89.4451 86.7294 88.9215 86.0178 88.2546 85.4573L83.8586 81.8039L79.0071 86.3517L78.0958 90.3173C77.7678 91.7199 77.8498 93.1872 78.3321 94.5445L78.4502 94.8904C78.8691 96.1743 79.6481 97.3106 80.6946 98.1642C81.4551 98.7432 82.0377 99.5242 82.376 100.418C82.7142 101.312 82.7946 102.283 82.6078 103.221C82.421 104.158 81.9747 105.024 81.3196 105.72C80.6646 106.416 79.8272 106.915 78.9028 107.158C77.9784 107.401 77.0043 107.38 76.0914 107.097C75.1785 106.813 74.3636 106.279 73.7395 105.555C73.1154 104.831 72.7072 103.946 72.5615 103.002C72.4157 102.057 72.5383 101.09 72.9152 100.212C73.6945 98.5092 73.8498 96.5865 73.354 94.7808L73.1683 94.1564L71.2024 89.3048H64.714L61.8283 92.5448C61.4702 92.952 61.1562 93.3961 60.8918 93.8695L60.8681 93.9125C59.9491 95.7962 59.4319 97.8503 59.3494 99.9445V99.9698C59.349 100.588 59.2095 101.198 58.9413 101.756C58.6731 102.313 58.2831 102.802 57.8 103.188C57.3169 103.574 56.7532 103.846 56.1507 103.985C55.5481 104.124 54.9221 104.125 54.319 103.989C53.5407 103.765 52.8374 103.336 52.2836 102.745C51.7299 102.154 51.3462 101.425 51.1735 100.634C51.0448 99.8529 51.1446 99.0513 51.4609 98.3257C51.7772 97.6002 52.2965 96.9815 52.9563 96.5442C54.1086 95.8334 55.0542 94.8325 55.6985 93.6417L56.2891 92.5026C56.7543 91.6054 57.0214 90.6188 57.0721 89.6094L57.2763 85.5501L52.4922 79.9476L47.3951 80.0666C46.6885 80.0829 45.9922 80.2404 45.3474 80.5298C44.2368 81.0066 43.3337 81.8654 42.8018 82.9505C42.3089 83.9768 41.5207 84.8324 40.5381 85.4075C39.5555 85.9825 38.4235 86.2508 37.2874 86.1779C36.1512 86.1049 35.0628 85.6941 34.1618 84.9982C33.2608 84.3022 32.5884 83.3528 32.2309 82.2719C31.8733 81.1911 31.847 80.028 32.1552 78.932C32.4634 77.8361 33.0921 76.8572 33.9607 76.1212C34.8292 75.3851 35.8979 74.9254 37.0296 74.8011C38.1612 74.6768 39.3042 74.8935 40.3119 75.4235C41.41 76.0059 42.6787 76.181 43.8936 75.9179L44.2167 75.8479C44.993 75.6802 45.7217 75.3402 46.3489 74.8531L49.4708 72.429L51.5219 62.6508L50.1719 59.4049C49.9466 58.8605 49.5872 58.3818 49.1274 58.0135C48.4067 57.4568 47.5035 57.1906 46.5961 57.2676C46.0831 57.2983 45.5687 57.2369 45.0774 57.0862C44.1011 56.7773 43.2793 56.1082 42.779 55.2148C42.4861 54.7095 42.3043 54.1476 42.2458 53.5665C42.1872 52.9854 42.2533 52.3985 42.4395 51.8449C42.6257 51.2913 42.9278 50.7838 43.3256 50.3562C43.7234 49.9286 44.2079 49.5908 44.7466 49.3652C45.2853 49.1397 45.8659 49.0315 46.4497 49.0481C47.0335 49.0646 47.6071 49.2055 48.1322 49.4612C48.6573 49.7169 49.1218 50.0817 49.4947 50.5311C49.8677 50.9806 50.1406 51.5044 50.2951 52.0676C50.5123 52.7731 50.9612 53.3846 51.5692 53.8032L52.1446 54.2251C52.6144 54.5842 53.1647 54.8234 53.7477 54.922L56.7954 55.4131L61.571 51.8271L62.0367 47.9459C62.1023 47.3996 62.0569 46.8458 61.9034 46.3174L61.6182 45.3345C61.3212 44.3629 60.6845 43.5306 59.8244 42.9897C59.0342 42.4928 58.3814 41.8054 57.9259 40.9906C57.4703 40.1758 57.2267 39.2597 57.2172 38.3263C57.3292 36.7804 58.0223 35.3343 59.1572 34.2787C60.2921 33.223 61.7845 32.6362 63.3344 32.6362C64.8843 32.6362 66.3768 33.223 67.5116 34.2787C68.6465 35.3343 69.3396 36.7804 69.4516 38.3263C69.4485 39.7078 68.9175 41.0359 67.9675 42.0388C67.5428 42.4856 67.2232 43.0216 67.032 43.6077C66.8407 44.1938 66.7827 44.8151 66.8621 45.4264C66.9453 46.031 67.1626 46.6094 67.4983 47.119L70.0009 50.9159L78.6907 53.1586L80.5967 52.3334C82.2879 51.6018 83.8318 50.5685 85.153 49.2841C85.4426 49.0025 85.6727 48.6656 85.8297 48.2934C85.9867 47.9212 86.0673 47.5213 86.0667 47.1173C86.0655 46.338 86.2854 45.5744 86.7009 44.9151C87.1164 44.2558 87.7105 43.728 88.4142 43.393C89.1178 43.0579 89.902 42.9295 90.6758 43.0225C91.4495 43.1155 92.1809 43.4262 92.7851 43.9185C93.3892 44.4108 93.8413 45.0644 94.0887 45.8033C94.3361 46.5423 94.3687 47.3364 94.1828 48.0931C93.9968 48.8499 93.5999 49.5384 93.0382 50.0786C92.4764 50.6187 91.7729 50.9884 91.0094 51.1445C90.4366 51.2502 89.9095 51.5277 89.4983 51.9402C87.8704 53.6245 86.6524 55.6611 85.9385 57.892L85.4035 59.5635L86.0701 63.1494L90.4492 65.3938C91.1032 65.7326 91.8446 65.865 92.5754 65.7735L93.8495 65.63C94.4089 65.5524 94.9436 65.3497 95.4139 65.0372C95.8842 64.7246 96.2781 64.3101 96.5664 63.8244C97.1178 62.9322 97.8875 62.1952 98.8028 61.6829C99.718 61.1707 100.749 60.9001 101.798 60.8966C103.473 60.9199 105.071 61.6074 106.24 62.8081C107.409 64.0087 108.053 65.6242 108.032 67.2998Z" fill="#FF5C33"/>
<path d="M42.5325 98.3712C44.183 98.3712 45.5211 97.0331 45.5211 95.3826C45.5211 93.7321 44.183 92.394 42.5325 92.394C40.882 92.394 39.5439 93.7321 39.5439 95.3826C39.5439 97.0331 40.882 98.3712 42.5325 98.3712Z" fill="#FF5C33"/>
<path d="M80.5896 41.0328C82.2402 41.0328 83.5782 39.6948 83.5782 38.0442C83.5782 36.3937 82.2402 35.0557 80.5896 35.0557C78.9391 35.0557 77.6011 36.3937 77.6011 38.0442C77.6011 39.6948 78.9391 41.0328 80.5896 41.0328Z" fill="#FF5C33"/>
<path d="M95.3013 104.418C97.6653 104.418 99.5817 102.502 99.5817 100.138C99.5817 97.7738 97.6653 95.8574 95.3013 95.8574C92.9374 95.8574 91.021 97.7738 91.021 100.138C91.021 102.502 92.9374 104.418 95.3013 104.418Z" fill="#FF5C33"/>
<path d="M60.1283 68.0887C62.3558 68.0887 64.1615 66.283 64.1615 64.0556C64.1615 61.8282 62.3558 60.0225 60.1283 60.0225C57.9009 60.0225 56.0952 61.8282 56.0952 64.0556C56.0952 66.283 57.9009 68.0887 60.1283 68.0887Z" fill="#E5E5E5"/>
<path d="M80.0948 71.2213C81.825 71.2213 83.2276 69.8186 83.2276 68.0884C83.2276 66.3582 81.825 64.9556 80.0948 64.9556C78.3645 64.9556 76.9619 66.3582 76.9619 68.0884C76.9619 69.8186 78.3645 71.2213 80.0948 71.2213Z" fill="#E5E5E5"/>
<path d="M73.2248 84.4057C74.4713 84.4057 75.4818 83.3952 75.4818 82.1486C75.4818 80.9021 74.4713 79.8916 73.2248 79.8916C71.9783 79.8916 70.9678 80.9021 70.9678 82.1486C70.9678 83.3952 71.9783 84.4057 73.2248 84.4057Z" fill="#E5E5E5"/>
<path d="M71.7063 61.7035C72.9528 61.7035 73.9633 60.693 73.9633 59.4465C73.9633 58.2 72.9528 57.1895 71.7063 57.1895C70.4597 57.1895 69.4492 58.2 69.4492 59.4465C69.4492 60.693 70.4597 61.7035 71.7063 61.7035Z" fill="#E5E5E5"/>
<path d="M64.8744 76.4597C66.3208 76.4597 67.4934 75.2871 67.4934 73.8407C67.4934 72.3942 66.3208 71.2217 64.8744 71.2217C63.4279 71.2217 62.2554 72.3942 62.2554 73.8407C62.2554 75.2871 63.4279 76.4597 64.8744 76.4597Z" fill="#E5E5E5"/>
</svg>
