<?xml version="1.0" standalone="no"?>
<!DOCTYPE svg PUBLIC "-//W3C//DTD SVG 20010904//EN"
 "http://www.w3.org/TR/2001/REC-SVG-20010904/DTD/svg10.dtd">
<svg version="1.0" xmlns="http://www.w3.org/2000/svg"
 width="736.000000pt" height="736.000000pt" viewBox="0 0 736.000000 736.000000"
 preserveAspectRatio="xMidYMid meet">
<metadata>
Created by potrace 1.11, written by Peter Selinger 2001-2013
</metadata>
<g transform="translate(0.000000,736.000000) scale(0.100000,-0.100000)"
fill="#000000" stroke="none">
<path d="M5538 6395 c-1 -1 -50 -6 -108 -9 -58 -4 -125 -8 -150 -11 -86 -7
-171 -16 -189 -20 -10 -2 -42 -6 -72 -10 -30 -3 -67 -9 -84 -11 -16 -3 -41 -7
-55 -9 -29 -4 -134 -23 -170 -31 -14 -3 -34 -7 -45 -8 -11 -2 -40 -8 -65 -14
-25 -6 -61 -14 -80 -17 -19 -3 -48 -10 -65 -15 -16 -5 -41 -11 -55 -14 -14 -3
-59 -14 -100 -26 -41 -12 -82 -23 -91 -25 -9 -2 -47 -13 -85 -25 -38 -12 -76
-23 -84 -25 -8 -2 -49 -16 -90 -30 -41 -15 -79 -28 -85 -30 -13 -3 -24 -7
-186 -71 -74 -30 -141 -54 -147 -54 -7 0 -12 -4 -12 -9 0 -5 -16 -12 -35 -15
-19 -4 -35 -11 -35 -16 0 -6 -5 -10 -11 -10 -19 0 -225 -99 -404 -195 -101
-54 -279 -160 -382 -227 -23 -16 -44 -28 -48 -28 -3 0 -11 -5 -18 -10 -7 -6
-72 -54 -146 -106 -119 -86 -272 -202 -341 -260 -259 -219 -494 -448 -690
-673 -30 -35 -59 -69 -65 -75 -39 -44 -184 -228 -200 -254 -5 -9 -18 -25 -27
-36 -10 -10 -30 -38 -45 -60 -15 -23 -30 -43 -33 -46 -3 -3 -9 -12 -15 -21 -5
-10 -40 -61 -76 -115 -37 -55 -71 -109 -78 -121 -6 -12 -17 -27 -23 -35 -7 -7
-20 -26 -28 -43 -8 -16 -31 -57 -51 -90 -127 -212 -287 -540 -379 -775 -20
-52 -41 -104 -45 -115 -4 -11 -9 -24 -11 -30 -2 -5 -26 -75 -53 -155 -45 -131
-116 -365 -127 -415 -9 -45 -27 -121 -32 -135 -7 -20 -10 -33 -28 -125 -2 -11
-6 -30 -9 -43 -11 -47 -13 -58 -20 -102 -4 -25 -9 -54 -11 -65 -3 -11 -7 -36
-9 -55 -3 -19 -8 -45 -11 -58 -2 -12 -7 -42 -10 -66 -2 -24 -6 -52 -8 -63 -15
-78 -17 -130 -4 -131 7 0 31 -6 53 -12 70 -20 222 -56 275 -66 14 -2 72 -13
130 -24 128 -25 135 -26 235 -40 108 -16 129 -18 205 -25 36 -3 75 -8 87 -10
154 -26 935 -27 1083 0 14 2 58 7 98 9 40 3 76 7 80 9 4 3 36 8 72 11 57 6 91
11 200 30 14 2 54 10 90 16 36 7 74 14 85 15 11 2 60 13 109 25 50 11 99 22
110 25 12 2 21 4 21 5 0 1 7 3 15 5 116 25 485 137 545 165 16 7 51 19 75 25
3 1 19 7 35 14 17 7 69 28 116 47 48 19 111 45 140 58 30 13 56 24 59 24 9 0
383 189 445 225 33 19 94 53 135 77 41 24 153 95 249 159 96 64 182 121 190
126 9 6 18 12 21 15 3 3 21 17 40 30 19 13 37 27 40 30 3 4 32 26 65 51 33 24
66 50 73 57 8 7 30 25 50 40 20 15 46 36 58 47 12 11 32 29 46 40 64 50 184
162 323 300 154 154 193 196 305 325 36 41 68 77 73 78 4 2 7 8 7 13 0 5 8 17
18 27 24 25 49 57 102 127 25 33 50 66 57 75 40 51 85 114 128 180 28 41 53
77 58 78 4 2 7 10 7 17 0 7 4 15 8 17 7 3 19 20 87 133 41 67 101 169 137 234
50 88 239 471 243 491 1 3 10 23 20 45 10 22 19 42 19 45 1 3 29 75 63 160 51
131 138 384 147 432 2 7 6 20 9 28 4 8 22 74 41 145 49 189 51 194 60 240 3
17 15 75 26 130 20 99 26 133 35 190 2 17 7 42 9 56 3 14 8 45 10 70 3 24 6
44 7 44 1 0 3 11 4 25 2 14 5 49 9 78 5 49 4 52 -18 52 -12 0 -26 3 -30 7 -3
4 -12 8 -19 9 -20 5 -57 13 -131 30 -143 33 -192 43 -221 48 -16 2 -84 14
-150 25 -66 11 -142 23 -170 26 -27 3 -59 8 -70 10 -11 2 -49 6 -85 10 -36 3
-83 8 -105 11 -22 2 -67 6 -100 9 -69 6 -711 15 -717 10z"/>
</g>
</svg>
