<svg width="140" height="140" viewBox="0 0 140 140" fill="none" xmlns="http://www.w3.org/2000/svg">
<rect width="140" height="140" rx="70" fill="#031933"/>
<g clip-path="url(#clip0)">
<path d="M52.1681 109.998C41.0687 110.119 31.6525 101.877 30.3022 90.8597C29.6636 85.2595 31.3041 79.6376 34.8541 75.2599C38.5535 70.6585 43.9472 67.7371 49.8227 67.1531C57.7547 66.3155 63.6922 59.0742 66.5391 46.7597C68.8913 36.8358 77.814 29.8722 88.0113 30.0018C89.6195 30.0018 91.2234 30.1741 92.795 30.5151C98.5608 31.7247 103.594 35.2114 106.751 40.1855C109.795 44.9388 110.788 50.7207 109.506 56.2174C98.9805 101.74 64.7858 108.795 54.5513 109.872C53.7596 109.956 52.9641 109.999 52.1681 109.998Z" fill="#FF5C33"/>
<path d="M52.1681 103.112C44.5734 103.231 38.1021 97.6231 37.1405 90.0885C36.7133 86.3123 37.8231 82.5236 40.2187 79.5737C42.7736 76.4044 46.4965 74.3963 50.5487 74.0027C56.9654 73.325 68.4536 69.0856 73.2522 48.3115C74.9546 41.5594 81.0483 36.8432 88.0113 36.8885C89.1303 36.8885 90.2457 37.0088 91.3393 37.2462C95.3009 38.0714 98.7623 40.4614 100.938 43.8738C102.988 47.0734 103.659 50.9656 102.798 54.6669C93.2947 95.7501 62.9197 102.067 53.8364 103.024C53.2822 103.083 52.7254 103.112 52.1681 103.112Z" fill="#CF4B29"/>
<path d="M90.7657 58.9255C90.7657 61.9677 88.2995 64.4346 85.2567 64.4346C82.2138 64.4346 79.7476 61.9677 79.7476 58.9255C79.7476 55.8827 82.2138 53.4158 85.2567 53.4158C88.2995 53.4158 90.7657 55.8827 90.7657 58.9255Z" fill="white"/>
<path d="M54.9562 87.8485C54.9562 90.1307 53.1062 91.9807 50.824 91.9807C48.5419 91.9807 46.6919 90.1307 46.6919 87.8485C46.6919 85.567 48.5419 83.717 50.824 83.717C53.1062 83.717 54.9562 85.567 54.9562 87.8485Z" fill="white"/>
<path d="M85.2568 75.453C85.2568 77.7352 83.4068 79.5852 81.1247 79.5852C78.8432 79.5852 76.9932 77.7352 76.9932 75.453C76.9932 73.1715 78.8432 71.3215 81.1247 71.3215C83.4068 71.3215 85.2568 73.1715 85.2568 75.453Z" fill="white"/>
<path d="M65.9746 79.5782C65.7948 79.5757 65.6169 79.5379 65.4514 79.4679C65.2846 79.3978 65.1315 79.2998 64.9969 79.179C64.8723 79.0469 64.7743 78.8925 64.7074 78.7245C64.6373 78.5584 64.5995 78.381 64.5977 78.2006C64.6026 77.8361 64.7452 77.487 64.9969 77.2229C65.1308 77.1008 65.2846 77.0028 65.4514 76.9321C65.9653 76.7251 66.5531 76.8385 66.9529 77.2229C67.204 77.487 67.3466 77.8361 67.3522 78.2006C67.3497 78.381 67.3125 78.5584 67.2418 78.7245C67.1755 78.8925 67.0769 79.0469 66.9529 79.179C66.6882 79.4294 66.3392 79.572 65.9746 79.5782Z" fill="white"/>
<path d="M63.2197 91.9808C63.0399 91.9789 62.862 91.9411 62.6965 91.8704C62.5297 91.801 62.376 91.703 62.242 91.5815C62.1174 91.4495 62.0195 91.2957 61.9525 91.1271C61.8825 90.9616 61.8446 90.7836 61.8428 90.6032C61.8477 90.2387 61.9903 89.8896 62.242 89.6255C62.376 89.504 62.5297 89.406 62.6965 89.3366C63.2104 89.1283 63.7982 89.2417 64.1974 89.6255C64.4491 89.8896 64.5917 90.2387 64.5973 90.6032C64.5948 90.7836 64.5576 90.9616 64.487 91.1271C64.4206 91.2957 64.322 91.4495 64.1974 91.5815C63.9339 91.8326 63.5843 91.9752 63.2197 91.9808Z" fill="white"/>
<path d="M71.484 87.8486C71.3036 87.8462 71.1263 87.809 70.9601 87.7389C70.794 87.6682 70.6402 87.5703 70.5057 87.4494C70.3811 87.3179 70.2831 87.1636 70.2168 86.9949C70.1461 86.8294 70.1083 86.6515 70.1064 86.4717C70.112 86.1071 70.2546 85.7575 70.5057 85.4933C70.6396 85.3718 70.7934 85.2733 70.9601 85.2032C71.4741 84.9955 72.0625 85.1096 72.4617 85.4933C72.7128 85.7575 72.8554 86.1071 72.861 86.4717C72.8591 86.6515 72.8213 86.8294 72.7506 86.9949C72.6843 87.1636 72.5863 87.3179 72.4617 87.4494C72.197 87.7005 71.848 87.8431 71.484 87.8486Z" fill="white"/>
<path d="M85.2569 46.5298C85.0771 46.5273 84.8991 46.4901 84.7336 46.4195C84.5668 46.3494 84.4131 46.2514 84.2791 46.1299C84.1545 45.9985 84.0566 45.8441 83.9896 45.6755C83.9189 45.51 83.8817 45.332 83.8799 45.1522C83.8848 44.7877 84.0274 44.4386 84.2791 44.1745C84.4131 44.053 84.5668 43.9551 84.7336 43.885C85.2476 43.6773 85.8353 43.7908 86.2346 44.1745C86.4863 44.4386 86.6289 44.7877 86.6344 45.1522C86.632 45.332 86.5948 45.51 86.5241 45.6755C86.4577 45.8441 86.3592 45.9985 86.2346 46.1299C85.9704 46.3816 85.6214 46.5242 85.2569 46.5298Z" fill="white"/>
<path d="M94.8981 52.0389C94.7183 52.0358 94.5404 51.9986 94.3748 51.9285C94.2081 51.8585 94.0543 51.7605 93.9204 51.6396C93.7958 51.5076 93.6978 51.3532 93.6309 51.1846C93.5602 51.019 93.523 50.8417 93.5205 50.6613C93.5261 50.2968 93.6687 49.9477 93.9204 49.6836C94.0543 49.5615 94.2081 49.4635 94.3748 49.3928C94.8888 49.1858 95.4765 49.2992 95.8758 49.6836C96.1275 49.9477 96.2701 50.2968 96.2757 50.6613C96.2732 50.8417 96.236 51.019 96.1653 51.1846C96.099 51.3532 96.0004 51.5076 95.8758 51.6396C95.6117 51.8901 95.2626 52.0327 94.8981 52.0389Z" fill="white"/>
</g>
<defs>
<clipPath id="clip0">
<rect width="80" height="80" fill="white" transform="translate(30 30)"/>
</clipPath>
</defs>
</svg>
