<svg width="140" height="140" viewBox="0 0 140 140" fill="none" xmlns="http://www.w3.org/2000/svg">
<rect width="140" height="140" rx="70" fill="#031933"/>
<g clip-path="url(#clip0)">
<path d="M68.3267 77.8621C66.2909 78.3996 64.1918 78.6599 62.0863 78.6359C54.9774 78.6359 52.6338 86.5749 50.1753 92.6988C51.2334 95.6096 53.5774 97.567 57.8794 97.567C72.3183 97.5669 62.1006 83.4767 68.3267 77.8621Z" fill="#E5E5E5"/>
<path d="M72.6037 86.2758C72.3248 86.2759 72.0572 86.1651 71.8599 85.9679C71.6626 85.7706 71.552 85.5031 71.552 85.2241C71.552 82.4032 69.8768 81.067 66.2789 81.0192C65.6981 81.0153 65.2304 80.5411 65.2344 79.9603C65.2383 79.3795 65.7125 78.9117 66.2933 78.9158H66.3077C72.7013 79.0005 73.6554 82.9044 73.6554 85.2241C73.6555 85.503 73.5447 85.7706 73.3474 85.9679C73.1502 86.1651 72.8828 86.2758 72.6037 86.2758Z" fill="#E5E5E5"/>
<path d="M75.7586 74.8736C76.9563 73.7105 77.9356 72.53 78.9138 71.5517C82.069 68.3965 82.5949 61.5603 87.3277 56.8275C92.0604 52.0948 101 50.5173 101 45.2586C101 41.0518 97.8448 40 88.3793 40H66.2931C49.4655 40 40 52.3577 40 67.3448V85.2241C40 91.5345 40 101 44.2069 101C51.5689 101 50.5173 79.9655 62.0862 79.9655C65.3582 80.071 68.6069 79.3788 71.5517 77.9487L75.7586 74.8736Z" fill="#FF5C33"/>
<path d="M68.1074 63.4177C70.3205 64.5974 71.66 66.9427 71.5518 69.4482V98.8965C71.5518 100.058 72.4935 101 73.6552 101C74.8169 101 75.7586 100.058 75.7586 98.8965V69.4481C75.6869 65.7367 75.9228 62.0257 76.4638 58.3533C74.4523 66.2953 70.977 64.5346 68.1074 63.4177Z" fill="#E5E5E5"/>
<path d="M88.3237 49.5764C87.6246 49.0654 87.2461 48.2242 87.3275 47.3621C87.2462 46.5 87.6246 45.6587 88.3237 45.1477C88.8419 44.8872 89.0512 44.2563 88.7918 43.7377C88.5325 43.219 87.9022 43.0081 87.3829 43.2661C86.25 43.904 85.4858 45.0404 85.3223 46.3302C85.2899 46.3219 85.257 46.3153 85.224 46.3104C82.9797 46.3711 80.8332 47.2425 79.1817 48.7636C76.9858 51.2147 75.928 55.2352 75.4441 58.0951C74.7448 60.8584 73.8265 62.548 72.7162 63.1165C71.6234 63.6762 70.2809 63.1468 68.8616 62.585L68.5669 62.469C65.6756 60.7964 61.1452 59.983 54.7239 59.983C54.6908 59.9879 54.658 59.9946 54.6256 60.0028C54.4622 58.713 53.698 57.5766 52.5651 56.9387C52.2289 56.7695 51.8279 56.793 51.5136 57.0002C51.1993 57.2074 51.0196 57.5666 51.0425 57.9422C51.0654 58.3179 51.2872 58.6528 51.6242 58.8203C52.3234 59.3313 52.7019 60.1725 52.6205 61.0346C52.7017 61.8967 52.3234 62.738 51.6242 63.249C51.1061 63.5096 50.8968 64.1404 51.1561 64.659C51.4155 65.1778 52.0458 65.3886 52.5651 65.1306C53.698 64.4927 54.4622 63.3563 54.6256 62.0665C54.658 62.0749 54.6909 62.0814 54.7239 62.0863C60.8145 62.0863 65.0173 62.8181 67.5726 64.3242C67.6217 64.3528 67.6728 64.3775 67.7256 64.3982L68.0882 64.541C69.2204 65.0674 70.4408 65.378 71.687 65.4566C72.3778 65.4629 73.0599 65.3024 73.6755 64.9887C75.3702 64.1203 76.616 62.0344 77.5003 58.53C78.1524 54.703 79.2751 51.8114 80.7089 50.2091C81.9604 49.1056 83.5563 48.471 85.2239 48.4137C85.257 48.4088 85.2898 48.4022 85.3222 48.3939C85.4857 49.6838 86.2498 50.8201 87.3827 51.458C87.9021 51.7162 88.5323 51.5052 88.7917 50.9864C89.0513 50.4678 88.8419 49.8371 88.3237 49.5764Z" fill="#E5E5E5"/>
</g>
<defs>
<clipPath id="clip0">
<rect width="61" height="61" fill="white" transform="translate(40 40)"/>
</clipPath>
</defs>
</svg>
