<svg width="77" height="67" viewBox="0 5 77 67" fill="none" xmlns="http://www.w3.org/2000/svg">
<path d="M67.9766 35.7334H54.4414V40.2001H67.9766V35.7334Z" fill="black"/>
<path d="M67.9766 27H54.4414V31.4667H67.9766V27Z" fill="black"/>
<path d="M67.9766 18H54.4414V22.4667H67.9766V18Z" fill="black"/>
<path d="M68 45H27V49H68V45Z" fill="black"/>
<path d="M68 54H27V58H68V54Z" fill="black"/>
<path d="M18.0469 10.8V55.8334C18.0469 59.5258 15.009 62.5334 11.2793 62.5334C7.54961 62.5334 4.51172 59.5258 4.51172 55.8334V17.5C4.51172 16.2643 5.51934 15.2667 6.76758 15.2667C8.01582 15.2667 9.02344 16.2643 9.02344 17.5V56.5778H13.5352V17.5C13.5352 13.8076 10.4973 10.8 6.76758 10.8C3.03789 10.8 0 13.8076 0 17.5V55.8334C0 61.9974 5.05312 67 11.2793 67H65.7207C71.9469 67 77 61.9974 77 55.8334V10.8H18.0469ZM72.4883 55.8334C72.4883 59.5258 69.4504 62.5334 65.7207 62.5334H20.3027C21.7164 60.6723 22.5586 58.3496 22.5586 55.8334V15.2667H72.4883V55.8334Z" fill="black"/>
<rect x="27" y="18" width="23" height="23" fill="#FF1E1E"/>
<rect x="37" y="23" width="3" height="13" fill="white"/>
<rect x="45" y="28" width="3" height="13" transform="rotate(90 45 28)" fill="white"/>
</svg>
