<svg width="45" height="45" viewBox="0 0 45 45" fill="none" xmlns="http://www.w3.org/2000/svg">
<path d="M40.6061 29.5505C40.6061 29.5505 32.1399 12.9847 29.9005 9.23495C24.5081 10.1627 11.159 15.9413 17.9728 40.8777C29.0955 35.7442 40.6061 29.5505 40.6061 29.5505Z" fill="#F498A7"/>
<path d="M29.0395 10.684C29.126 10.6723 29.1824 10.7247 29.1966 10.8095C29.2751 10.8723 29.3437 10.9564 29.37 11.073C29.3922 11.0833 29.4143 11.0937 29.4264 11.1254C33.3357 17.6419 37.1204 24.3086 40.336 31.1523C40.3702 31.1944 40.3502 31.2371 40.318 31.2482C40.3301 31.2799 40.3322 31.333 40.2679 31.355C32.9562 35.3115 25.2756 38.7308 17.6693 42.1067C17.6492 42.1494 17.6392 42.1708 17.597 42.2032C17.5548 42.2356 17.5205 42.1935 17.5406 42.1508C17.5506 42.1294 17.5606 42.108 17.5928 42.097C17.5042 42.0556 17.4658 41.9074 17.5723 41.853C18.3203 41.5251 19.0461 41.1869 19.7941 40.859C15.4763 30.3216 18.9508 16.9903 29.8185 12.2465C29.6087 11.888 29.411 11.5611 29.2012 11.2025C29.177 11.1391 29.197 11.0963 29.2392 11.064C29.205 11.0219 29.1707 10.9798 29.1364 10.9378C29.1264 10.9591 29.1042 10.9488 29.0721 10.9598C22.5203 11.8583 17.3959 17.2538 15.8862 23.3484C14.3284 29.6028 15.9476 35.9351 17.452 42.1094C17.4884 42.2045 17.3053 42.2493 17.269 42.1541C15.4082 35.7611 13.9267 28.7899 15.8685 22.3501C17.6082 16.5714 22.7673 11.5048 29.0395 10.684ZM29.9355 12.4575C25.1502 14.5984 21.5246 18.5839 19.6687 23.3443C17.4682 29.0118 18.0328 35.0596 19.9328 40.7935C26.7468 37.7248 33.4417 34.392 40.2073 31.1964C36.9324 25.0545 33.7118 18.9119 30.1917 12.8899L30.1817 12.9113C27.6645 14.1319 25.5853 16.2607 23.7192 18.2807C22.0621 20.0857 20.7957 22.1513 19.9943 24.4344C18.1573 29.6726 18.876 35.2192 20.3569 40.5228C20.3711 40.6076 20.2525 40.6303 20.2061 40.5565C18.4757 35.2666 17.9617 29.3988 19.8309 24.1496C20.7225 21.6742 22.1276 19.5431 23.9557 17.6617C25.7516 15.7913 27.6741 13.8238 30.0747 12.6789C30.0283 12.6051 29.9819 12.5313 29.9355 12.4575Z" fill="white"/>
<path d="M34.8255 30.0303C34.5176 30.0616 34.339 30.3285 34.3957 30.6052C34.6244 31.5378 35.8083 30.8899 36.3244 30.7557C36.4093 30.7453 36.3919 30.6121 36.2948 30.5917C36.2729 30.5815 36.2729 30.5815 36.2414 30.5918C36.2607 30.5508 36.2485 30.52 36.2362 30.4893C35.9153 30.2643 35.5462 30.1419 35.1605 30.1118C35.0608 30.0402 34.9419 30.0096 34.8255 30.0303Z" fill="white"/>
<path d="M32.4689 24.569C32.7704 24.8305 33.0255 25.1909 33.113 25.5695C33.2063 25.7096 33.1103 25.8577 32.9302 25.8459C32.4831 25.7816 32.0607 25.6084 31.725 25.3068C31.4452 25.0554 31.1435 24.625 31.4286 24.3C31.7572 23.9952 32.2327 24.338 32.4689 24.569Z" fill="white"/>
<path d="M30.5804 32.5541C30.6778 32.5725 30.702 32.747 30.6166 32.8159C30.6279 32.8484 30.6174 32.8707 30.6069 32.893C30.3427 33.2865 29.9577 33.5419 29.4945 33.6247C29.1715 33.6915 28.7389 33.6526 28.647 33.2832C28.5552 32.9138 28.9515 32.6909 29.2415 32.5815C29.6604 32.4236 30.1357 32.428 30.5804 32.5541ZM29.426 33.3751C29.534 33.3711 29.6411 33.3124 29.7378 33.2759C29.5654 33.3042 29.4252 33.3203 29.2528 33.3486C29.2311 33.3384 29.1989 33.3506 29.1989 33.3506L29.0265 33.3789C29.1779 33.3952 29.372 33.3771 29.426 33.3751Z" fill="white"/>
<path d="M26.1546 26.778C26.5576 27.0194 26.8446 27.3922 27.0443 27.7773C27.0685 27.8416 27.0481 27.8851 26.9952 27.94C27.0843 27.9816 27.0351 28.1443 26.9358 28.1244C26.4836 28.0457 25.8568 27.9915 25.464 27.7283C25.1947 27.5495 25.0498 27.1635 25.1927 26.8589C25.4108 26.51 25.8528 26.6105 26.1546 26.778Z" fill="white"/>
<path d="M23.229 34.9515C23.252 34.9622 23.275 34.9729 23.3209 34.9944C23.4206 34.9612 23.5482 35.0474 23.474 35.1457C23.2156 35.6367 22.1014 36.3395 21.6399 35.592C21.4819 35.3319 21.5588 35.0487 21.8449 34.9164C22.2307 34.751 22.8307 34.8452 23.229 34.9515Z" fill="white"/>
<path d="M26.7216 19.6334C27.0208 20.0971 27.1119 20.5984 27.0826 21.1244C27.0649 21.2781 26.8568 21.3158 26.7764 21.1973C26.708 21.1113 26.6618 21.0358 26.5934 20.9498C25.9657 20.5486 24.9808 19.5757 25.7386 19.1201C26.1294 18.9249 26.5267 19.3534 26.7216 19.6334ZM26.615 20.1503C26.5912 20.0852 26.5674 20.0201 26.5435 19.955C26.5435 19.955 26.5435 19.955 26.5331 19.9771C26.5689 20.0748 26.5927 20.1399 26.6062 20.2272L26.6181 20.2597C26.63 20.2923 26.6092 20.3365 26.5989 20.3587C26.645 20.4342 26.6792 20.4772 26.7254 20.5527C26.7 20.4329 26.685 20.291 26.615 20.1503Z" fill="white"/>
</svg>
