<svg width="39" height="41" viewBox="0 0 39 41" fill="none" xmlns="http://www.w3.org/2000/svg">
<path d="M26.4871 33.3536C28.4397 31.9733 29.8739 29.5049 30.8275 27.4019C31.9605 24.9054 31.9517 21.7169 31.3564 19.0807C30.8103 16.6529 30.0056 14.5889 28.6141 12.5584C27.3801 10.7472 25.1561 8.48702 21.9668 7.33924L22.0259 7.40146C18.4559 5.93658 14.9053 6.83493 12.7708 8.15114C10.3574 9.60457 8.35508 11.7152 7.92745 14.5621C7.86306 15.0422 7.79868 15.5222 7.76666 16.0217C7.49798 17.9891 7.62293 19.6464 8.37014 22.5255C8.56925 23.2973 8.87658 24.0802 9.25422 24.8784C9.98286 26.6912 10.9524 28.3709 12.117 29.7471C15.3706 33.589 21.6172 36.8069 26.4871 33.3536Z" fill="#F498A7"/>
<path d="M28.0472 32.3708C26.0322 33.5129 22.5758 33.262 20.36 33.2688C17.7379 33.2772 15.0284 32.0387 13.0455 30.4964C11.2268 29.0865 9.79953 27.5859 8.67701 25.5957C7.67238 23.8265 6.7129 21.0222 7.10228 17.8345L7.13187 17.9144C7.42545 14.2153 9.74043 11.5013 11.7837 10.1439C14.0747 8.62907 16.7221 7.71663 19.3358 8.44374C19.7748 8.55949 20.2169 8.71274 20.6444 8.87525C22.43 9.4181 23.8012 10.1452 25.9109 11.9227C26.4713 12.3955 27.0322 12.9666 27.529 13.5981C28.7655 14.924 29.7777 16.4121 30.4423 17.9632C32.3322 22.2878 33.0947 29.4993 28.0472 32.3708Z" stroke="white" stroke-opacity="0.5" stroke-miterlimit="10"/>
<path d="M6.86091 20.6924C6.36899 19.0709 6.32631 17.1847 6.74915 15.3194C7.22386 13.2438 8.62445 11.8839 9.24612 11.372C9.36562 11.1386 9.51287 10.5918 9.48874 10.4887C9.43472 10.3059 9.5689 10.0632 9.71252 9.93284C9.94944 9.62509 10.3195 9.43028 10.6786 9.38049C10.9994 9.3352 11.356 9.89845 11.5337 10.0818C11.8803 10.4344 11.5737 10.9244 11.5737 10.9244C11.5737 10.9244 11.4154 11.064 10.8146 11.0893C10.2227 11.1286 9.78242 11.4073 9.78242 11.4073C9.78242 11.4073 9.71164 11.3929 9.68544 11.449C10.0761 12.3259 11.1537 14.9377 11.5015 17.1435C11.9285 19.8317 11.8614 24.2726 11.9601 25.078C12.001 25.5648 12.4818 25.6747 12.8618 25.6906C12.9473 25.6957 12.909 25.7002 12.7853 25.6996C12.7381 25.69 12.6852 25.7038 12.638 25.6942C12.7088 25.7086 12.7942 25.7137 12.8561 25.7139C12.5321 25.7218 12.043 25.6961 11.4385 25.5856C10.2946 25.4024 9.06838 24.6993 7.80896 22.7747C7.39317 22.1503 7.0948 21.4516 6.86091 20.6924Z" fill="#F498A7" stroke="white" stroke-opacity="0.5" stroke-miterlimit="10"/>
</svg>
