<svg width="266" height="122" viewBox="0 0 266 122" fill="none" xmlns="http://www.w3.org/2000/svg">
<path d="M39.532 95.1113H66.9225C70.7138 95.1113 73.8088 96.1191 76.2074 98.2123C78.6834 100.305 79.844 103.174 79.844 106.895C79.844 110.461 78.606 113.252 76.13 115.345C73.6541 117.438 70.5591 118.446 66.8451 118.446H14.8497C9.58821 118.446 5.7195 117.206 3.3209 114.802C1.38654 112.864 0.38068 109.996 0.38068 106.275C0.458054 104.182 1.15442 102.243 2.31504 100.538C3.47565 98.7549 5.17788 96.8168 7.26698 94.5687C7.57648 94.2586 9.51084 92.0879 12.9927 88.1342C16.4745 84.1805 19.6469 80.5369 22.5097 77.2809C25.3726 73.9474 27.7712 71.3116 29.6281 69.2185C31.4851 67.1254 32.8778 65.5749 33.729 64.4896C38.7583 58.6753 42.8591 53.5588 45.9541 49.2175C49.0491 44.7986 50.5192 40.5348 50.5192 36.4261C50.5192 34.2554 50.0549 32.3174 49.2038 30.4568C48.2753 28.5962 47.0373 27.1233 45.3351 26.038C43.7102 24.8751 41.8533 24.3324 39.8415 24.3324C33.2647 24.3324 28.9318 28.2086 26.8427 35.8834C25.9142 39.372 25.1404 42.0078 24.4441 43.8683C23.7477 45.6514 22.5871 47.2794 20.9622 48.5973C19.3374 49.9152 17.0935 50.6129 14.2307 50.6129C10.5167 50.6129 7.57648 49.3725 5.41 46.9693C3.24353 44.4885 2.08291 41.3876 2.08291 37.6665C2.08291 32.705 3.16615 27.8985 5.25526 23.3246C7.34436 18.7507 10.2846 14.7195 13.9212 11.231C17.5578 7.74242 21.736 5.10662 26.3784 3.16854C30.9435 1.23045 35.7407 0.300171 40.6926 0.300171C45.5672 0.300171 50.2097 1.15293 54.62 2.78092C59.0303 4.40891 62.9764 6.81214 66.3809 9.91308C69.7854 13.014 72.4935 16.6576 74.5052 20.9214C76.4395 25.1852 77.4454 29.8366 77.4454 34.7981C77.4454 41.2325 76.13 47.1243 73.5767 52.6285C71.0233 58.0551 67.3094 63.7919 62.4348 69.9162C54.8521 79.219 47.1921 87.6691 39.532 95.1113Z" fill="black"/>
<path d="M246.431 54.7991C252.698 58.1327 257.34 62.0088 260.435 66.5827C263.84 71.6217 265.619 77.2809 265.619 83.7154C265.619 89.2971 264.536 94.4136 262.447 99.065C260.281 103.716 257.34 107.748 253.626 111.081C249.835 114.415 245.502 116.973 240.627 118.756C235.753 120.539 230.569 121.392 225.075 121.392C215.636 121.392 207.511 119.221 200.702 114.802C196.292 111.779 192.578 108.135 189.406 103.716C186.311 99.2976 184.609 94.7237 184.299 89.9948C184.299 86.7388 185.537 83.7929 187.936 81.3122C190.334 78.7539 193.197 77.5135 196.369 77.5135C200.934 77.5135 204.262 79.3741 206.428 83.0952L209.291 88.0567C210.761 90.6925 212.773 92.8632 215.326 94.4911C217.879 96.1191 220.51 96.9719 223.296 96.9719C227.706 96.9719 231.42 95.5765 234.283 92.8632C237.146 90.0723 238.616 86.5062 238.616 82.1649C238.616 74.2575 233.819 69.9162 224.302 69.141C219.659 68.5983 216.564 67.668 214.939 66.3501C212.154 64.1795 210.838 61.1561 210.838 57.3574C210.838 54.6441 211.38 52.551 212.463 51.078C213.547 49.6051 214.862 48.5197 216.409 47.8996C217.957 47.2794 220.355 46.5041 223.605 45.5739C230.956 43.6358 234.67 39.527 234.67 33.4027C234.515 30.6894 233.354 28.5187 231.343 26.8907C229.253 25.2627 226.855 24.41 223.992 24.41C219.427 24.41 214.939 26.9682 210.606 32.0073C206.583 36.5036 202.714 38.7518 199.078 38.7518C196.06 38.7518 193.429 37.5889 191.263 35.2632C189.096 32.9375 187.936 30.3017 187.936 27.3559C187.936 23.2471 189.096 19.4485 191.495 16.0374C193.893 12.6264 196.988 9.75803 200.702 7.43233C204.416 5.10662 208.517 3.32358 212.85 2.00569C216.951 0.920358 220.974 0.300171 224.688 0.300171C234.051 0.300171 242.02 2.93597 248.674 8.20756C251.924 10.9209 254.477 14.1769 256.412 18.1306C258.269 22.0067 259.275 26.038 259.275 30.2242C259.275 35.8834 258.269 40.5348 256.334 44.256C254.245 47.9771 250.996 51.4656 246.431 54.7991Z" fill="black"/>
<path fill-rule="evenodd" clip-rule="evenodd" d="M179.728 40.088C179.728 44.2008 176.393 47.5349 172.281 47.5349H93.7196C89.6068 47.5349 86.2726 44.2008 86.2726 40.088C86.2726 35.9752 89.6068 32.6411 93.7196 32.6411H172.281C176.393 32.6411 179.728 35.9752 179.728 40.088Z" fill="black"/>
<path fill-rule="evenodd" clip-rule="evenodd" d="M179.727 77.1645C179.727 81.2774 176.393 84.6115 172.28 84.6115H93.7195C89.6066 84.6115 86.2725 81.2774 86.2725 77.1645C86.2725 73.0517 89.6066 69.7176 93.7195 69.7176H172.28C176.393 69.7176 179.727 73.0517 179.727 77.1645Z" fill="black"/>
</svg>
