<svg width="1666" height="918" viewBox="0 0 1666 918" fill="none" xmlns="http://www.w3.org/2000/svg">
<path d="M395.286 140.124C414.569 92.732 395.889 40.3523 353.563 23.1305C311.237 5.90867 261.293 30.3663 242.01 77.7581C222.727 125.15 241.407 177.53 283.733 194.751C326.059 211.973 376.002 187.516 395.286 140.124Z" fill="#FFF500"/>
<path d="M358.093 849.842L0 768.225L37.694 532.159L426.613 620.803L358.093 849.842Z" fill="#FFF500"/>
<path d="M28.9094 435.528L7.8263 485.52L473.571 591.734L476.286 537.589L28.9094 435.528Z" fill="#FFF500"/>
<path d="M92.4782 411.25C92.3184 410.771 92.1587 410.611 92.1587 410.292L91.999 409.493C91.8393 409.014 91.6796 408.535 91.6796 407.896C91.5198 406.938 91.3601 405.82 91.3601 404.702C91.3601 402.465 91.6796 399.91 93.117 397.674C94.3948 395.438 96.4712 394 98.2281 393.202C100.145 392.403 101.742 392.084 103.339 391.924C106.534 391.604 109.409 391.924 112.284 392.243C115.158 392.563 117.874 393.202 120.589 393.841C126.019 394.959 131.131 396.556 136.401 397.834C141.512 398.952 146.943 400.07 152.054 399.271C154.609 398.792 156.846 397.834 158.602 396.236C160.359 394.639 161.637 392.563 162.595 390.327L163.234 388.57L163.713 386.813C163.873 386.174 164.033 385.535 164.033 384.896L164.352 382.98C164.832 380.264 165.311 377.549 165.95 374.834C167.068 369.403 168.505 363.813 170.901 358.383C172.019 355.667 173.456 352.952 175.213 350.237C176.97 347.522 179.206 344.966 182.081 342.57C184.956 340.174 188.79 338.418 192.942 337.938C195.019 337.779 197.095 337.938 199.012 338.258C200.928 338.737 202.685 339.376 204.282 340.174C207.477 341.931 210.032 344.008 212.269 345.924C214.505 348.001 216.741 349.917 218.817 351.994C222.81 356.147 226.324 360.459 229.518 365.091C232.713 369.723 235.588 374.514 237.984 379.625C240.379 384.736 242.456 389.848 244.053 395.278C245.65 400.709 246.928 406.139 247.726 411.57C248.525 417.16 249.004 422.59 249.164 428.18C249.164 431.055 249.164 433.771 249.004 436.646C248.845 438.083 248.845 439.521 248.685 440.958C248.525 442.396 248.365 443.673 248.206 445.43L244.053 449.423C242.935 450.541 241.178 450.382 240.06 449.264C239.421 448.465 239.102 447.507 239.421 446.548C239.9 444.791 239.9 443.354 239.581 441.916C239.261 440.639 238.942 439.361 238.303 438.243C237.025 436.007 235.747 433.611 234.47 431.375C231.914 426.743 229.518 422.111 226.963 417.319C222.011 407.896 217.22 398.313 213.067 388.41C210.991 383.459 209.074 378.188 207.477 372.917C205.88 367.487 204.602 361.896 204.123 355.987C203.644 349.917 203.644 343.369 206.519 336.181C207.956 332.668 210.192 328.994 213.227 325.959C216.421 322.925 220.255 320.848 223.928 319.571C227.761 318.293 231.275 317.814 234.789 317.654C236.546 317.654 237.984 317.654 239.581 317.654C241.178 317.814 242.775 317.814 244.213 317.973C247.407 318.293 250.601 319.091 253.956 320.05C257.15 321.168 260.504 322.605 263.539 324.522C266.573 326.438 269.448 328.994 271.844 331.869C274.24 334.744 276.157 337.938 277.434 341.133C280.15 347.681 281.108 354.07 281.268 360.14C281.427 366.209 280.629 371.959 279.511 377.549C278.393 383.139 276.955 388.41 275.039 393.681C273.282 398.952 271.205 403.903 268.969 408.854C266.733 413.806 264.337 418.597 261.622 423.389L261.143 423.229C258.747 427.542 256.351 431.854 254.115 436.166L250.761 442.715C249.643 444.951 248.525 447.027 247.407 449.264L242.296 446.229C247.407 439.84 252.678 433.771 258.428 428.021C264.018 422.111 270.247 416.681 276.796 411.729C280.15 409.174 283.664 406.778 287.657 404.861C291.65 402.945 296.281 401.347 301.393 401.507C306.663 401.667 311.934 404.063 315.608 407.736C317.524 409.493 318.962 411.41 320.24 413.486C321.517 415.563 322.476 417.639 323.434 419.715C325.031 423.868 326.469 428.66 325.83 434.09C325.51 436.805 324.712 439.521 323.274 441.916C321.837 444.312 319.92 446.229 317.844 447.666C313.691 450.541 309.219 451.819 305.066 452.458C300.754 453.097 296.601 453.416 292.608 453.416C284.462 453.416 276.316 452.937 268.33 452.458C264.337 452.298 260.344 451.979 256.192 451.979C252.039 451.819 248.046 451.979 243.733 452.139C241.657 451.979 240.22 450.222 240.539 448.146L240.699 447.507C241.178 443.354 241.977 439.521 242.935 435.528C243.893 431.535 245.011 427.701 246.289 423.868C247.567 420.035 249.164 416.201 250.761 412.528C252.518 408.854 254.435 405.021 256.671 401.507C261.143 394.479 266.573 387.611 273.601 382.181C280.629 376.591 289.094 372.598 298.198 371.16C302.67 370.362 307.302 370.202 311.774 370.681C314.01 370.841 316.247 371.16 318.483 371.639C320.719 372.119 323.115 372.598 325.351 373.556C329.823 375.153 334.135 377.549 337.809 380.424C341.482 383.299 344.677 386.653 347.232 390.007C352.503 396.875 356.496 403.903 360.329 410.451C364.163 417.16 367.996 423.549 372.308 429.618C376.621 435.528 381.732 441.118 387.322 445.75C390.197 448.146 393.072 450.382 396.267 452.298C399.461 454.215 402.815 455.812 406.169 457.409C419.586 463.958 434.28 467.951 449.453 470.027C464.627 472.263 480.12 472.902 495.613 472.583C511.106 472.263 526.598 471.145 542.091 469.548C534.425 470.986 526.758 472.423 519.092 473.381C511.425 474.499 503.599 475.458 495.772 476.097C480.279 477.534 464.467 478.013 448.655 476.735C440.829 476.097 432.843 474.979 425.016 473.381C417.19 471.624 409.364 469.388 402.016 466.194C398.343 464.437 394.829 462.52 391.315 460.444C387.801 458.368 384.287 456.132 381.093 453.736C374.545 448.944 368.475 443.354 363.045 437.125C357.614 431.055 352.823 424.507 348.191 418.118C345.955 414.924 343.718 411.729 341.482 408.695C339.246 405.66 337.01 402.785 334.774 400.229C332.538 397.674 330.142 395.278 327.587 393.521C325.031 391.764 322.476 390.327 319.601 389.368C318.163 388.889 316.726 388.57 315.129 388.25C313.531 387.931 311.934 387.771 310.177 387.611C306.823 387.292 303.629 387.452 300.434 387.771C294.205 388.73 288.136 391.125 282.705 394.959C277.275 398.792 272.323 403.903 268.171 409.653C266.094 412.528 264.018 415.563 262.101 418.757C260.185 421.951 258.587 425.146 256.831 428.5C253.636 435.208 250.761 442.396 248.365 449.264L245.171 444.472C248.685 446.229 252.678 447.347 256.511 448.305C260.344 449.264 264.337 449.902 268.33 450.382C276.316 451.18 284.302 451.02 292.129 449.583C295.962 448.784 299.795 447.986 303.309 446.389C306.823 444.951 310.017 443.034 311.934 440.798C314.01 438.562 314.649 436.166 314.49 433.611C314.33 430.896 313.372 427.861 312.094 424.667C310.656 421.472 309.059 418.597 307.142 416.361C305.226 414.285 303.149 412.688 300.275 412.049C297.559 411.41 294.045 411.729 290.532 412.688C287.018 413.646 283.504 415.243 280.309 417.16C273.761 421.153 267.851 426.424 262.261 432.014C256.831 437.604 251.56 443.673 246.928 449.902C245.97 451.18 244.053 451.5 242.775 450.541C241.657 449.743 241.178 448.146 241.817 446.868C242.775 444.632 243.733 442.396 244.852 440.159L247.726 433.451C249.643 428.979 251.56 424.347 253.317 419.715L252.838 419.556C256.032 409.972 258.587 399.91 260.344 390.167C261.942 380.424 262.9 370.362 261.622 361.737C260.983 357.424 259.865 353.431 258.108 350.397C256.351 347.362 254.275 345.286 251.56 343.848C248.845 342.411 245.331 341.293 241.178 340.813C240.22 340.654 239.102 340.654 238.143 340.494L235.109 340.334C233.352 340.334 231.754 340.494 230.477 340.813C229.199 341.133 228.4 341.452 227.602 342.091C226.803 342.57 226.164 343.369 225.366 344.647C223.928 347.042 222.97 351.195 222.65 355.667C222.331 360.14 222.491 364.931 222.97 369.882C223.449 374.834 224.248 379.785 225.046 384.736C226.963 394.799 229.678 404.861 232.872 414.764C234.47 419.715 236.386 424.667 238.303 429.458C239.261 431.854 240.22 434.25 241.338 436.646C241.817 437.923 242.615 438.882 243.574 439.84C244.532 440.798 245.65 441.757 247.407 442.236L238.463 443.514C238.782 442.555 238.942 441.118 239.261 440C239.421 438.722 239.74 437.444 239.74 436.166C240.06 433.611 240.22 431.055 240.22 428.5C240.379 423.389 240.06 418.118 239.421 413.007C238.782 407.896 237.664 402.785 236.067 397.834C234.629 392.882 232.713 388.091 230.317 383.459C227.921 378.827 225.366 374.514 222.171 370.362C219.137 366.209 215.623 362.376 211.949 358.862C210.192 357.105 208.276 355.667 206.039 354.549C204.921 354.07 203.963 353.591 202.845 353.431C201.727 353.112 200.769 353.112 199.81 353.112C197.894 353.112 196.456 353.591 195.338 354.07C194.22 354.549 193.102 355.188 191.665 355.987C188.79 357.744 185.595 361.258 182.88 365.251C180.005 369.244 177.29 373.556 174.734 378.188C173.456 380.424 172.179 382.82 171.061 385.216C169.783 387.611 168.505 390.486 166.748 392.882C164.991 395.278 162.915 397.514 160.359 399.111C157.804 400.709 154.769 401.507 152.054 401.827C149.179 401.986 146.464 401.827 143.748 401.507C141.033 401.188 138.318 400.549 135.762 400.07C130.492 398.952 125.221 397.993 119.95 397.674C117.235 397.514 114.679 397.514 112.124 397.674C109.568 397.834 107.013 398.313 104.936 399.271C103.978 399.75 103.02 400.229 102.541 400.868C102.061 401.507 102.061 401.986 102.221 402.146C102.381 402.306 102.7 402.625 103.02 403.104C103.179 403.264 103.499 403.584 103.818 403.743C103.978 403.903 104.138 403.903 104.297 404.063L104.457 404.222C104.457 404.222 104.617 404.382 104.617 404.063L92.4782 411.25Z" fill="#FFF500"/>
<path d="M1665.25 430.097L1307.79 514.11L1237.67 285.55L1625.95 194.19L1665.25 430.097Z" fill="#FFF500"/>
<path d="M1187.36 202.655L1190.56 256.8L1655.5 147.392L1634.1 97.5591L1187.36 202.655Z" fill="#FFF500"/>
<path d="M1233.84 152.982C1233.36 152.663 1233.36 152.503 1233.04 152.183L1232.56 151.545C1232.24 151.065 1231.92 150.746 1231.6 150.267C1230.97 149.468 1230.49 148.51 1230.01 147.552C1229.05 145.635 1228.25 143.079 1228.41 140.524C1228.57 137.968 1229.69 135.732 1230.97 134.135C1232.24 132.538 1233.68 131.58 1234.96 130.781C1237.67 129.024 1240.39 128.066 1243.1 127.107C1245.82 126.149 1248.53 125.51 1251.09 124.871C1256.36 123.594 1261.79 122.635 1267.06 121.517C1272.17 120.239 1277.6 118.962 1281.76 115.927C1283.83 114.489 1285.43 112.573 1286.39 110.337C1287.35 108.101 1287.51 105.705 1287.35 103.309L1287.19 101.552L1286.87 99.7952C1286.71 99.1563 1286.55 98.5174 1286.39 98.0382L1285.91 96.1216C1285.11 93.4063 1284.31 90.8508 1283.67 88.1356C1282.24 82.7051 1281.12 77.1149 1280.8 71.2052C1280.64 68.1705 1280.64 65.1358 1281.12 61.9414C1281.6 58.747 1282.4 55.3929 1283.99 52.0387C1285.59 48.6846 1288.15 45.3305 1291.82 43.0944C1293.58 41.9764 1295.49 41.1778 1297.41 40.6986C1299.33 40.2194 1301.24 40.0597 1303 40.2194C1306.67 40.3792 1309.87 41.1778 1312.74 41.9764C1315.78 42.775 1318.49 43.5736 1321.21 44.5319C1326.64 46.4485 1331.59 49.0041 1336.54 51.7193C1341.49 54.4346 1346.12 57.629 1350.44 61.1428C1354.75 64.6567 1358.9 68.49 1362.74 72.483C1366.57 76.6357 1370.08 80.9482 1373.28 85.58C1376.47 90.2119 1379.35 95.0036 1381.9 99.9549C1383.18 102.51 1384.3 104.906 1385.42 107.621C1385.89 108.899 1386.53 110.177 1387.01 111.614C1387.49 113.052 1387.97 114.17 1388.45 115.767L1386.37 121.198C1385.89 122.635 1384.14 123.434 1382.7 122.795C1381.74 122.475 1381.1 121.677 1380.94 120.719C1380.62 118.802 1379.83 117.684 1379.03 116.406C1378.23 115.288 1377.27 114.33 1376.15 113.691C1373.92 112.253 1371.84 110.656 1369.6 109.219C1365.29 106.184 1360.98 103.149 1356.67 99.9549C1348.2 93.7258 1339.58 87.1773 1331.59 79.9898C1327.6 76.476 1323.6 72.6427 1319.77 68.49C1315.94 64.3372 1312.42 59.8651 1309.23 54.754C1306.19 49.6429 1303.32 43.5736 1302.68 35.907C1302.36 32.0737 1302.84 27.7612 1304.28 23.7682C1305.71 19.7752 1308.27 16.1016 1311.15 13.2267C1314.02 10.5114 1317.06 8.43506 1320.09 6.67813C1321.69 5.87953 1322.96 5.24065 1324.4 4.60177C1325.84 3.96289 1327.28 3.324 1328.87 2.84484C1331.91 1.7268 1335.1 0.928198 1338.46 0.449036C1341.81 -0.0301251 1345.49 -0.189846 1349 0.289316C1352.67 0.768477 1356.35 1.7268 1359.7 3.16428C1363.05 4.60177 1366.25 6.67813 1368.8 8.91422C1374.08 13.5461 1377.91 18.9766 1380.62 24.4071C1383.5 29.8376 1385.26 35.4278 1386.69 40.8583C1388.13 46.2888 1389.09 51.879 1389.89 57.3095C1390.53 62.74 1391.01 68.1705 1391.17 73.601C1391.33 79.0315 1391.17 84.3023 1390.85 89.8925H1390.37C1390.05 94.8438 1389.89 99.7952 1389.73 104.587L1389.57 111.934C1389.57 114.33 1389.41 116.885 1389.41 119.281L1383.5 118.802C1385.26 110.816 1387.49 102.99 1390.05 95.323C1392.6 87.4967 1395.64 79.9898 1399.47 72.6427C1401.39 68.9691 1403.46 65.2956 1406.18 61.7817C1408.89 58.2678 1412.41 54.9137 1417.04 52.8373C1421.83 50.6013 1427.74 50.4415 1432.53 52.1985C1434.93 52.9971 1437.16 54.1151 1439.24 55.3929C1441.32 56.6706 1443.07 58.1081 1444.83 59.5456C1448.19 62.5803 1451.38 66.2539 1453.3 71.3649C1454.25 73.9205 1454.73 76.6357 1454.41 79.5107C1454.1 82.2259 1453.3 84.9412 1452.18 87.0175C1449.78 91.4897 1446.27 94.5244 1442.76 96.9202C1439.24 99.4757 1435.57 101.392 1431.89 103.309C1424.55 106.983 1417.04 110.017 1409.69 113.052C1406.02 114.649 1402.35 116.246 1398.67 118.003C1395 119.76 1391.33 121.517 1387.65 123.594C1385.73 124.232 1383.66 123.274 1383.02 121.517L1382.86 120.878C1381.42 116.885 1380.46 113.052 1379.51 109.219C1378.55 105.226 1377.91 101.233 1377.43 97.2396C1376.95 93.2466 1376.63 89.0939 1376.47 85.1009C1376.47 80.9482 1376.47 76.7954 1376.95 72.6427C1377.75 64.3372 1379.67 55.872 1383.66 47.7263C1387.49 39.7403 1393.4 32.2334 1400.91 26.9626C1404.58 24.2474 1408.73 22.171 1412.89 20.5738C1414.96 19.7752 1417.04 18.9766 1419.28 18.4974C1421.51 17.8586 1423.91 17.3794 1426.3 17.2197C1431.1 16.7405 1435.89 16.9002 1440.52 17.8586C1445.15 18.8169 1449.3 20.4141 1453.3 22.3307C1461.12 26.164 1467.67 30.6362 1474.06 34.9487C1480.45 39.2611 1486.68 43.4138 1493.23 46.9277C1499.78 50.4415 1506.64 53.1568 1513.83 54.9137C1517.34 55.872 1521.02 56.5109 1524.69 56.8304C1528.37 57.1498 1532.04 57.1498 1535.87 56.9901C1550.73 56.9901 1565.74 53.9554 1580.43 49.3235C1594.97 44.5319 1609.18 38.4625 1622.92 31.4348C1636.66 24.4071 1650.07 16.5808 1663.33 8.27534C1657.1 12.9072 1650.87 17.5391 1644.32 21.8516C1637.93 26.3238 1631.39 30.4765 1624.68 34.6292C1611.26 42.775 1597.36 50.1221 1582.67 55.872C1575.32 58.747 1567.82 61.3025 1559.99 63.2192C1552.16 65.1358 1544.18 66.5733 1536.19 66.8928C1532.2 67.0525 1528.05 66.733 1524.05 66.4136C1520.06 66.0941 1515.91 65.615 1511.91 64.9761C1503.93 63.5386 1495.94 61.1428 1488.44 58.1081C1480.93 55.0734 1473.74 51.2401 1466.87 47.5666C1463.36 45.6499 1460 43.7333 1456.81 42.1361C1453.46 40.3792 1450.26 38.7819 1447.07 37.5042C1443.87 36.2264 1440.68 35.1084 1437.64 34.6292C1434.61 34.1501 1431.57 33.9903 1428.7 34.3098C1427.26 34.4695 1425.67 34.7889 1424.23 35.2681C1422.63 35.7473 1421.03 36.2264 1419.6 36.7056C1416.56 37.8236 1413.69 39.4208 1410.97 41.1778C1405.7 44.6916 1401.39 49.4832 1398.19 55.3929C1395 61.3025 1392.76 68.0108 1391.48 75.0385C1390.85 78.5523 1390.37 82.2259 1390.05 85.8995C1389.73 89.5731 1389.73 93.2466 1389.73 97.0799C1389.73 104.427 1390.37 112.253 1391.33 119.441L1386.37 116.566C1390.37 116.566 1394.36 115.927 1398.19 115.128C1402.03 114.33 1405.86 113.212 1409.69 111.774C1417.2 108.899 1424.23 105.226 1430.62 100.753C1433.81 98.3577 1436.85 95.9619 1439.24 93.0869C1441.64 90.3717 1443.71 87.1773 1444.51 84.3023C1445.31 81.4273 1444.99 79.0315 1443.71 76.6357C1442.44 74.2399 1440.2 71.8441 1437.48 69.608C1434.77 67.3719 1432.05 65.4553 1429.34 64.3372C1426.62 63.2192 1424.07 62.8997 1421.35 63.5386C1418.48 64.1775 1415.6 65.9344 1412.89 68.3302C1410.17 70.726 1407.78 73.7607 1405.7 76.9551C1401.55 83.344 1398.67 90.8508 1395.96 98.198C1393.56 105.705 1391.48 113.371 1390.05 121.038C1389.73 122.635 1388.13 123.753 1386.53 123.434C1385.1 123.114 1384.14 121.996 1384.14 120.559C1384.14 118.163 1383.98 115.607 1383.82 113.212L1383.5 105.865C1383.18 100.913 1382.86 95.9619 1382.54 91.1703H1382.06C1380.78 81.2676 1378.55 71.0455 1375.83 61.4623C1372.96 51.879 1369.44 42.6152 1364.49 35.2681C1362.1 31.5945 1359.22 28.5598 1356.35 26.6432C1353.47 24.7265 1350.76 23.7682 1347.56 23.6085C1344.37 23.4488 1340.85 24.0877 1336.86 25.5252C1335.9 25.8446 1334.94 26.3238 1333.99 26.6432L1331.27 27.921C1329.67 28.7196 1328.4 29.5182 1327.44 30.4765C1326.48 31.2751 1325.84 32.0737 1325.52 32.8723C1325.04 33.6709 1324.72 34.6292 1324.72 36.0667C1324.56 38.9417 1325.52 42.9347 1327.12 47.0874C1328.71 51.2401 1331.11 55.5526 1333.67 59.7053C1336.22 63.8581 1339.1 68.0108 1342.13 72.1635C1348.2 80.3093 1355.07 88.1356 1362.42 95.6424C1366.09 99.316 1369.76 102.99 1373.76 106.503C1375.67 108.26 1377.59 110.017 1379.67 111.614C1380.62 112.413 1381.74 113.212 1383.02 113.531C1384.3 114.01 1385.73 114.33 1387.49 114.01L1379.98 118.962C1379.83 118.003 1379.51 116.566 1379.03 115.448C1378.71 114.17 1378.23 113.052 1377.91 111.774C1377.11 109.378 1376.15 106.983 1375.03 104.587C1372.8 99.9549 1370.4 95.323 1367.53 91.0105C1364.65 86.6981 1361.46 82.7051 1357.94 78.8718C1354.43 75.0385 1350.6 71.5246 1346.44 68.49C1342.29 65.4553 1337.98 62.5803 1333.35 60.3442C1328.71 57.9484 1323.92 56.0318 1319.13 54.5943C1316.74 53.7957 1314.34 53.3165 1311.94 53.3165C1310.83 53.3165 1309.55 53.4762 1308.59 53.636C1307.47 53.7957 1306.51 54.2748 1305.71 54.5943C1303.96 55.3929 1303 56.5109 1302.2 57.4692C1301.4 58.4276 1300.6 59.3859 1299.81 60.8234C1298.05 63.6983 1296.77 68.1705 1295.97 72.9621C1295.17 77.7537 1294.53 82.8648 1294.37 88.1356C1294.22 90.8508 1294.22 93.4063 1294.22 96.1216C1294.22 98.8368 1294.22 101.872 1293.74 104.746C1293.26 107.621 1292.3 110.656 1290.7 113.212C1289.1 115.767 1286.87 117.844 1284.31 119.281C1281.92 120.719 1279.2 121.837 1276.65 122.635C1274.09 123.594 1271.38 124.073 1268.82 124.871C1263.55 126.149 1258.44 127.587 1253.49 129.663C1251.09 130.621 1248.69 131.739 1246.46 133.177C1244.22 134.455 1242.15 136.052 1240.71 137.809C1240.07 138.607 1239.43 139.566 1239.27 140.204C1239.11 141.003 1239.27 141.322 1239.59 141.482C1239.91 141.642 1240.23 141.642 1240.71 141.961C1241.03 142.121 1241.35 142.121 1241.67 142.281C1241.83 142.281 1241.99 142.441 1242.15 142.441C1242.31 142.441 1242.31 142.441 1242.47 142.441C1242.47 142.441 1242.63 142.441 1242.47 142.281L1233.84 152.982Z" fill="#FFF500"/>
<path d="M1302.04 598.026C1232.88 590.2 1175.54 637.797 1165.64 726.122C1155.58 814.447 1205.57 914.432 1265.78 917.627C1335.26 921.46 1405.86 842.718 1415.92 754.392C1425.98 666.067 1371.2 605.852 1302.04 598.026ZM1208.45 732.671C1185.13 709.351 1190.56 666.227 1220.58 636.199C1250.61 606.172 1293.74 600.741 1317.06 624.061C1340.37 647.38 1334.94 690.504 1304.92 720.532C1274.89 750.559 1231.76 755.99 1208.45 732.671ZM1274.41 907.565C1274.41 907.565 1345.8 864.919 1357.94 784.58L1396.6 792.246C1376.79 855.815 1324.56 907.565 1274.41 907.565Z" fill="#FFF500"/>
<path d="M1055.91 240.509C1046.81 240.509 1038.5 235.238 1034.83 226.933C1026.52 208.565 988.51 221.183 988.191 221.342C979.406 224.537 969.184 221.981 962.955 214.954C956.566 207.766 955.288 197.544 959.76 188.919C966.149 176.461 957.524 148.51 949.538 132.538C945.066 123.913 946.504 113.371 953.052 106.344L981.961 74.8788C980.045 75.0385 977.969 75.6774 976.531 77.1149L912.962 133.177C911.205 134.774 910.087 137.01 909.928 139.406C909.768 141.802 910.726 144.197 912.483 145.954C913.921 147.392 947.462 182.051 930.052 228.37C928.775 231.884 929.733 235.717 932.608 238.113C935.483 240.509 939.476 240.828 942.67 239.071C943.948 238.433 973.177 221.981 997.774 250.092L1009.75 266.543C1011.19 268.46 1013.27 269.738 1015.5 270.057C1015.98 270.057 1016.46 270.217 1016.78 270.217C1018.7 270.217 1020.45 269.578 1022.05 268.46L1055.75 243.224C1056.71 242.426 1057.51 241.627 1058.15 240.509C1057.19 240.509 1056.55 240.509 1055.91 240.509Z" fill="#FFF500"/>
<path d="M1064.38 83.344C1044.89 70.0872 1025.57 60.3442 1024.77 60.0248C1022.53 58.9067 1019.82 59.3859 1018.06 61.3025L965.83 118.163C964.233 119.92 963.913 122.475 965.031 124.552C965.191 125.031 988.829 171.031 975.253 197.065C974.135 199.141 974.455 201.537 976.052 203.294C977.649 205.051 980.045 205.69 982.121 204.891C982.6 204.732 1035.47 185.725 1050.8 219.745C1051.76 221.822 1053.68 223.099 1055.91 223.099C1056.55 223.099 1057.03 222.94 1057.67 222.78C1060.38 221.822 1061.98 219.106 1061.34 216.231C1060.86 214.155 1050.8 166.399 1087.06 151.545C1098.56 146.753 1104.63 140.045 1104.95 131.26C1105.43 117.844 1092.17 102.191 1064.38 83.344Z" fill="#FFF500"/>
</svg>
