<svg width="410" height="673" viewBox="0 0 410 673" fill="none" xmlns="http://www.w3.org/2000/svg">
<path d="M409.416 178.026L310.947 201.17L291.631 138.207L398.593 113.04L409.416 178.026Z" fill="#FFF500"/>
<path d="M277.771 115.372L278.651 130.287L406.733 100.148L400.837 86.4205L277.771 115.372Z" fill="#FFF500"/>
<path d="M290.575 101.688C290.443 101.6 290.443 101.556 290.355 101.468L290.223 101.292C290.135 101.16 290.047 101.072 289.959 100.94C289.783 100.72 289.651 100.456 289.519 100.192C289.255 99.6642 289.035 98.9602 289.079 98.2562C289.123 97.5522 289.431 96.9362 289.783 96.4962C290.135 96.0563 290.531 95.7923 290.883 95.5723C291.631 95.0883 292.379 94.8243 293.127 94.5603C293.875 94.2963 294.623 94.1203 295.327 93.9443C296.779 93.5923 298.275 93.3283 299.727 93.0203C301.135 92.6683 302.631 92.3163 303.775 91.4804C304.347 91.0844 304.787 90.5564 305.051 89.9404C305.315 89.3244 305.359 88.6644 305.315 88.0044L305.271 87.5205L305.183 87.0365C305.139 86.8605 305.095 86.6845 305.051 86.5525L304.919 86.0245C304.699 85.2765 304.479 84.5725 304.303 83.8245C303.907 82.3286 303.599 80.7886 303.511 79.1606C303.467 78.3247 303.467 77.4887 303.599 76.6087C303.731 75.7287 303.951 74.8047 304.391 73.8808C304.831 72.9568 305.535 72.0328 306.547 71.4168C307.031 71.1088 307.559 70.8889 308.087 70.7569C308.615 70.6249 309.143 70.5809 309.627 70.6249C310.639 70.6689 311.519 70.8889 312.311 71.1089C313.147 71.3289 313.895 71.5488 314.643 71.8128C316.139 72.3408 317.503 73.0448 318.867 73.7928C320.231 74.5408 321.506 75.4207 322.694 76.3887C323.882 77.3567 325.026 78.4127 326.082 79.5126C327.138 80.6566 328.106 81.8446 328.986 83.1206C329.866 84.3965 330.658 85.7165 331.362 87.0805C331.714 87.7844 332.022 88.4444 332.33 89.1924C332.462 89.5444 332.638 89.8964 332.77 90.2924C332.902 90.6884 333.034 90.9964 333.166 91.4364L332.594 92.9323C332.462 93.3283 331.978 93.5483 331.582 93.3723C331.318 93.2843 331.142 93.0643 331.098 92.8003C331.01 92.2724 330.79 91.9644 330.57 91.6124C330.35 91.3044 330.086 91.0404 329.778 90.8644C329.162 90.4684 328.59 90.0284 327.974 89.6324C326.786 88.7964 325.598 87.9604 324.41 87.0805C322.078 85.3645 319.703 83.5605 317.503 81.5806C316.403 80.6126 315.303 79.5566 314.247 78.4127C313.191 77.2687 312.223 76.0367 311.343 74.6288C310.507 73.2208 309.715 71.5489 309.539 69.4369C309.451 68.3809 309.583 67.193 309.979 66.093C310.375 64.993 311.079 63.9811 311.871 63.1891C312.663 62.4411 313.499 61.8691 314.335 61.3851C314.775 61.1651 315.127 60.9891 315.523 60.8131C315.919 60.6371 316.315 60.4611 316.755 60.3291C317.591 60.0211 318.471 59.8011 319.395 59.6692C320.319 59.5372 321.33 59.4932 322.298 59.6252C323.31 59.7571 324.322 60.0211 325.246 60.4171C326.17 60.8131 327.05 61.3851 327.754 62.0011C329.206 63.2771 330.262 64.773 331.01 66.269C331.802 67.765 332.286 69.3049 332.682 70.8009C333.078 72.2968 333.342 73.8368 333.562 75.3327C333.738 76.8287 333.87 78.3247 333.914 79.8206C333.958 81.3166 333.914 82.7686 333.826 84.3085H333.694C333.606 85.6725 333.562 87.0365 333.518 88.3564L333.474 90.3804C333.474 91.0404 333.43 91.7444 333.43 92.4043L331.802 92.2723C332.286 90.0724 332.902 87.9164 333.606 85.8045C334.31 83.6485 335.146 81.5806 336.202 79.5566C336.73 78.5447 337.302 77.5327 338.05 76.5647C338.798 75.5967 339.766 74.6727 341.042 74.1008C342.362 73.4848 343.99 73.4408 345.31 73.9248C345.97 74.1448 346.586 74.4528 347.158 74.8047C347.73 75.1567 348.214 75.5527 348.698 75.9487C349.622 76.7847 350.502 77.7967 351.03 79.2046C351.294 79.9086 351.426 80.6566 351.338 81.4486C351.25 82.1966 351.03 82.9446 350.722 83.5165C350.062 84.7485 349.094 85.5845 348.126 86.2445C347.158 86.9485 346.146 87.4765 345.134 88.0044C343.11 89.0164 341.042 89.8524 339.018 90.6884C338.006 91.1284 336.994 91.5684 335.982 92.0524C334.97 92.5363 333.958 93.0203 332.946 93.5923C332.418 93.7683 331.846 93.5043 331.67 93.0203L331.626 92.8443C331.23 91.7444 330.966 90.6884 330.702 89.6324C330.438 88.5324 330.262 87.4324 330.13 86.3325C329.998 85.2325 329.91 84.0885 329.866 82.9885C329.866 81.8446 329.866 80.7006 329.998 79.5566C330.218 77.2687 330.746 74.9367 331.846 72.6928C332.902 70.4928 334.53 68.4249 336.598 66.973C337.61 66.225 338.754 65.653 339.898 65.213C340.47 64.993 341.042 64.773 341.658 64.641C342.274 64.465 342.934 64.333 343.594 64.289C344.914 64.157 346.234 64.201 347.51 64.465C348.786 64.729 349.93 65.169 351.03 65.697C353.186 66.753 354.99 67.985 356.75 69.1729C358.51 70.3609 360.226 71.5048 362.03 72.4728C363.833 73.4408 365.725 74.1888 367.705 74.6728C368.673 74.9367 369.685 75.1127 370.697 75.2007C371.709 75.2887 372.721 75.2887 373.777 75.2447C377.869 75.2447 382.005 74.4088 386.053 73.1328C390.057 71.8128 393.973 70.1409 397.757 68.2049C401.541 66.269 405.237 64.113 408.888 61.8251C407.173 63.1011 405.457 64.377 403.653 65.565C401.893 66.797 400.089 67.941 398.241 69.0849C394.545 71.3289 390.717 73.3528 386.669 74.9367C384.645 75.7287 382.577 76.4327 380.421 76.9607C378.265 77.4887 376.065 77.8847 373.865 77.9727C372.765 78.0167 371.621 77.9287 370.521 77.8407C369.421 77.7527 368.277 77.6207 367.177 77.4447C364.977 77.0487 362.778 76.3887 360.71 75.5527C358.642 74.7168 356.662 73.6608 354.77 72.6488C353.802 72.1208 352.878 71.5929 351.998 71.1529C351.074 70.6689 350.194 70.2289 349.314 69.8769C348.434 69.5249 347.554 69.2169 346.718 69.0849C345.882 68.9529 345.046 68.9089 344.254 68.9969C343.858 69.0409 343.418 69.1289 343.022 69.2609C342.582 69.3929 342.142 69.5249 341.746 69.6569C340.91 69.9649 340.118 70.4049 339.37 70.8889C337.918 71.8568 336.73 73.1768 335.85 74.8047C334.97 76.4327 334.354 78.2807 334.002 80.2166C333.826 81.1846 333.694 82.1966 333.606 83.2085C333.518 84.2205 333.518 85.2325 333.518 86.2885C333.518 88.3124 333.694 90.4684 333.958 92.4483L332.594 91.6564C333.694 91.6564 334.794 91.4804 335.85 91.2604C336.906 91.0404 337.962 90.7324 339.018 90.3364C341.086 89.5444 343.022 88.5324 344.782 87.3005C345.662 86.6405 346.498 85.9805 347.158 85.1885C347.818 84.4405 348.39 83.5605 348.61 82.7686C348.83 81.9766 348.742 81.3166 348.39 80.6566C348.038 79.9966 347.422 79.3366 346.674 78.7206C345.926 78.1047 345.178 77.5767 344.43 77.2687C343.682 76.9607 342.978 76.8727 342.23 77.0487C341.438 77.2247 340.646 77.7087 339.898 78.3687C339.15 79.0286 338.49 79.8646 337.918 80.7446C336.774 82.5046 335.982 84.5725 335.234 86.5965C334.574 88.6644 334.002 90.7764 333.606 92.8883C333.518 93.3283 333.078 93.6363 332.638 93.5483C332.242 93.4603 331.978 93.1523 331.978 92.7563C331.978 92.0963 331.934 91.3924 331.89 90.7324L331.802 88.7084C331.714 87.3445 331.626 85.9805 331.538 84.6605H331.406C331.054 81.9326 330.438 79.1166 329.69 76.4767C328.898 73.8368 327.93 71.2849 326.566 69.2609C325.906 68.2489 325.114 67.413 324.322 66.885C323.53 66.357 322.782 66.093 321.902 66.049C321.023 66.005 320.055 66.181 318.955 66.577C318.691 66.665 318.427 66.797 318.163 66.885L317.415 67.237C316.975 67.457 316.623 67.677 316.359 67.941C316.095 68.161 315.919 68.3809 315.831 68.6009C315.699 68.8209 315.611 69.0849 315.611 69.4809C315.567 70.2729 315.831 71.3728 316.271 72.5168C316.711 73.6608 317.371 74.8487 318.075 75.9927C318.779 77.1367 319.571 78.2807 320.406 79.4246C322.078 81.6686 323.97 83.8245 325.994 85.8925C327.006 86.9045 328.018 87.9164 329.118 88.8844C329.646 89.3684 330.174 89.8524 330.746 90.2924C331.01 90.5124 331.318 90.7324 331.67 90.8204C332.022 90.9524 332.418 91.0404 332.902 90.9524L330.834 92.3163C330.79 92.0524 330.702 91.6564 330.57 91.3484C330.482 90.9964 330.35 90.6884 330.262 90.3364C330.042 89.6764 329.778 89.0164 329.47 88.3564C328.854 87.0805 328.194 85.8045 327.402 84.6165C326.61 83.4285 325.73 82.3286 324.762 81.2726C323.794 80.2166 322.738 79.2486 321.594 78.4127C320.45 77.5767 319.263 76.7847 317.987 76.1687C316.711 75.5087 315.391 74.9807 314.071 74.5848C313.411 74.3648 312.751 74.2328 312.091 74.2328C311.783 74.2328 311.431 74.2768 311.167 74.3208C310.859 74.3648 310.595 74.4968 310.375 74.5848C309.891 74.8047 309.627 75.1127 309.407 75.3767C309.187 75.6407 308.967 75.9047 308.747 76.3007C308.263 77.0927 307.911 78.3247 307.691 79.6446C307.471 80.9646 307.295 82.3726 307.251 83.8245C307.207 84.5725 307.207 85.2765 307.207 86.0245C307.207 86.7725 307.207 87.6085 307.075 88.4004C306.943 89.1924 306.679 90.0284 306.239 90.7324C305.799 91.4364 305.183 92.0084 304.479 92.4043C303.819 92.8003 303.071 93.1083 302.367 93.3283C301.663 93.5923 300.915 93.7243 300.211 93.9443C298.759 94.2963 297.351 94.6923 295.987 95.2643C295.327 95.5283 294.667 95.8363 294.051 96.2323C293.435 96.5842 292.863 97.0242 292.467 97.5082C292.291 97.7282 292.115 97.9922 292.071 98.1682C292.027 98.3882 292.071 98.4762 292.159 98.5202C292.247 98.5642 292.335 98.5642 292.467 98.6522C292.555 98.6962 292.643 98.6962 292.731 98.7402C292.775 98.7402 292.819 98.7842 292.863 98.7842C292.907 98.7842 292.907 98.7842 292.951 98.7842C292.951 98.7842 292.995 98.7842 292.951 98.7402L290.575 101.688Z" fill="#FFF500"/>
<path d="M159.028 19.1899C148.589 1.589 127.383 -5.12116 111.663 4.20237C95.9439 13.5259 91.6636 35.3525 102.103 52.9534C112.543 70.5544 133.749 77.2645 149.468 67.941C165.187 58.6174 169.468 36.7909 159.028 19.1899Z" fill="#FFF500"/>
<path d="M85.3923 204.893L0 185.431L8.98869 129.137L101.732 150.276L85.3923 204.893Z" fill="#FFF500"/>
<path d="M6.89386 106.094L1.86629 118.016L112.93 143.344L113.577 130.432L6.89386 106.094Z" fill="#FFF500"/>
<path d="M22.0527 100.305C22.0146 100.191 21.9766 100.152 21.9766 100.076L21.9385 99.8858C21.9004 99.7716 21.8623 99.6573 21.8623 99.505C21.8242 99.2764 21.7861 99.0098 21.7861 98.7432C21.7861 98.21 21.8623 97.6006 22.2051 97.0674C22.5098 96.5341 23.0049 96.1913 23.4239 96.0009C23.8809 95.8105 24.2618 95.7343 24.6427 95.6962C25.4044 95.62 26.09 95.6962 26.7756 95.7724C27.4612 95.8486 28.1087 96.0009 28.7561 96.1533C30.0511 96.4199 31.2699 96.8008 32.5268 97.1055C33.7456 97.3721 35.0406 97.6387 36.2594 97.4482C36.8688 97.334 37.402 97.1054 37.821 96.7246C38.2399 96.3437 38.5446 95.8486 38.7732 95.3153L38.9255 94.8964L39.0398 94.4774C39.0779 94.325 39.116 94.1727 39.116 94.0203L39.1921 93.5633C39.3064 92.9158 39.4207 92.2683 39.573 91.6208C39.8396 90.3259 40.1824 88.9928 40.7537 87.6978C41.0203 87.0503 41.3631 86.4028 41.7821 85.7553C42.201 85.1079 42.7343 84.4985 43.4199 83.9271C44.1054 83.3558 45.0195 82.9369 46.0098 82.8226C46.5049 82.7845 47.0001 82.8226 47.4571 82.8988C47.9142 83.013 48.3331 83.1654 48.714 83.3558C49.4758 83.7748 50.0852 84.2699 50.6184 84.727C51.1516 85.2221 51.6848 85.6792 52.18 86.1743C53.1322 87.1646 53.9701 88.193 54.7318 89.2975C55.4936 90.402 56.1792 91.5447 56.7505 92.7635C57.3218 93.9823 57.8169 95.2011 58.1978 96.496C58.5787 97.791 58.8834 99.086 59.0738 100.381C59.2643 101.714 59.3785 103.009 59.4166 104.342C59.4166 105.028 59.4166 105.675 59.3785 106.361C59.3404 106.704 59.3404 107.046 59.3023 107.389C59.2643 107.732 59.2262 108.037 59.1881 108.456L58.1978 109.408C57.9312 109.674 57.5122 109.636 57.2456 109.37C57.0933 109.179 57.0171 108.951 57.0933 108.722C57.2075 108.303 57.2075 107.96 57.1314 107.618C57.0552 107.313 56.979 107.008 56.8267 106.742C56.522 106.208 56.2172 105.637 55.9125 105.104C55.3031 103.999 54.7318 102.895 54.1224 101.752C52.9417 99.505 51.7991 97.2197 50.8088 94.8583C50.3137 93.6776 49.8566 92.4207 49.4758 91.1638C49.0949 89.8688 48.7902 88.5357 48.6759 87.1265C48.5617 85.6792 48.5617 84.1176 49.2472 82.4036C49.59 81.5657 50.1232 80.6897 50.8469 79.966C51.6087 79.2424 52.5228 78.7472 53.3988 78.4425C54.3129 78.1378 55.1508 78.0236 55.9887 77.9855C56.4077 77.9855 56.7505 77.9855 57.1314 77.9855C57.5122 78.0236 57.8931 78.0236 58.2359 78.0616C58.9976 78.1378 59.7594 78.3283 60.5592 78.5568C61.321 78.8234 62.1208 79.1662 62.8445 79.6232C63.5682 80.0803 64.2537 80.6897 64.825 81.3753C65.3964 82.0609 65.8534 82.8226 66.1581 83.5844C66.8056 85.1459 67.0341 86.6694 67.0722 88.1168C67.1103 89.5641 66.9199 90.9353 66.6532 92.2683C66.3866 93.6014 66.0438 94.8583 65.5868 96.1152C65.1678 97.3721 64.6727 98.5528 64.1395 99.7335C63.6062 100.914 63.0349 102.057 62.3874 103.199L62.2732 103.161C61.7019 104.19 61.1306 105.218 60.5973 106.246L59.7975 107.808C59.5309 108.341 59.2643 108.836 58.9976 109.37L57.7788 108.646C58.9976 107.122 60.2545 105.675 61.6257 104.304C62.9588 102.895 64.4442 101.6 66.0058 100.419C66.8056 99.8097 67.6435 99.2384 68.5957 98.7813C69.5479 98.3242 70.6524 97.9434 71.8712 97.9815C73.1281 98.0195 74.385 98.5909 75.261 99.4669C75.7181 99.8858 76.0609 100.343 76.3656 100.838C76.6703 101.333 76.8988 101.828 77.1273 102.323C77.5082 103.314 77.851 104.456 77.6986 105.751C77.6225 106.399 77.432 107.046 77.0892 107.618C76.7465 108.189 76.2894 108.646 75.7943 108.989C74.804 109.674 73.7375 109.979 72.7473 110.131C71.7189 110.284 70.7286 110.36 69.7764 110.36C67.834 110.36 65.8915 110.246 63.9871 110.131C63.0349 110.093 62.0827 110.017 61.0925 110.017C60.1022 109.979 59.15 110.017 58.1216 110.055C57.6265 110.017 57.2837 109.598 57.3599 109.103L57.398 108.951C57.5122 107.96 57.7027 107.046 57.9312 106.094C58.1597 105.142 58.4263 104.228 58.731 103.314C59.0357 102.4 59.4166 101.486 59.7975 100.61C60.2164 99.7335 60.6735 98.8194 61.2067 97.9815C62.2732 96.3056 63.5682 94.6678 65.244 93.3729C66.9199 92.0398 68.9385 91.0876 71.1095 90.7448C72.1759 90.5544 73.2805 90.5163 74.3469 90.6306C74.8802 90.6686 75.4134 90.7448 75.9466 90.8591C76.4798 90.9733 77.0512 91.0876 77.5844 91.3161C78.6508 91.697 79.6792 92.2683 80.5552 92.9539C81.4312 93.6395 82.193 94.4393 82.8024 95.2392C84.0593 96.8769 85.0115 98.5528 85.9256 100.114C86.8397 101.714 87.7537 103.238 88.7821 104.685C89.8105 106.094 91.0293 107.427 92.3623 108.532C93.0479 109.103 93.7335 109.636 94.4953 110.093C95.257 110.55 96.0568 110.931 96.8567 111.312C100.056 112.874 103.56 113.826 107.178 114.321C110.797 114.854 114.491 115.007 118.186 114.93C121.88 114.854 125.575 114.588 129.269 114.207C127.441 114.55 125.613 114.892 123.785 115.121C121.956 115.388 120.09 115.616 118.224 115.768C114.529 116.111 110.759 116.225 106.988 115.921C105.122 115.768 103.217 115.502 101.351 115.121C99.4847 114.702 97.6184 114.169 95.8664 113.407C94.9904 112.988 94.1525 112.531 93.3145 112.036C92.4766 111.541 91.6387 111.007 90.8769 110.436C89.3153 109.293 87.868 107.96 86.573 106.475C85.2781 105.028 84.1354 103.466 83.0309 101.943C82.4977 101.181 81.9644 100.419 81.4312 99.6954C80.898 98.9717 80.3648 98.2862 79.8316 97.6768C79.2983 97.0674 78.727 96.496 78.1176 96.0771C77.5082 95.6581 76.8988 95.3153 76.2132 95.0868C75.8704 94.9725 75.5277 94.8964 75.1468 94.8202C74.7659 94.744 74.385 94.7059 73.9661 94.6678C73.1662 94.5917 72.4045 94.6298 71.6427 94.7059C70.1573 94.9345 68.71 95.5058 67.415 96.4199C66.12 97.334 64.9393 98.5528 63.949 99.9239C63.4539 100.61 62.9588 101.333 62.5017 102.095C62.0447 102.857 61.6638 103.618 61.2448 104.418C60.4831 106.018 59.7975 107.732 59.2262 109.37L58.4644 108.227C59.3023 108.646 60.2545 108.913 61.1686 109.141C62.0827 109.37 63.0349 109.522 63.9871 109.636C65.8915 109.827 67.7959 109.789 69.6622 109.446C70.5763 109.255 71.4904 109.065 72.3283 108.684C73.1662 108.341 73.928 107.884 74.385 107.351C74.8802 106.818 75.0325 106.246 74.9944 105.637C74.9563 104.99 74.7278 104.266 74.4231 103.504C74.0803 102.742 73.6995 102.057 73.2424 101.524C72.7854 101.028 72.2902 100.648 71.6046 100.495C70.9571 100.343 70.1192 100.419 69.2813 100.648C68.4434 100.876 67.6054 101.257 66.8437 101.714C65.2821 102.666 63.8729 103.923 62.5398 105.256C61.2448 106.589 59.9879 108.037 58.8834 109.522C58.6549 109.827 58.1978 109.903 57.8931 109.674C57.6265 109.484 57.5122 109.103 57.6646 108.798C57.8931 108.265 58.1216 107.732 58.3882 107.199L59.0738 105.599C59.5309 104.533 59.9879 103.428 60.4069 102.323L60.2926 102.285C61.0544 100 61.6638 97.6006 62.0827 95.2772C62.4636 92.9539 62.6921 90.5544 62.3874 88.4976C62.2351 87.4693 61.9685 86.5171 61.5495 85.7934C61.1306 85.0698 60.6354 84.5746 59.9879 84.2318C59.3404 83.8891 58.5025 83.6224 57.5122 83.5082C57.2837 83.4701 57.0171 83.4701 56.7886 83.432L56.0649 83.3939C55.6459 83.3939 55.2651 83.432 54.9604 83.5082C54.6557 83.5843 54.4652 83.6605 54.2748 83.8129C54.0843 83.9271 53.932 84.1176 53.7416 84.4223C53.3988 84.9936 53.1702 85.9839 53.0941 87.0503C53.0179 88.1168 53.056 89.2594 53.1702 90.4401C53.2845 91.6208 53.4749 92.8015 53.6654 93.9823C54.1224 96.3818 54.7699 98.7813 55.5317 101.143C55.9126 102.323 56.3696 103.504 56.8267 104.647C57.0552 105.218 57.2837 105.789 57.5503 106.361C57.6646 106.665 57.855 106.894 58.0835 107.122C58.3121 107.351 58.5787 107.58 58.9976 107.694L56.8647 107.999C56.9409 107.77 56.979 107.427 57.0552 107.161C57.0933 106.856 57.1694 106.551 57.1694 106.246C57.2456 105.637 57.2837 105.028 57.2837 104.418C57.3218 103.199 57.2456 101.943 57.0933 100.724C56.9409 99.505 56.6743 98.2862 56.2934 97.1055C55.9506 95.9247 55.4936 94.7821 54.9223 93.6776C54.351 92.573 53.7416 91.5447 52.9798 90.5544C52.2561 89.5641 51.4182 88.65 50.5422 87.8121C50.1232 87.3931 49.6662 87.0503 49.133 86.7837C48.8664 86.6694 48.6378 86.5552 48.3712 86.5171C48.1046 86.4409 47.8761 86.4409 47.6476 86.4409C47.1905 86.4409 46.8477 86.5552 46.5811 86.6694C46.3145 86.7837 46.0479 86.9361 45.7051 87.1265C45.0195 87.5455 44.2578 88.3834 43.6103 89.3356C42.9247 90.2878 42.2772 91.3161 41.6678 92.4207C41.3631 92.9539 41.0584 93.5252 40.7918 94.0965C40.4871 94.6678 40.1824 95.3534 39.7634 95.9247C39.3445 96.496 38.8493 97.0293 38.2399 97.4101C37.6305 97.791 36.9069 97.9815 36.2594 98.0576C35.5738 98.0957 34.9263 98.0576 34.2788 97.9815C33.6314 97.9053 32.9839 97.7529 32.3745 97.6387C31.1176 97.3721 29.8607 97.1435 28.6038 97.0674C27.9563 97.0293 27.3469 97.0293 26.7375 97.0674C26.1281 97.1055 25.5187 97.2197 25.0236 97.4482C24.795 97.5625 24.5665 97.6768 24.4523 97.8291C24.338 97.9815 24.338 98.0957 24.3761 98.1338C24.4142 98.1719 24.4903 98.2481 24.5665 98.3623C24.6046 98.4004 24.6808 98.4766 24.757 98.5147C24.795 98.5528 24.8331 98.5528 24.8712 98.5909L24.9093 98.629C24.9093 98.629 24.9474 98.667 24.9474 98.5909L22.0527 100.305Z" fill="#FFF500"/>
<path d="M64.7983 430.045C68.4875 420.978 64.9137 410.956 56.816 407.662C48.7183 404.367 39.163 409.046 35.4738 418.113C31.7846 427.18 35.3584 437.201 43.4561 440.496C51.5538 443.791 61.1091 439.112 64.7983 430.045Z" fill="#FFF500"/>
<path d="M241.618 612.889L115.669 646.414L88.5081 566.045L225.3 529.635L241.618 612.889Z" fill="#FFF500"/>
<path d="M69.7853 537.148L71.4227 556.332L235.246 512.748L227.154 495.294L69.7853 537.148Z" fill="#FFF500"/>
<path d="M85.7396 519.021C85.6103 518.897 85.5338 518.873 85.481 518.773L85.2989 518.548C85.1696 518.424 85.0402 518.3 84.9347 518.099C84.7262 517.825 84.4914 517.5 84.3067 517.149C83.9372 516.447 83.6154 515.591 83.6975 514.652C83.7293 513.738 84.144 512.944 84.5639 512.403C85.0339 511.835 85.4827 511.471 85.958 511.157C86.9085 510.529 87.8642 510.154 88.8199 509.78C89.7756 509.405 90.734 509.157 91.6923 508.909C93.5825 508.363 95.4516 508.02 97.3181 507.551C99.1081 507.058 100.998 506.512 102.472 505.417C103.195 504.844 103.739 504.173 104.027 503.382C104.315 502.59 104.373 501.727 104.305 500.866L104.215 500.209L104.075 499.578C104.02 499.351 103.965 499.124 103.859 498.923L103.643 498.268C103.345 497.336 103.047 496.404 102.799 495.446C102.253 493.556 101.781 491.562 101.636 489.461C101.539 488.424 101.541 487.333 101.645 486.19C101.748 485.047 102.028 483.875 102.535 482.648C103.042 481.421 103.956 480.235 105.181 479.399C105.807 479.006 106.485 478.713 107.14 478.497C107.821 478.33 108.479 478.241 109.112 478.228C110.406 478.252 111.551 478.482 112.57 478.714C113.615 478.997 114.634 479.23 115.63 479.539C117.57 480.183 119.386 480.957 121.154 481.884C122.923 482.811 124.617 483.841 126.214 485.051C127.811 486.26 129.307 487.522 130.706 488.964C132.105 490.406 133.403 491.9 134.551 493.474C135.726 495.097 136.773 496.724 137.747 498.453C138.222 499.356 138.67 500.209 139.095 501.138C139.283 501.616 139.52 502.068 139.707 502.545C139.895 503.023 140.056 503.451 140.296 504.029L139.651 505.969C139.485 506.505 138.906 506.745 138.371 506.579C138.038 506.434 137.779 506.185 137.721 505.832C137.582 505.201 137.344 504.749 137.006 504.35C136.695 504.002 136.383 503.653 135.998 503.408C135.227 502.917 134.43 502.375 133.66 501.884C132.092 500.851 130.574 499.793 128.98 498.71C125.868 496.568 122.78 494.35 119.84 491.926C118.37 490.714 116.897 489.375 115.525 487.984C114.126 486.542 112.801 484.997 111.674 483.22C110.521 481.393 109.439 479.337 109.155 476.604C109.026 475.263 109.121 473.74 109.573 472.286C110.075 470.805 110.936 469.519 111.878 468.511C112.871 467.477 113.896 466.746 114.973 466.115C115.525 465.825 115.976 465.587 116.478 465.323C117.006 465.11 117.507 464.846 117.985 464.658C119.041 464.231 120.176 463.954 121.388 463.701C122.576 463.524 123.867 463.422 125.137 463.522C126.407 463.623 127.732 463.951 128.959 464.458C130.187 464.965 131.316 465.652 132.245 466.444C134.18 468.052 135.536 469.9 136.589 471.78C137.642 473.66 138.341 475.598 138.913 477.538C139.486 479.478 139.905 481.371 140.174 483.343C140.493 485.289 140.659 487.187 140.774 489.112C140.89 491.036 140.929 492.937 140.868 494.89L140.691 494.919C140.651 496.669 140.611 498.42 140.621 500.143L140.65 502.754C140.668 503.641 140.66 504.478 140.678 505.365L138.572 505.256C139.121 502.405 139.774 499.628 140.63 496.873C141.409 494.093 142.469 491.358 143.707 488.722C144.339 487.365 145.046 486.032 145.984 484.77C146.921 483.509 148.112 482.242 149.744 481.448C151.426 480.627 153.477 480.509 155.237 481.056C156.13 481.291 156.898 481.655 157.642 482.096C158.386 482.537 159.03 483.031 159.674 483.525C160.862 484.565 162.105 485.833 162.802 487.644C163.15 488.549 163.348 489.534 163.292 490.524C163.236 491.514 162.951 492.433 162.536 493.227C161.707 494.816 160.514 495.956 159.315 496.843C158.066 497.756 156.814 498.542 155.56 499.202C153.002 500.548 150.365 501.743 147.777 502.912C146.497 503.521 145.19 504.081 143.886 504.767C142.555 505.402 141.327 506.112 139.999 506.875C139.321 507.168 138.579 506.853 138.336 506.149L138.281 505.921C137.745 504.538 137.363 503.202 137.004 501.79C136.646 500.377 136.363 498.989 136.132 497.574C135.9 496.159 135.768 494.691 135.663 493.273C135.608 491.829 135.576 490.309 135.698 488.836C135.942 485.89 136.513 482.836 137.823 479.969C139.106 477.052 141.105 474.4 143.727 472.444C145 471.455 146.428 470.639 147.912 470.051C148.641 469.732 149.396 469.463 150.177 469.244C150.958 469.025 151.79 468.779 152.651 468.711C154.319 468.474 156.069 468.514 157.698 468.81C159.327 469.106 160.884 469.632 162.241 470.263C165.031 471.549 167.446 473.097 169.732 474.52C172.044 475.994 174.303 477.367 176.66 478.561C178.991 479.704 181.52 480.616 184.041 481.147C185.339 481.424 186.612 481.652 187.932 481.726C189.252 481.8 190.569 481.748 191.886 481.695C197.182 481.536 202.456 480.362 207.565 478.508C212.7 476.703 217.671 474.344 222.484 471.684C227.298 469.025 231.979 466.114 236.581 463.053C234.41 464.771 232.24 466.489 229.99 468.056C227.767 469.674 225.468 471.268 223.115 472.762C218.487 475.773 213.6 478.535 208.422 480.746C205.859 481.839 203.166 482.807 200.444 483.598C197.696 484.339 194.868 484.93 192.033 485.14C190.589 485.195 189.169 485.174 187.722 485.102C186.276 485.031 184.803 484.909 183.404 484.684C180.555 484.261 177.726 483.508 174.991 482.449C172.283 481.44 169.696 480.175 167.186 478.933C165.956 478.3 164.726 477.666 163.522 477.082C162.319 476.498 161.141 475.965 160.017 475.532C158.892 475.098 157.744 474.742 156.651 474.612C155.558 474.482 154.518 474.453 153.457 474.627C152.926 474.714 152.422 474.851 151.868 475.015C151.313 475.178 150.785 475.392 150.207 475.632C149.101 476.086 148.124 476.664 147.174 477.292C145.376 478.622 143.865 480.377 142.793 482.478C141.721 484.579 141.01 487.002 140.656 489.494C140.478 490.74 140.328 492.036 140.253 493.356C140.179 494.676 140.205 495.943 140.208 497.287C140.312 499.922 140.597 502.654 140.979 505.207L139.184 504.23C140.578 504.201 142.017 503.892 143.379 503.56C144.741 503.228 146.101 502.769 147.434 502.26C150.074 501.191 152.556 499.822 154.777 498.077C155.849 497.193 156.921 496.309 157.76 495.227C158.626 494.195 159.313 493.065 159.546 492.046C159.828 491.001 159.633 490.143 159.161 489.367C158.662 488.54 157.86 487.746 156.931 486.953C155.952 486.188 154.975 485.549 154.004 485.163C153.059 484.827 152.143 484.669 151.134 484.943C150.176 485.191 149.125 485.872 148.18 486.753C147.234 487.635 146.395 488.717 145.708 489.847C144.311 492.183 143.326 494.814 142.494 497.493C141.712 500.146 141.059 502.923 140.633 505.645C140.543 506.204 139.994 506.621 139.434 506.532C138.951 506.465 138.537 506.043 138.527 505.536C138.458 504.676 138.39 503.815 138.371 502.928L138.166 500.346C138.029 498.625 137.866 496.853 137.653 495.108L137.476 495.138C136.896 491.6 136.036 488.018 134.978 484.667C133.87 481.343 132.509 478.025 130.683 475.527C129.77 474.278 128.759 473.209 127.706 472.546C126.653 471.883 125.658 471.574 124.567 471.571C123.477 471.568 122.189 471.798 120.805 472.333C120.478 472.441 120.127 472.626 119.799 472.734L118.82 473.185C118.268 473.476 117.793 473.79 117.444 474.101C117.096 474.412 116.898 474.645 116.753 474.977C116.581 475.26 116.512 475.616 116.472 476.149C116.417 477.139 116.802 478.602 117.44 480.059C118.079 481.517 118.921 482.995 119.889 484.471C120.858 485.947 121.926 487.37 122.995 488.793C125.259 491.637 127.775 494.348 130.414 496.931C131.733 498.222 133.153 499.461 134.547 500.649C135.244 501.243 135.94 501.837 136.687 502.405C137.049 502.727 137.458 502.896 137.917 503.039C138.377 503.181 138.886 503.298 139.517 503.158L136.919 505.037C136.861 504.683 136.674 504.205 136.589 503.801C136.428 503.374 136.318 502.919 136.107 502.518C135.785 501.663 135.413 500.834 134.991 500.031C134.196 498.4 133.225 496.797 132.18 495.297C131.135 493.798 129.94 492.377 128.62 491.086C127.351 489.768 125.957 488.58 124.439 487.521C122.922 486.462 121.407 485.53 119.717 484.753C118.078 483.95 116.341 483.327 114.607 482.83C113.765 482.569 112.926 482.434 112.039 482.452C111.608 482.486 111.228 482.494 110.851 482.629C110.447 482.713 110.146 482.872 109.845 483.03C109.243 483.346 108.871 483.734 108.599 484.07C108.327 484.405 108.081 484.79 107.761 485.278C107.149 486.305 106.726 487.937 106.533 489.639C106.29 491.368 106.149 493.171 106.112 495.048C106.08 495.962 106.074 496.925 106.119 497.862C106.114 498.826 106.187 499.94 106.031 500.982C105.875 502.025 105.592 503.07 105.054 503.994C104.515 504.918 103.694 505.67 102.894 506.219C102.017 506.744 101.138 507.143 100.233 507.491C99.327 507.839 98.3686 508.087 97.4869 508.359C95.6468 508.878 93.8331 509.448 92.1249 510.219C91.2457 510.617 90.4431 511.039 89.6669 511.512C88.8907 511.984 88.1672 512.557 87.6734 513.201C87.4516 513.509 87.2298 513.818 87.1848 514.098C87.1399 514.378 87.219 514.528 87.2956 514.552C87.3721 514.576 87.5252 514.623 87.7047 514.721C87.7813 514.745 87.9344 514.792 88.0611 514.79C88.1376 514.814 88.1878 514.787 88.2643 514.811L88.3409 514.835C88.3409 514.835 88.4174 514.859 88.3647 514.758L85.7396 519.021Z" fill="#FFF500"/>
<path d="M260.309 85.3047C256.398 85.3047 252.83 83.0403 251.252 79.4721C247.683 71.5809 231.352 77.0019 231.215 77.0705C227.441 78.4429 223.049 77.345 220.373 74.3257C217.628 71.2379 217.079 66.8463 219.001 63.1409C221.746 57.7886 218.04 45.7803 214.609 38.9184C212.688 35.213 213.305 30.6841 216.119 27.6649L228.539 14.147C227.715 14.2156 226.823 14.4901 226.206 15.1076L198.895 39.1929C198.141 39.8791 197.66 40.8397 197.592 41.869C197.523 42.8983 197.935 43.9276 198.69 44.6824C199.307 45.2999 213.717 60.1902 206.238 80.0896C205.689 81.5993 206.1 83.2461 207.336 84.2754C208.571 85.3047 210.286 85.4419 211.659 84.6871C212.208 84.4126 224.765 77.3449 235.332 89.4218L240.478 96.4895C241.096 97.3129 241.988 97.8619 242.949 97.9991C243.155 97.9991 243.36 98.0677 243.498 98.0677C244.321 98.0677 245.076 97.7933 245.762 97.3129L260.241 86.4712C260.652 86.1281 260.995 85.785 261.27 85.3047C260.858 85.3047 260.584 85.3047 260.309 85.3047Z" fill="#FFF500"/>
<path d="M263.946 17.7838C255.575 12.0884 247.272 7.90269 246.929 7.76545C245.968 7.28512 244.801 7.49098 244.047 8.3144L221.608 32.7427C220.922 33.4975 220.785 34.5954 221.265 35.4874C221.334 35.6933 231.489 55.4556 225.657 66.6404C225.176 67.5325 225.314 68.5618 226 69.3166C226.686 70.0714 227.715 70.3459 228.607 70.0028C228.813 69.9341 251.526 61.7685 258.113 76.3843C258.525 77.2763 259.349 77.8253 260.309 77.8253C260.584 77.8253 260.79 77.7567 261.064 77.688C262.231 77.2763 262.917 76.1098 262.642 74.8747C262.436 73.9826 258.113 53.4656 273.69 47.084C278.63 45.0255 281.238 42.1435 281.375 38.3694C281.581 32.6055 275.886 25.8808 263.946 17.7838Z" fill="#FFF500"/>
<path d="M324.298 444.368C299.932 441.61 279.73 458.38 276.241 489.499C272.696 520.618 290.309 555.845 311.524 556.97C336.003 558.321 360.876 530.578 364.421 499.459C367.966 468.34 348.664 447.125 324.298 444.368ZM291.322 491.806C283.106 483.59 285.019 468.396 295.599 457.817C306.178 447.238 321.372 445.324 329.588 453.54C337.804 461.756 335.89 476.95 325.311 487.529C314.732 498.108 299.538 500.022 291.322 491.806ZM314.563 553.425C314.563 553.425 339.717 538.4 343.994 510.095L357.612 512.796C350.634 535.192 332.233 553.425 314.563 553.425Z" fill="#FFF500"/>
</svg>
