<svg width="558" height="255" viewBox="0 0 558 255" fill="none" xmlns="http://www.w3.org/2000/svg">
<path d="M82.4228 199.421H140.029C148.003 199.421 154.512 201.541 159.557 205.943C164.764 210.345 167.205 216.378 167.205 224.204C167.205 231.704 164.601 237.573 159.394 241.976C154.187 246.378 147.677 248.497 139.866 248.497H30.512C19.4464 248.497 11.3099 245.889 6.26527 240.834C2.19703 236.758 0.081543 230.726 0.081543 222.899C0.244273 218.497 1.70884 214.421 4.14978 210.834C6.59073 207.084 10.1708 203.008 14.5645 198.28C15.2154 197.628 19.2836 193.063 26.6065 184.747C33.9293 176.432 40.6012 168.769 46.6222 161.921C52.6432 154.91 57.6878 149.367 61.5934 144.965C65.4989 140.563 68.428 137.302 70.218 135.019C80.7955 122.791 89.4201 112.03 95.9293 102.899C102.438 93.606 105.53 84.6386 105.53 75.9973C105.53 71.4321 104.554 67.356 102.764 63.443C100.811 59.5299 98.2075 56.4321 94.6275 54.1495C91.2102 51.7038 87.3046 50.5625 83.0737 50.5625C69.2416 50.5625 60.1288 58.7147 55.7351 74.856C53.7823 82.193 52.155 87.7364 50.6905 91.6495C49.2259 95.3995 46.785 98.8234 43.3676 101.595C39.9503 104.367 35.2311 105.834 29.2102 105.834C21.3991 105.834 15.2154 103.226 10.659 98.1712C6.10254 92.9538 3.6616 86.4321 3.6616 78.606C3.6616 68.1712 5.93981 58.0625 10.3335 48.443C14.7272 38.8234 20.9109 30.3451 28.5592 23.0082C36.2075 15.6712 44.9949 10.1277 54.7587 6.05165C64.3598 1.97556 74.449 0.019043 84.8637 0.019043C95.1157 0.019043 104.879 1.81252 114.155 5.23643C123.431 8.66035 131.73 13.7147 138.89 20.2364C146.05 26.7582 151.746 34.4212 155.977 43.3886C160.045 52.356 162.16 62.1386 162.16 72.5734C162.16 86.106 159.394 98.4973 154.024 110.073C148.654 121.486 140.843 133.552 130.591 146.432C114.643 165.997 98.533 183.769 82.4228 199.421Z" fill="black"/>
<path d="M517.562 114.639C530.743 121.649 540.506 129.802 547.016 139.421C554.176 150.019 557.919 161.921 557.919 175.454C557.919 187.193 555.64 197.954 551.247 207.736C546.69 217.519 540.506 225.997 532.695 233.008C524.722 240.019 515.609 245.399 505.357 249.149C495.105 252.899 484.202 254.693 472.648 254.693C452.795 254.693 435.709 250.128 421.388 240.834C412.113 234.476 404.302 226.813 397.63 217.519C391.121 208.226 387.541 198.606 386.89 188.66C386.89 181.813 389.493 175.617 394.538 170.399C399.583 165.019 405.604 162.41 412.275 162.41C421.876 162.41 428.874 166.323 433.43 174.149L439.451 184.584C442.543 190.128 446.774 194.693 452.144 198.117C457.514 201.541 463.047 203.334 468.905 203.334C478.181 203.334 485.992 200.399 492.013 194.693C498.034 188.823 501.126 181.323 501.126 172.193C501.126 155.563 491.037 146.432 471.021 144.802C461.257 143.66 454.748 141.704 451.331 138.932C445.472 134.367 442.706 128.008 442.706 120.019C442.706 114.313 443.845 109.91 446.123 106.813C448.401 103.715 451.168 101.432 454.422 100.128C457.677 98.8234 462.722 97.193 469.556 95.2364C485.016 91.1604 492.827 82.519 492.827 69.6386C492.501 63.9321 490.06 59.3669 485.829 55.943C481.436 52.519 476.391 50.7256 470.37 50.7256C460.769 50.7256 451.331 56.106 442.218 66.7038C433.756 76.1604 425.619 80.8886 417.971 80.8886C411.625 80.8886 406.092 78.443 401.535 73.5517C396.979 68.6603 394.538 63.1169 394.538 56.9212C394.538 48.2799 396.979 40.2908 402.023 33.1169C407.068 25.943 413.577 19.9103 421.388 15.019C429.199 10.1277 437.824 6.37774 446.937 3.606C455.562 1.32339 464.023 0.019043 471.835 0.019043C491.525 0.019043 508.286 5.56252 522.281 16.6495C529.115 22.356 534.485 29.2038 538.554 37.519C542.459 45.6712 544.575 54.1495 544.575 62.9538C544.575 74.856 542.459 84.6386 538.391 92.4647C533.997 100.291 527.163 107.628 517.562 114.639Z" fill="black"/>
<path fill-rule="evenodd" clip-rule="evenodd" d="M377.275 83.6986C377.275 92.3485 370.263 99.3607 361.613 99.3607H196.387C187.737 99.3607 180.725 92.3485 180.725 83.6986C180.725 75.0487 187.737 68.0366 196.387 68.0366H361.613C370.263 68.0366 377.275 75.0487 377.275 83.6986Z" fill="black"/>
<path fill-rule="evenodd" clip-rule="evenodd" d="M377.275 161.676C377.275 170.326 370.263 177.338 361.613 177.338H196.387C187.737 177.338 180.725 170.326 180.725 161.676C180.725 153.026 187.737 146.014 196.387 146.014H361.613C370.263 146.014 377.275 153.026 377.275 161.676Z" fill="black"/>
</svg>
