<svg width="97" height="97" viewBox="0 0 97 97" fill="none" xmlns="http://www.w3.org/2000/svg">
<circle cx="48.5" cy="48.5" r="48.5" fill="#890000"/>
<path d="M63.7277 61.0643V45.0949C63.7277 36.2892 56.4472 29.1255 47.5005 29.1255C38.5538 29.1255 31.2731 36.2892 31.2731 45.0949V61.0643C28.7172 61.0643 26.6367 63.1106 26.6367 65.6271V69.0491C26.6367 69.6796 27.1552 70.1898 27.7958 70.1898H67.205C67.8457 70.1898 68.3641 69.6796 68.3641 69.0491V65.6271C68.3641 63.1106 66.2836 61.0643 63.7277 61.0643ZM33.5914 45.0949C33.5914 37.5469 39.8306 31.4068 47.5005 31.4068C55.1704 31.4068 61.4096 37.5469 61.4096 45.0949V61.0643H33.5914V45.0949ZM66.0459 67.9084H28.955V65.6271C28.955 64.3695 29.994 63.3458 31.2731 63.3458H63.7277C65.0068 63.3458 66.0459 64.3695 66.0459 65.6271V67.9084Z" fill="white"/>
<path d="M47.5004 26.8439C48.1411 26.8439 48.6595 26.3337 48.6595 25.7032V21.1407C48.6594 20.5102 48.141 20 47.5004 20C46.8599 20 46.3413 20.5102 46.3413 21.1407V25.7033C46.3413 26.3337 46.8597 26.8439 47.5004 26.8439Z" fill="white"/>
<path d="M59.0887 27.9847C59.3853 27.9847 59.6818 27.8733 59.9083 27.6506L63.3878 24.2285C63.8406 23.784 63.8406 23.061 63.3878 22.6155C62.935 22.1698 62.2015 22.1698 61.7488 22.6155L58.2693 26.0376C57.8165 26.482 57.8165 27.205 58.2693 27.6506C58.4955 27.8733 58.7921 27.9847 59.0887 27.9847Z" fill="white"/>
<path d="M35.0875 27.6506C35.3138 27.8733 35.6105 27.9847 35.907 27.9847C36.2036 27.9847 36.5001 27.8733 36.7266 27.6506C37.1794 27.2061 37.1794 26.4831 36.7266 26.0376L33.2516 22.6155C32.7987 22.1698 32.0653 22.1698 31.6126 22.6155C31.1597 23.0599 31.1597 23.7829 31.6126 24.2285L35.0875 27.6506Z" fill="white"/>
<path d="M72.8778 33.1778C72.5903 32.6141 71.8975 32.3891 71.3225 32.6676L66.686 34.9489C66.1133 35.2307 65.8824 35.9158 66.1676 36.4795C66.3713 36.8794 66.7811 37.11 67.2045 37.11C67.3788 37.11 67.5554 37.071 67.7229 36.9897L72.3594 34.7084C72.9321 34.4265 73.1631 33.7415 72.8778 33.1778Z" fill="white"/>
<path d="M27.7955 37.1105C28.2188 37.1105 28.6286 36.8799 28.8323 36.48C29.1176 35.9163 28.8867 35.2313 28.3139 34.9494L23.6775 32.6681C23.1047 32.3919 22.4097 32.6146 22.1222 33.1783C21.8369 33.7419 22.0679 34.427 22.6406 34.7089L27.277 36.9902C27.4446 37.0714 27.6212 37.1105 27.7955 37.1105Z" fill="white"/>
<path d="M47.5001 33.688C41.1092 33.688 35.9092 38.8053 35.9092 45.0945C35.9092 45.725 36.4276 46.2352 37.0683 46.2352C37.709 46.2352 38.2274 45.725 38.2274 45.0945C38.2274 40.063 42.3861 35.9694 47.5001 35.9694C48.1408 35.9694 48.6592 35.4592 48.6592 34.8287C48.6592 34.1982 48.1407 33.688 47.5001 33.688Z" fill="white"/>
</svg>
