<svg width="289" height="43" viewBox="0 0 289 43" fill="none" xmlns="http://www.w3.org/2000/svg">
<path d="M4 42.4019H284" stroke="white"/>
<path d="M5.06934 29.085V42.4914" stroke="white"/>
<path d="M203.989 29.085V42.4914" stroke="white"/>
<path d="M44.6396 29.085V42.4914" stroke="white"/>
<path d="M243.559 29.085V42.4914" stroke="white"/>
<path d="M84.2095 29.085V42.4914" stroke="white"/>
<path d="M283.129 29.085V42.4914" stroke="white"/>
<path d="M123.78 29.085V42.4914" stroke="white"/>
<path d="M164.419 29.085V42.4914" stroke="white"/>
<path d="M5.344 18.8692C7.952 18.8692 9.904 16.7892 9.904 13.1412C9.904 9.49321 7.952 7.41321 5.344 7.41321C2.72 7.41321 0.768 9.49321 0.768 13.1412C0.768 16.7892 2.72 18.8692 5.344 18.8692ZM5.344 17.4452C3.584 17.4452 2.368 16.0052 2.368 13.1412C2.368 10.2772 3.584 8.83721 5.344 8.83721C7.088 8.83721 8.304 10.2772 8.304 13.1412C8.304 16.0052 7.088 17.4452 5.344 17.4452Z" fill="white"/>
<path d="M42.128 7.54121V8.93321H44.656V18.7412H46.24V7.54121H42.128Z" fill="white"/>
<path d="M81.896 17.3492L85.32 14.0532C86.84 12.5972 87.16 11.6212 87.16 10.5332C87.16 8.61321 85.656 7.41321 83.32 7.41321C81.576 7.41321 80.088 8.03721 79.224 9.10921L80.312 10.0532C81 9.22121 81.976 8.83721 83.176 8.83721C84.744 8.83721 85.56 9.54121 85.56 10.6932C85.56 11.3972 85.336 12.1012 84.152 13.2532L79.592 17.6532V18.7412H87.64V17.3492H81.896Z" fill="white"/>
<path d="M124.056 12.2452L126.984 8.62921V7.54121H119.592V8.93321H124.984L122.168 12.3892V13.5092H123.064C124.984 13.5092 125.832 14.2772 125.832 15.4612C125.832 16.6772 124.872 17.4452 123.192 17.4452C121.816 17.4452 120.568 16.9492 119.816 16.2452L119.08 17.5092C120.024 18.3572 121.592 18.8692 123.192 18.8692C126.04 18.8692 127.432 17.3332 127.432 15.4452C127.432 13.7172 126.296 12.4532 124.056 12.2452Z" fill="white"/>
<path d="M168.512 14.6132H166.384V12.1812H164.88V14.6132H160.576L166.064 7.54121H164.336L158.608 14.8692V15.9892H164.832V18.7412H166.384V15.9892H168.512V14.6132Z" fill="white"/>
<path d="M202.968 12.0052H201.72L202.024 8.93321H207V7.54121H200.68L200.088 13.3972H202.632C205.224 13.3972 206.024 14.1812 206.024 15.4452C206.024 16.6612 205.064 17.4452 203.368 17.4452C202.008 17.4452 200.76 16.9492 200.008 16.2452L199.272 17.5092C200.232 18.3572 201.8 18.8692 203.384 18.8692C206.248 18.8692 207.624 17.3172 207.624 15.3812C207.624 13.3972 206.312 12.0052 202.968 12.0052Z" fill="white"/>
<path d="M244.6 11.9412C243.208 11.9412 242.024 12.4532 241.384 13.4132C241.368 13.2692 241.368 13.1412 241.368 13.0132C241.368 10.2132 242.824 8.78921 245.096 8.78921C245.896 8.78921 246.664 8.93321 247.24 9.31721L247.848 8.06921C247.128 7.62121 246.12 7.41321 245.064 7.41321C241.928 7.41321 239.768 9.46121 239.768 13.2852C239.768 16.8532 241.464 18.8692 244.472 18.8692C246.696 18.8692 248.44 17.4932 248.44 15.3332C248.44 13.2692 246.824 11.9412 244.6 11.9412ZM244.408 17.5732C242.68 17.5732 241.752 16.5652 241.752 15.4132C241.752 14.1812 242.808 13.2372 244.328 13.2372C245.896 13.2372 246.888 14.0852 246.888 15.3972C246.888 16.7252 245.864 17.5732 244.408 17.5732Z" fill="white"/>
<path d="M279.48 7.54121V10.9332H281.016V8.93321H286.136L281.704 18.7412H283.4L287.928 8.62921V7.54121H279.48Z" fill="white"/>
</svg>
