<svg width="36" height="36" viewBox="0 0 36 36" fill="none" xmlns="http://www.w3.org/2000/svg">
<circle cx="18" cy="18" r="18" fill="#00144D"/>
<path d="M18.2342 8C13.5116 8 11 11.337 11 14.9757C11 16.6632 11.8551 18.7675 13.224 19.435C13.4319 19.5383 13.545 19.4943 13.5913 19.2818C13.6322 19.1203 13.8121 18.3424 13.8993 17.9755C13.9262 17.8579 13.9122 17.7558 13.8261 17.6453C13.3716 17.0658 13.0108 16.01 13.0108 15.0196C13.0108 12.4818 14.8406 10.0177 17.9542 10.0177C20.6467 10.0177 22.5304 11.9462 22.5304 14.7049C22.5304 17.8223 21.0345 19.9789 19.0905 19.9789C18.0145 19.9789 17.2132 19.0478 17.4674 17.8959C17.7744 16.5243 18.3764 15.0493 18.3764 14.0601C18.3764 13.173 17.9219 12.4391 16.9935 12.4391C15.8982 12.4391 15.0097 13.6349 15.0097 15.2405C15.0097 16.2606 15.3371 16.9494 15.3371 16.9494C15.3371 16.9494 14.2536 21.7756 14.0522 22.677C13.7119 24.203 14.0985 26.6743 14.1319 26.8869C14.1524 27.0044 14.2719 27.0412 14.3387 26.945C14.4453 26.7907 15.755 24.7303 16.1222 23.2411C16.2558 22.6984 16.804 20.4978 16.804 20.4978C17.1648 21.2163 18.2062 21.8184 19.3156 21.8184C22.6155 21.8184 25 18.6203 25 14.6515C24.9882 10.8466 22.035 8 18.2342 8Z" fill="white"/>
</svg>
