<svg width="22" height="22" viewBox="0 0 22 22" fill="none" xmlns="http://www.w3.org/2000/svg">
<mask id="path-1-inside-1" fill="white">
<path fill-rule="evenodd" clip-rule="evenodd" d="M15.5564 2.66873C11.9976 -0.889578 6.22776 -0.889578 2.6691 2.66873C-0.889699 6.22726 -0.889699 11.997 2.6691 15.556C6.01033 18.8974 11.3008 19.1015 14.8804 16.1685L20.7113 22L22.0001 20.7109L16.1691 14.8797C19.1018 11.3 18.8976 6.00977 15.5564 2.66873Z"/>
</mask>
<path fill-rule="evenodd" clip-rule="evenodd" d="M15.5564 2.66873C11.9976 -0.889578 6.22776 -0.889578 2.6691 2.66873C-0.889699 6.22726 -0.889699 11.997 2.6691 15.556C6.01033 18.8974 11.3008 19.1015 14.8804 16.1685L20.7113 22L22.0001 20.7109L16.1691 14.8797C19.1018 11.3 18.8976 6.00977 15.5564 2.66873Z" fill="black" fill-opacity="0.01"/>
<path d="M2.6691 2.66873L1.25495 1.25445L1.25494 1.25447L2.6691 2.66873ZM15.5564 2.66873L16.9706 1.25449L16.9706 1.25442L15.5564 2.66873ZM2.6691 15.556L1.25484 16.9702L1.25486 16.9702L2.6691 15.556ZM14.8804 16.1685L16.2947 14.7543L15.0139 13.4734L13.6128 14.6215L14.8804 16.1685ZM20.7113 22L19.2971 23.4141L20.7114 24.8286L22.1257 23.4141L20.7113 22ZM22.0001 20.7109L23.4145 22.125L24.8284 20.7108L23.4144 19.2967L22.0001 20.7109ZM16.1691 14.8797L14.622 13.6122L13.4742 15.0132L14.7548 16.2939L16.1691 14.8797ZM4.08324 4.08302C6.86086 1.30567 11.3645 1.30564 14.1423 4.08304L16.9706 1.25442C12.6307 -3.08479 5.59467 -3.08483 1.25495 1.25445L4.08324 4.08302ZM4.08335 14.1418C1.3055 11.3638 1.30563 6.86042 4.08326 4.083L1.25494 1.25447C-3.08503 5.59411 -3.0849 12.6302 1.25484 16.9702L4.08335 14.1418ZM13.6128 14.6215C10.8205 16.9094 6.69037 16.7489 4.08333 14.1418L1.25486 16.9702C5.33029 21.0458 11.7812 21.2936 16.148 17.7155L13.6128 14.6215ZM22.1256 20.5859L16.2947 14.7543L13.4661 17.5826L19.2971 23.4141L22.1256 20.5859ZM20.5858 19.2969L19.297 20.5859L22.1257 23.4141L23.4145 22.125L20.5858 19.2969ZM14.7548 16.2939L20.5859 22.1251L23.4144 19.2967L17.5833 13.4655L14.7548 16.2939ZM14.1423 4.08298C16.7492 6.6898 16.9098 10.8197 14.622 13.6122L17.7162 16.1472C21.2939 11.7803 21.0461 5.32974 16.9706 1.25449L14.1423 4.08298Z" fill="white" mask="url(#path-1-inside-1)"/>
</svg>
