<svg width="31" height="31" viewBox="0 0 31 31" fill="none" xmlns="http://www.w3.org/2000/svg">
<path d="M30.3945 5.5955H21.3582C18.8944 5.5955 16.7726 7.25388 16.1983 9.62835C16.198 9.6295 16.1977 9.63059 16.1974 9.63174L16.1054 10.0219V6.91494C17.4684 6.62346 18.4931 5.41852 18.4931 3.98065C18.4931 2.32561 17.1356 0.979164 15.4671 0.979164C13.7985 0.979164 12.4412 2.32567 12.4412 3.98071C12.4412 5.44165 13.4988 6.66209 14.8945 6.92832V10.0219L14.8025 9.63174C14.8022 9.63059 14.802 9.6295 14.8017 9.62835C14.2274 7.25388 12.1056 5.5955 9.64179 5.5955H0.605469C0.271068 5.5955 0 5.86657 0 6.20097V6.69515C0 7.88526 0.675098 8.92176 1.66558 9.44779V9.70403C1.66558 10.894 2.3408 11.9306 3.33111 12.4567V12.7129C3.33111 14.4334 4.74239 15.8331 6.477 15.8331H14.8945V17.743H11.7781C10.5685 17.743 9.58445 18.7284 9.58445 19.9395C9.58445 21.1507 10.5685 22.1361 11.7781 22.1361H14.8945V24.079H11.8938C10.8297 24.079 9.96408 24.9457 9.96408 26.0112C9.96408 27.0766 10.8297 27.9433 11.8938 27.9433H14.8945V29.4154C14.8945 29.7498 15.1656 30.0208 15.5 30.0208C15.8343 30.0208 16.1055 29.7498 16.1055 29.4154V27.9433H20.8757C21.2101 27.9433 21.4812 27.6723 21.4812 27.3379C21.4812 27.0035 21.2101 26.7324 20.8757 26.7324H16.1055V25.29H19.3017C20.5035 25.29 21.4812 24.311 21.4812 23.1076C21.4812 21.9042 20.5035 20.9252 19.3017 20.9252H16.1055V18.954H19.3181C20.5108 18.954 21.4812 17.9824 21.4812 16.7881C21.4812 16.4434 21.4023 16.1198 21.2607 15.8332H24.523C26.2576 15.8332 27.6689 14.4335 27.6689 12.713V12.4567C28.6591 11.9306 29.3344 10.8941 29.3344 9.70409V9.44786C30.3249 8.92176 31 7.8852 31 6.69515V6.20097C31 5.86657 30.7289 5.5955 30.3945 5.5955ZM13.6521 3.98071C13.6521 2.99338 14.4663 2.19016 15.4671 2.19016C16.468 2.19016 17.2822 2.99344 17.2822 3.98071C17.2822 4.96799 16.468 5.77127 15.4671 5.77127C14.4663 5.77127 13.6521 4.96799 13.6521 3.98071ZM6.477 14.6223C5.44789 14.6223 4.6038 13.8255 4.54531 12.8243H8.77597C9.11031 12.8243 9.38144 12.5532 9.38144 12.2188C9.38144 11.8844 9.11031 11.6133 8.77597 11.6133H4.81148C3.78236 11.6133 2.93834 10.8165 2.87979 9.81531H3.09594C3.10678 9.81592 3.11768 9.81622 3.1287 9.81622H8.71936C9.05369 9.81622 9.32482 9.54515 9.32482 9.21075C9.32482 8.87635 9.05369 8.60529 8.71936 8.60529H3.17871C3.16787 8.60474 3.15697 8.60438 3.14596 8.60438C2.11684 8.60438 1.27276 7.80764 1.21427 6.80644H9.64191C11.544 6.80644 13.1814 8.08301 13.6243 9.91122L14.7352 14.6223H6.477ZM14.8945 26.7324H11.8938C11.4974 26.7324 11.175 26.4088 11.175 26.0112C11.175 25.6135 11.4974 25.2899 11.8938 25.2899H14.8945V26.7324ZM19.3017 22.1361C19.8358 22.1361 20.2702 22.5719 20.2702 23.1076C20.2702 23.6433 19.8358 24.0791 19.3017 24.0791H16.1055V22.1361H19.3017ZM14.8945 20.9252H11.7781C11.2362 20.9252 10.7954 20.4831 10.7954 19.9396C10.7954 19.3961 11.2362 18.954 11.7781 18.954H14.8945V20.9252ZM20.2702 16.7881C20.2702 17.3147 19.8431 17.7431 19.3181 17.7431H16.1055V15.8332H19.2525C19.8327 15.8332 20.2702 16.2437 20.2702 16.7881ZM27.8541 8.60438C27.8431 8.60438 27.8322 8.60468 27.8214 8.60529H24.9171C24.5828 8.60529 24.3116 8.87635 24.3116 9.21075C24.3116 9.54515 24.5828 9.81622 24.9171 9.81622H28.1202C28.0612 10.817 27.2174 11.6133 26.1886 11.6133H22.2241C21.8898 11.6133 21.6186 11.8844 21.6186 12.2188C21.6186 12.5532 21.8898 12.8243 22.2241 12.8243H26.4547C26.3962 13.8255 25.5522 14.6223 24.5231 14.6223H16.2648L17.3757 9.91122C17.8187 8.08301 19.4561 6.80644 21.3582 6.80644H29.7858C29.7272 7.80764 28.8832 8.60438 27.8541 8.60438Z" fill="white"/>
<path d="M21.8324 9.71414C22.0464 9.85679 22.3325 9.84632 22.537 9.6912C22.7352 9.54086 22.8202 9.27239 22.7479 9.03481C22.6747 8.79426 22.4527 8.6194 22.2012 8.60614C21.9471 8.59276 21.7072 8.74449 21.6097 8.97911C21.5007 9.24097 21.5939 9.55805 21.8324 9.71414Z" fill="white"/>
</svg>
