<svg width="37" height="36" viewBox="0 0 37 36" fill="none" xmlns="http://www.w3.org/2000/svg">
<ellipse cx="18.5" cy="18" rx="18.5" ry="18" fill="#00144D"/>
<path d="M28 10.8942C27.2934 11.2154 26.5406 11.4283 25.7556 11.5317C26.5631 11.032 27.1794 10.2468 27.4692 9.30031C26.7163 9.76554 25.8851 10.0942 24.9992 10.2775C24.2843 9.48862 23.2654 9 22.1539 9C19.9974 9 18.2613 10.8142 18.2613 13.0382C18.2613 13.3582 18.2874 13.6658 18.3516 13.9588C15.1132 13.7951 12.2478 12.1865 10.3229 9.736C9.98681 10.3403 9.78969 11.032 9.78969 11.7766C9.78969 13.1748 10.4844 14.4142 11.5199 15.1317C10.8941 15.1194 10.2801 14.9311 9.76 14.6345C9.76 14.6468 9.76 14.6628 9.76 14.6788C9.76 16.6406 11.1102 18.2702 12.8807 18.6455C12.5637 18.7354 12.2181 18.7785 11.8595 18.7785C11.6101 18.7785 11.3584 18.7637 11.1221 18.7095C11.6267 20.3083 13.0589 21.4837 14.7618 21.5218C13.4365 22.5963 11.7538 23.2437 9.93219 23.2437C9.61275 23.2437 9.30637 23.2289 9 23.1883C10.7254 24.3415 12.7703 25 14.9755 25C22.1432 25 26.062 18.8462 26.062 13.512C26.062 13.3335 26.0561 13.1612 26.0478 12.9902C26.8208 12.4215 27.4704 11.7114 28 10.8942Z" fill="white"/>
</svg>
