<svg width="39" height="40" viewBox="0 0 39 40" fill="none" xmlns="http://www.w3.org/2000/svg">
<path d="M13.4164 7.37241C11.4076 8.67454 9.87134 11.0844 8.8306 13.1482C7.59421 15.5982 7.46985 18.7847 7.9546 21.4425C8.39886 23.8902 9.11672 25.9845 10.4224 28.0685C11.5798 29.9272 13.7077 32.2737 16.8467 33.5467L16.7902 33.4822C20.2964 35.0871 23.8819 34.3298 26.0698 33.0989C28.542 31.7419 30.631 29.712 31.1772 26.8841C31.2616 26.4069 31.346 25.9297 31.3989 25.4318C31.7495 23.4765 31.6939 21.8154 31.0675 18.9089C30.9008 18.1298 30.6264 17.3353 30.2824 16.5228C29.63 14.6824 28.7313 12.9656 27.6251 11.5443C24.5344 7.57666 18.4269 4.1141 13.4164 7.37241Z" fill="#F498A7"/>
<path d="M11.8154 8.29394C13.8765 7.23235 17.3199 7.61968 19.5343 7.70052C22.1548 7.79579 24.8105 9.14051 26.7275 10.76C28.4858 12.2407 29.8494 13.7967 30.8879 15.8299C31.8179 17.6375 32.6595 20.4776 32.1373 23.6475L32.111 23.5665C31.6632 27.2513 29.2366 29.8718 27.1382 31.1475C24.7856 32.5706 22.1022 33.3777 19.5208 32.5478C19.087 32.4148 18.6516 32.2442 18.2312 32.0649C16.4697 31.4518 15.1298 30.671 13.096 28.8115C12.5557 28.3169 12.0192 27.724 11.5491 27.0733C10.3689 25.6996 9.41966 24.1725 8.82039 22.5963C7.11253 18.2002 6.65176 10.9638 11.8154 8.29394Z" stroke="white" stroke-opacity="0.5" stroke-miterlimit="10"/>
<path d="M32.498 20.8161C32.9234 22.4563 32.8893 24.3426 32.3908 26.1892C31.832 28.2437 30.3772 29.5455 29.7352 30.0316C29.6063 30.26 29.4369 30.8004 29.4568 30.9044C29.5033 31.0892 29.3594 31.3262 29.2106 31.4506C28.9613 31.7485 28.5836 31.9281 28.2228 31.9632C27.9004 31.9954 27.5671 31.4181 27.397 31.2276C27.0651 30.8612 27.3914 30.3842 27.3914 30.3842C27.3914 30.3842 27.5552 30.2511 28.1565 30.2503C28.7495 30.2351 29.2008 29.9745 29.2008 29.9745C29.2008 29.9745 29.2709 29.9918 29.2994 29.9368C28.9448 29.0447 27.9744 26.3913 27.7167 24.1731C27.3995 21.4697 27.6474 17.0352 27.5816 16.2265C27.5605 15.7383 27.0847 15.609 26.7056 15.5777C26.6204 15.5691 26.6588 15.5662 26.7824 15.5718C26.8292 15.5833 26.8826 15.5717 26.9294 15.5832C26.8592 15.5659 26.7741 15.5574 26.7123 15.5546C27.0363 15.5599 27.524 15.6055 28.1234 15.7405C29.2589 15.9701 30.4555 16.7226 31.6355 18.6969C32.0255 19.3377 32.2952 20.0479 32.498 20.8161Z" fill="#F498A7" stroke="white" stroke-opacity="0.5" stroke-miterlimit="10"/>
</svg>
