<svg width="45" height="45" viewBox="0 0 45 45" fill="none" xmlns="http://www.w3.org/2000/svg">
<path d="M31.3298 15.2115C31.3298 15.2115 12.9329 17.9777 8.66597 18.9102C7.83295 24.318 9.07243 38.8113 34.8818 40.2705C33.5469 28.0932 31.3298 15.2115 31.3298 15.2115Z" fill="#F498A7"/>
<path d="M9.76224 20.0465C9.77789 19.9608 9.845 19.9245 9.92975 19.9387C10.0135 19.8847 10.1144 19.8473 10.233 19.8603C10.2496 19.8427 10.2663 19.8251 10.3001 19.824C17.6829 18.2459 25.1697 16.8347 32.6483 16.0199C32.6988 16.0011 32.7331 16.0341 32.7336 16.0681C32.7674 16.067 32.8183 16.0823 32.8193 16.1504C34.3094 24.3604 35.1764 32.7448 36.0253 41.0446C36.0596 41.0775 36.0767 41.094 36.0944 41.1445C36.112 41.195 36.0616 41.2137 36.0273 41.1808C36.0101 41.1644 35.993 41.1479 35.9925 41.1139C35.9259 41.1842 35.7735 41.1724 35.7549 41.0538C35.6753 40.2389 35.579 39.4417 35.4994 38.6269C24.1802 39.282 12.621 31.6507 11.4836 19.818C11.079 19.8998 10.7082 19.9805 10.3036 20.0623C10.236 20.0646 10.2017 20.0317 10.184 19.9812C10.1336 19.9999 10.0831 20.0186 10.0326 20.0374C10.0498 20.0538 10.0331 20.0714 10.0336 20.1055C8.86078 26.6001 12.3902 33.2084 17.6989 36.6227C23.1443 40.1345 29.6451 40.6642 35.9607 41.2512C36.0621 41.2478 36.0479 41.4356 35.9465 41.439C29.3136 41.1182 22.2499 40.2499 16.7475 36.3142C11.8091 32.7852 8.60203 26.2512 9.76224 20.0465ZM11.7197 19.776C12.2698 25.0032 14.9263 29.7334 18.8638 33.0407C23.5544 36.9698 29.4598 38.4052 35.4803 38.4742C34.6777 31.0244 33.5881 23.6013 32.6503 16.1561C25.8184 17.2556 19.0027 18.3035 12.2086 19.6743L12.2257 19.6907C12.6047 22.4711 13.9795 25.1327 15.3171 27.5571C16.5154 29.7137 18.0816 31.5854 19.9974 33.0875C24.3935 36.5326 29.8715 37.6589 35.3547 37.9845C35.4395 37.9987 35.4243 38.1184 35.3401 38.1383C29.7928 38.0533 24.0736 36.6286 19.677 33.1495C17.6068 31.4992 16.0215 29.4749 14.8036 27.1316C13.5861 24.8224 12.3156 22.3617 11.9724 19.7163C11.8882 19.7362 11.8039 19.7561 11.7197 19.776Z" fill="white"/>
<path d="M29.9505 20.8399C29.8847 21.1426 30.083 21.3993 30.3636 21.4358C31.321 21.523 31.0724 20.1872 31.1051 19.6532C31.1215 19.5693 30.9894 19.5423 30.94 19.6279C30.9235 19.6453 30.9235 19.6453 30.9235 19.6786C30.8905 19.6469 30.8575 19.6485 30.8245 19.65C30.511 19.8813 30.2802 20.1919 30.1319 20.5484C30.0329 20.6197 29.9669 20.7227 29.9505 20.8399Z" fill="white"/>
<path d="M24.0189 21.3405C24.3611 21.1395 24.7828 21.0148 25.1699 21.0553C25.332 21.0124 25.443 21.1519 25.3759 21.319C25.176 21.7227 24.8802 22.0674 24.4892 22.2878C24.1635 22.4714 23.6606 22.6175 23.4401 22.2407C23.2525 21.8291 23.7259 21.4895 24.0189 21.3405Z" fill="white"/>
<path d="M30.9855 25.6686C31.033 25.5822 31.206 25.6163 31.245 25.7196C31.2793 25.7195 31.2972 25.7367 31.3151 25.7539C31.6066 26.1326 31.7298 26.5807 31.6652 27.0466C31.6286 27.3744 31.458 27.7716 31.0792 27.7382C30.7005 27.7048 30.6116 27.2566 30.5975 26.9461C30.5772 26.4977 30.7283 26.0488 30.9855 25.6686ZM31.4072 27.0301C31.4368 26.9265 31.4142 26.8058 31.4095 26.7024C31.3831 26.8749 31.355 27.013 31.3285 27.1856C31.3122 27.2028 31.3137 27.2373 31.3137 27.2373L31.2873 27.4099C31.3496 27.2717 31.3924 27.0819 31.4072 27.0301Z" fill="white"/>
<path d="M24.1087 28.0282C24.4633 27.7242 24.9068 27.5733 25.3349 27.5093C25.4036 27.5073 25.4386 27.5409 25.4743 27.6091C25.5416 27.538 25.6809 27.6378 25.6312 27.7256C25.4159 28.1294 25.1699 28.707 24.7978 28.9942C24.5441 29.1916 24.1322 29.2033 23.887 28.9682C23.623 28.6472 23.8558 28.2602 24.1087 28.0282Z" fill="white"/>
<path d="M30.9251 33.4008C30.9424 33.3825 30.9597 33.3642 30.9943 33.3276C30.9936 33.2223 31.115 33.1294 31.1853 33.2317C31.5711 33.6367 31.8927 34.9223 31.0403 35.1164C30.7446 35.1816 30.4997 35.0164 30.4628 34.702C30.4254 34.2822 30.7008 33.7438 30.9251 33.4008Z" fill="white"/>
<path d="M17.5128 25.2223C18.0457 25.0899 18.55 25.1672 19.0405 25.3667C19.1809 25.4337 19.1523 25.6434 19.0149 25.681C18.912 25.7178 18.826 25.737 18.7232 25.7738C18.148 26.2382 16.9192 26.8549 16.7211 25.9873C16.6567 25.5528 17.1866 25.3159 17.5128 25.2223ZM17.9707 25.4922C17.9015 25.4936 17.8323 25.495 17.7631 25.4963C17.7631 25.4963 17.7631 25.4963 17.7809 25.5134C17.8847 25.5114 17.9539 25.51 18.0409 25.5257L18.0755 25.5251C18.1101 25.5244 18.1457 25.5585 18.1635 25.5756C18.2496 25.5565 18.301 25.5381 18.387 25.519C18.2654 25.5039 18.1259 25.4718 17.9707 25.4922Z" fill="white"/>
</svg>
