<svg width="71" height="47" viewBox="0 0 71 47" fill="none" xmlns="http://www.w3.org/2000/svg">
<path opacity="0.15" d="M57.0703 17.6953C60.9766 17.6953 64.2318 19.1927 66.8359 22.1875C69.4401 25.1823 70.7422 28.5677 70.7422 32.3438C70.7422 36.7708 69.1797 40.3516 66.0547 43.0859C62.9297 45.6901 59.6094 46.9922 56.0938 46.9922C52.5781 46.9922 49.1276 45.4948 45.7422 42.5C42.487 39.375 40.8594 35.3385 40.8594 30.3906C40.8594 22.7083 43.3333 16.0677 48.2812 10.4688C53.2292 4.73958 58.3073 1.48438 63.5156 0.703125L65.0781 3.82812C62.0833 5 58.6328 7.27865 54.7266 10.6641C50.9505 14.0495 48.9323 17.3698 48.6719 20.625C51.9271 18.6719 54.7266 17.6953 57.0703 17.6953ZM16.8359 17.6953C20.7422 17.6953 23.9974 19.1927 26.6016 22.1875C29.2057 25.1823 30.5078 28.5677 30.5078 32.3438C30.5078 36.7708 28.9453 40.3516 25.8203 43.0859C22.6953 45.6901 19.375 46.9922 15.8594 46.9922C12.474 46.9922 9.08854 45.4948 5.70312 42.5C2.31771 39.375 0.625 35.3385 0.625 30.3906C0.625 22.7083 3.09896 16.0677 8.04688 10.4688C12.9948 4.73958 18.0729 1.48438 23.2812 0.703125L24.8438 3.82812C21.849 5 18.3984 7.27865 14.4922 10.6641C10.7161 14.0495 8.69792 17.3698 8.4375 20.625C11.6927 18.6719 14.4922 17.6953 16.8359 17.6953Z" fill="#932F09"/>
</svg>
