<svg width="122" height="30" viewBox="0 0 122 30" fill="none" xmlns="http://www.w3.org/2000/svg">
<path d="M24.1374 0.419572L29.5104 5.80775C30.0724 6.37139 30.0724 7.27993 29.5062 7.83936L24.1332 13.2275C23.5754 13.787 22.6652 13.787 22.1073 13.2275L17.8962 9.00449C17.5733 8.71847 16.4701 7.85198 14.9728 7.85198C13.1776 7.85198 11.9486 9.09703 11.9486 9.09703V9.08441L9.0126 12.0288C8.76513 12.298 7.82979 13.4294 7.82979 14.9647C7.82979 16.4916 8.75255 17.6651 9.00421 17.9596L13.1902 22.1574C13.748 22.7168 13.748 23.6296 13.1902 24.189L7.81721 29.5772C7.25936 30.1366 6.34919 30.1366 5.79134 29.5772L0.418386 24.189C-0.139462 23.6296 -0.139462 22.7168 0.418386 22.1574L4.62951 17.9301C4.91472 17.6062 5.77876 16.5 5.77876 14.9984C5.77876 13.4337 4.84342 12.298 4.59595 12.0288L0.418386 7.83936C-0.139462 7.27993 -0.139462 6.36718 0.418386 5.80775L5.79553 0.419572C6.35338 -0.139857 7.26355 -0.139857 7.8214 0.419572L11.9528 4.56271V4.55009C11.9528 4.55009 13.1818 5.79514 14.9434 5.79514C16.4618 5.79514 17.632 4.86976 17.9256 4.61739L22.1115 0.419572C22.6694 -0.139857 23.5796 -0.139857 24.1374 0.419572Z" fill="#080859"/>
<path d="M29.5105 22.1575L24.1376 16.7693C23.5755 16.2057 22.6695 16.2057 22.1075 16.7693L16.7345 22.1575C16.1767 22.7169 16.1767 23.6297 16.7345 24.1891L22.1117 29.5773C22.6695 30.1409 23.5797 30.1409 24.1376 29.5773L29.5105 24.1891C30.0684 23.6297 30.0684 22.7169 29.5105 22.1575Z" fill="#080859"/>
<path fill-rule="evenodd" clip-rule="evenodd" d="M45.2728 23.8021H37.9831V5.58073H45.2728C50.1886 5.60597 54.1397 9.68602 54.1397 14.6914C54.1397 19.7179 50.1886 23.7769 45.2728 23.8021ZM50.2641 14.6914C50.2641 11.7513 48.2047 8.86159 45.2477 8.81112H41.8587V20.5675H45.2477C48.2299 20.5465 50.2641 17.6316 50.2641 14.6914Z" fill="#080859"/>
<path d="M60.0747 18.7967C60.0747 15.8565 60.5612 14.254 62.692 14.254C63.7112 14.254 64.3152 14.8597 64.4829 15.0279L65.0156 12.1382C64.6297 11.6545 63.9754 11.2886 63.0778 11.2886C61.4085 11.2886 60.4606 12.0878 60.0747 13.4506V11.4106H56.3207V23.8021H60.0747V18.7967Z" fill="#080859"/>
<path fill-rule="evenodd" clip-rule="evenodd" d="M78.9241 17.6316C78.9241 21.6906 75.8957 23.9241 72.4564 23.9241C69.017 23.9241 65.9887 21.6906 65.9887 17.6316C65.9887 13.5768 69.017 11.2928 72.4564 11.2928C75.8957 11.2886 78.9241 13.5726 78.9241 17.6316ZM69.7427 17.6316C69.7427 19.5749 70.6402 20.9587 72.4564 20.9587C74.2725 20.9587 75.1701 19.5749 75.1701 17.6316C75.1701 15.6631 74.2725 14.254 72.4564 14.254C70.6402 14.254 69.7427 15.6631 69.7427 17.6316Z" fill="#080859"/>
<path fill-rule="evenodd" clip-rule="evenodd" d="M84.8591 28.2944V22.1491C85.9035 23.5329 87.598 23.9241 88.8311 23.9241C91.8804 23.9241 94.2796 21.5434 94.2796 17.6063C94.2796 13.4253 91.8846 11.2886 88.8311 11.2886C87.598 11.2886 85.8993 11.6798 84.8591 13.0636V11.4106H81.1051V28.2944H84.8591ZM87.6945 20.9587C85.8783 20.9587 84.8591 19.5749 84.8591 17.6063C84.8591 15.6631 85.8783 14.254 87.6945 14.254C89.5106 14.254 90.5298 15.6631 90.5298 17.6063C90.5298 19.5749 89.5106 20.9587 87.6945 20.9587Z" fill="#080859"/>
<path fill-rule="evenodd" clip-rule="evenodd" d="M99.4932 18.7462C99.4932 20.1553 100.873 20.9545 102.253 20.9545C103.222 20.9545 104.338 20.5675 105.063 19.7894L107.29 21.8546C105.982 23.1417 104.312 23.9199 102.056 23.9199C98.13 23.9199 95.735 21.1269 95.735 17.5811C95.735 14.0352 98.1342 11.2886 101.838 11.2886C105.617 11.2886 107.966 13.9848 107.966 17.5811V18.8219L99.4932 18.7462ZM101.842 14.254C100.533 14.254 99.4932 15.1289 99.4932 16.4664H104.216C104.216 15.1289 103.201 14.254 101.842 14.254Z" fill="#080859"/>
<path d="M117.881 23.8021H122L117.516 17.5811L122 11.4106H117.881L115.335 15.1752L112.819 11.4106H108.7L113.204 17.5811L108.7 23.8021H112.844L115.36 20.0123L117.881 23.8021Z" fill="#080859"/>
</svg>
