<?xml version="1.0" standalone="no"?>
<!DOCTYPE svg PUBLIC "-//W3C//DTD SVG 20010904//EN"
 "http://www.w3.org/TR/2001/REC-SVG-20010904/DTD/svg10.dtd">
<svg version="1.0" xmlns="http://www.w3.org/2000/svg"
 width="992.000000pt" height="992.000000pt" viewBox="0 0 992.000000 992.000000"
 preserveAspectRatio="xMidYMid meet">
<metadata>
Created by potrace 1.11, written by Peter Selinger 2001-2013
</metadata>
<g transform="translate(0.000000,992.000000) scale(0.100000,-0.100000)"
fill="#000000" stroke="none">
<path d="M4057 9384 c-6 -7 -245 -13 -654 -17 -90 -1 -163 -6 -163 -10 0 -4
-8 -4 -17 1 -16 7 -38 9 -45 3 -9 -7 -600 -14 -1203 -13 -817 1 -1115 5 -1133
15 -6 5 -12 4 -12 0 0 -5 -12 -8 -27 -7 -16 1 -28 3 -28 4 0 1 -49 3 -110 5
-60 1 -170 5 -242 9 l-133 6 0 -125 c0 -69 3 -125 8 -126 22 -3 76 -9 227 -24
28 -3 61 -7 75 -10 14 -3 39 -7 55 -10 88 -15 166 -36 207 -57 21 -10 38 -16
38 -14 0 13 79 -49 118 -92 37 -41 91 -134 96 -166 1 -6 4 -15 7 -21 11 -20
46 -173 53 -235 15 -127 18 -166 21 -293 1 -76 5 -140 8 -144 4 -3 2 -14 -3
-24 -7 -11 -7 -20 0 -24 6 -4 6 -15 0 -31 -7 -18 -7 -23 2 -18 7 4 8 3 4 -4
-10 -16 -13 -93 -4 -98 4 -3 3 -15 -2 -28 -5 -13 -6 -27 -3 -30 9 -9 9 -66 1
-66 -4 0 -3 -11 2 -24 6 -17 5 -26 -2 -28 -8 -3 -7 -10 1 -26 6 -12 8 -22 4
-22 -10 0 -10 -47 0 -56 3 -4 2 -15 -3 -25 -7 -11 -7 -20 0 -24 6 -4 6 -15 0
-31 -7 -18 -7 -23 2 -18 7 4 8 3 4 -4 -10 -16 -13 -93 -4 -98 4 -3 3 -15 -2
-28 -5 -13 -6 -27 -3 -30 9 -9 9 -66 1 -66 -4 0 -3 -11 2 -24 6 -17 5 -26 -2
-28 -8 -3 -7 -10 1 -26 6 -12 8 -22 4 -22 -10 0 -10 -47 0 -56 3 -4 2 -15 -3
-25 -7 -11 -7 -20 0 -24 6 -4 6 -15 0 -31 -7 -18 -7 -23 2 -18 7 4 8 3 4 -4
-10 -16 -13 -93 -4 -98 4 -3 3 -15 -2 -28 -5 -13 -6 -27 -3 -30 9 -9 9 -66 1
-66 -4 0 -3 -11 2 -24 6 -17 5 -26 -2 -28 -8 -3 -7 -10 1 -26 6 -12 8 -22 4
-22 -10 0 -10 -47 0 -56 3 -4 2 -15 -3 -25 -7 -11 -7 -20 0 -24 6 -4 6 -15 0
-31 -7 -17 -7 -23 0 -19 6 4 7 -2 2 -17 -6 -21 -7 -61 -2 -80 6 -20 6 -35 -1
-54 -4 -12 -3 -26 3 -32 6 -6 6 -12 -1 -16 -7 -5 -7 -15 -1 -31 5 -14 6 -25 2
-25 -9 0 -6 -65 3 -80 3 -6 2 -10 -2 -10 -9 0 -10 -46 -1 -55 2 -3 2 -26 -2
-50 -4 -25 -3 -48 1 -51 5 -2 4 -16 -1 -29 -5 -14 -6 -25 -1 -25 5 0 6 -15 1
-33 -4 -18 -3 -43 1 -55 5 -13 5 -21 1 -18 -8 5 -7 -152 1 -161 3 -3 2 -16 -3
-29 -5 -13 -6 -24 -1 -24 5 0 6 -15 1 -33 -4 -18 -3 -43 1 -55 5 -13 5 -21 1
-18 -8 5 -7 -152 1 -161 3 -3 2 -16 -3 -29 -5 -13 -6 -24 -1 -24 5 0 6 -15 1
-33 -4 -18 -3 -43 1 -55 5 -13 5 -21 1 -18 -8 5 -7 -152 1 -161 3 -3 2 -16 -3
-29 -5 -13 -6 -24 -1 -24 5 0 6 -15 1 -33 -4 -18 -3 -43 1 -55 5 -13 5 -21 1
-18 -9 5 -7 -118 2 -133 4 -6 3 -11 -1 -11 -10 0 -10 -47 0 -56 3 -4 2 -15 -3
-25 -7 -11 -7 -20 0 -24 6 -4 6 -15 0 -31 -7 -18 -7 -23 2 -18 7 4 8 3 4 -4
-10 -16 -13 -93 -4 -98 4 -3 3 -15 -2 -28 -5 -13 -6 -27 -3 -30 9 -9 9 -66 1
-66 -4 0 -3 -11 2 -24 6 -17 5 -26 -2 -28 -8 -3 -7 -10 1 -26 6 -12 8 -22 4
-22 -10 0 -10 -47 0 -56 3 -4 2 -15 -3 -25 -7 -11 -7 -20 0 -24 6 -4 6 -15 0
-31 -7 -18 -7 -23 2 -18 7 4 8 3 4 -4 -10 -16 -13 -93 -4 -98 4 -3 3 -15 -2
-28 -5 -13 -6 -27 -3 -30 9 -9 9 -66 1 -66 -4 0 -3 -11 2 -24 6 -17 5 -26 -2
-28 -8 -3 -7 -10 1 -26 6 -12 8 -22 4 -22 -10 0 -10 -47 0 -56 3 -4 2 -15 -3
-25 -7 -11 -7 -20 0 -24 6 -4 6 -15 0 -31 -7 -18 -7 -23 2 -18 7 4 8 3 4 -4
-10 -16 -13 -93 -4 -98 4 -3 3 -15 -2 -28 -5 -13 -6 -27 -3 -30 9 -9 9 -66 1
-66 -4 0 -3 -11 2 -24 6 -17 5 -26 -2 -28 -8 -3 -7 -10 1 -26 6 -12 8 -22 4
-22 -10 0 -10 -47 0 -56 3 -4 2 -15 -3 -25 -7 -11 -7 -20 0 -24 6 -4 6 -15 0
-31 -7 -18 -7 -23 2 -18 7 4 8 3 4 -4 -10 -16 -13 -93 -4 -98 4 -3 3 -15 -2
-28 -5 -13 -6 -27 -3 -30 9 -9 9 -66 1 -66 -4 0 -3 -11 2 -24 6 -17 5 -26 -2
-28 -8 -3 -7 -10 1 -26 6 -12 8 -22 4 -22 -10 0 -10 -47 0 -56 3 -4 2 -15 -3
-25 -7 -11 -7 -20 0 -24 6 -4 6 -15 0 -31 -7 -17 -7 -23 0 -19 6 4 7 -2 2 -17
-6 -21 -7 -61 -2 -80 6 -20 6 -35 -1 -54 -4 -12 -3 -26 3 -32 6 -6 6 -12 -1
-16 -7 -5 -7 -15 -1 -31 5 -14 6 -25 2 -25 -9 0 -6 -65 3 -80 3 -6 2 -10 -2
-10 -9 0 -10 -46 -1 -55 2 -3 2 -26 -2 -50 -4 -25 -3 -48 1 -51 5 -2 4 -16 -1
-29 -5 -14 -6 -25 -1 -25 5 0 6 -15 1 -33 -4 -18 -3 -43 1 -55 5 -13 5 -21 1
-18 -8 5 -7 -152 1 -161 3 -3 2 -16 -3 -29 -5 -13 -6 -24 -1 -24 5 0 6 -15 1
-33 -4 -18 -3 -43 1 -55 5 -13 5 -21 1 -18 -4 2 -7 -66 -8 -152 0 -187 -13
-380 -30 -452 -3 -14 -8 -38 -11 -55 -8 -50 -43 -147 -68 -190 -27 -46 -90
-113 -126 -134 -47 -28 -124 -64 -144 -66 -5 -1 -30 -7 -55 -14 -25 -7 -55
-15 -67 -17 -13 -2 -35 -6 -50 -9 -16 -3 -48 -8 -73 -11 -25 -3 -56 -7 -70 -9
-14 -3 -59 -7 -100 -10 -119 -9 -110 2 -110 -141 l0 -125 106 6 c511 26 2274
40 2804 22 807 -28 1595 -29 1905 -2 33 3 87 7 120 10 33 2 87 8 120 11 33 4
77 8 97 8 21 1 38 3 38 6 0 3 12 5 28 6 15 0 45 4 67 8 22 4 69 11 105 16 36
5 74 11 85 14 11 2 45 7 75 12 70 11 74 11 80 14 3 1 16 3 30 6 42 7 124 23
145 28 50 11 144 33 175 41 11 3 28 7 38 9 9 2 37 10 62 17 25 7 54 14 65 16
82 15 478 149 635 216 14 6 28 11 33 12 4 2 10 4 15 5 4 1 10 2 15 1 4 0 7 3
7 8 0 5 11 12 25 15 15 4 53 19 85 35 32 16 61 26 64 23 4 -3 6 -1 6 4 0 10
66 41 72 34 2 -2 12 4 23 13 11 9 22 17 25 16 3 -1 28 12 55 28 28 16 76 42
108 57 31 16 57 32 57 37 0 5 3 8 8 7 4 -2 43 19 87 45 109 66 107 64 212 134
51 35 97 63 103 63 6 0 8 5 5 10 -3 6 -1 10 6 10 7 0 31 16 55 35 23 19 46 35
51 35 5 0 15 8 24 18 8 9 30 28 49 42 18 14 43 33 54 42 12 10 32 27 46 39
117 97 310 285 403 392 29 33 61 69 72 81 11 12 34 39 50 61 17 22 33 42 36
45 3 3 40 52 82 110 42 58 81 110 85 116 5 5 15 21 22 35 7 13 16 26 19 29 4
3 16 21 28 40 11 19 46 77 77 128 31 51 56 95 56 98 0 2 12 23 26 46 14 23 27
46 28 52 1 6 10 23 20 38 10 15 19 33 20 40 2 7 23 56 48 108 54 114 62 133
60 143 -1 4 3 7 10 7 6 0 9 3 5 6 -3 4 0 19 8 34 17 33 77 200 78 218 0 6 3
12 7 12 4 0 7 6 7 13 0 10 38 142 74 255 6 18 13 44 15 59 3 15 14 66 25 113
11 47 22 98 24 114 3 15 6 35 9 45 5 15 14 75 22 136 4 31 10 70 20 128 3 17
5 39 6 47 0 8 4 48 9 88 18 149 24 295 23 587 0 284 -4 398 -21 560 -4 39 -7
89 -7 112 -1 24 -4 43 -7 43 -3 0 -6 6 -6 13 -1 28 -13 134 -17 157 -3 14 -8
43 -11 65 -4 22 -9 49 -11 60 -2 11 -6 36 -9 55 -6 30 -47 219 -61 273 -2 9
-6 25 -8 35 -13 56 -76 269 -93 312 -3 8 -7 20 -8 25 -2 6 -22 60 -46 120 -24
61 -44 112 -44 115 -6 32 -164 346 -223 443 -23 37 -42 72 -42 77 0 6 -3 10
-8 10 -4 0 -18 20 -32 45 -14 25 -28 45 -32 45 -5 0 -8 5 -8 10 0 6 -4 16 -10
23 -46 57 -60 76 -60 85 0 6 -3 12 -8 14 -4 2 -23 23 -42 48 -19 25 -37 47
-40 50 -3 3 -16 18 -28 34 -103 134 -395 422 -527 519 -5 4 -26 21 -45 37 -19
16 -41 30 -49 30 -8 0 -12 3 -8 6 11 11 -280 202 -438 289 -130 71 -158 85
-171 85 -7 0 -14 3 -16 8 -8 18 -330 155 -523 222 -49 17 -97 34 -105 37 -8 3
-19 7 -25 8 -5 2 -35 10 -65 20 -73 22 -244 71 -285 80 -11 3 -56 14 -100 24
-44 11 -93 23 -110 26 -16 3 -41 8 -55 11 -14 3 -32 7 -40 9 -8 2 -31 7 -50
11 -19 3 -45 8 -57 10 -13 2 -34 6 -47 8 -14 2 -37 7 -53 10 -15 3 -46 8 -68
12 -22 3 -51 7 -65 10 -14 2 -45 6 -70 10 -25 3 -56 7 -69 9 -13 2 -45 7 -70
10 -25 4 -60 8 -77 10 -32 5 -109 13 -184 20 -25 2 -70 6 -100 9 -143 14 -325
24 -516 30 -67 2 -126 6 -133 10 -6 4 -11 2 -11 -4 0 -6 -5 -8 -11 -4 -11 6
-485 7 -667 1 -39 -1 -73 2 -75 6 -1 5 -6 5 -10 1z m828 -238 c61 -3 135 -8
165 -11 30 -4 69 -8 85 -10 17 -2 30 -4 30 -5 0 -1 9 -3 20 -5 11 -2 36 -7 55
-11 19 -4 42 -9 50 -10 65 -7 286 -83 404 -138 80 -38 259 -144 264 -158 2 -4
10 -8 17 -8 7 0 15 -3 17 -7 2 -5 26 -26 53 -48 66 -52 230 -216 286 -285 24
-30 46 -57 49 -60 3 -3 10 -12 15 -21 19 -29 95 -144 102 -155 8 -10 14 -20
56 -93 47 -83 135 -261 129 -261 -4 0 -2 -4 3 -8 6 -4 15 -20 21 -37 7 -16 28
-70 47 -120 46 -119 50 -128 52 -140 2 -5 12 -35 23 -65 11 -30 25 -75 32
-100 8 -25 15 -49 16 -55 29 -95 105 -419 119 -505 3 -19 8 -43 11 -52 3 -9 6
-32 8 -50 2 -19 6 -43 9 -54 3 -10 8 -39 11 -64 4 -25 8 -56 10 -70 18 -101
28 -183 41 -315 3 -38 8 -88 11 -110 5 -39 9 -88 19 -215 3 -36 7 -90 9 -120
34 -440 35 -1211 1 -1765 -5 -77 -13 -185 -20 -255 -2 -25 -7 -81 -11 -125
-11 -127 -12 -140 -14 -140 -2 0 -4 -16 -5 -35 -1 -19 -5 -55 -9 -80 -3 -25
-9 -67 -12 -94 -3 -27 -8 -58 -10 -70 -2 -12 -7 -41 -10 -66 -3 -25 -12 -78
-20 -119 -7 -41 -12 -77 -9 -79 3 -3 1 -10 -4 -16 -5 -6 -10 -27 -12 -46 -2
-19 -5 -39 -8 -45 -3 -5 -6 -19 -8 -30 -4 -39 -19 -111 -40 -190 -8 -33 -17
-69 -19 -80 -10 -47 -13 -62 -24 -95 -6 -19 -13 -46 -16 -60 -2 -14 -9 -36
-14 -50 -11 -30 -52 -173 -52 -180 0 -3 -4 -13 -9 -23 -14 -24 -80 -209 -81
-224 -1 -7 -5 -13 -10 -13 -4 0 -8 -6 -8 -13 0 -7 -9 -32 -20 -55 -11 -22 -20
-46 -20 -52 0 -5 -4 -10 -10 -10 -5 0 -10 -8 -10 -18 0 -10 -7 -28 -16 -40 -8
-12 -12 -22 -8 -22 3 0 0 -7 -7 -16 -14 -17 -55 -92 -86 -157 -10 -20 -21 -37
-25 -37 -5 0 -8 -5 -8 -11 0 -6 -14 -28 -30 -49 -16 -21 -30 -41 -30 -44 0 -6
-45 -67 -104 -140 -44 -56 -218 -229 -263 -263 -21 -15 -40 -30 -43 -33 -23
-23 -119 -88 -124 -83 -3 4 -6 2 -6 -4 0 -14 -259 -145 -330 -168 -30 -10 -59
-20 -65 -24 -5 -3 -14 -6 -20 -7 -5 -1 -55 -14 -109 -29 -54 -15 -111 -29
-125 -31 -14 -2 -37 -6 -50 -8 -23 -5 -96 -15 -152 -21 -15 -1 -31 -5 -37 -9
-6 -3 -14 -2 -17 4 -4 7 -11 7 -18 2 -13 -10 -447 -12 -447 -2 0 3 -23 6 -51
6 -28 -1 -53 2 -56 7 -2 4 -8 5 -12 3 -4 -3 -34 1 -67 9 -32 7 -61 14 -64 15
-152 31 -291 136 -357 270 -34 69 -67 182 -79 265 -3 28 -8 59 -11 70 -17 82
-24 287 -24 740 -1 220 0 411 0 425 1 14 0 39 -2 55 -1 17 1 38 5 47 5 9 5 19
0 21 -9 6 -8 90 2 105 3 6 2 13 -2 16 -5 3 -7 22 -5 43 2 21 3 49 3 63 -2 34
-2 99 -1 130 1 14 0 39 -2 55 -1 17 1 38 5 47 5 9 5 19 0 21 -9 6 -8 90 2 105
3 6 2 13 -2 16 -5 3 -7 22 -5 43 2 21 3 49 3 63 -2 34 -2 99 -1 130 1 14 0 39
-2 55 -1 17 1 37 5 46 4 9 5 19 1 23 -9 8 -9 167 -1 172 4 3 4 15 -1 27 -8 25
-7 89 3 105 3 6 3 13 -1 15 -10 6 -9 89 1 105 3 6 2 13 -2 16 -5 3 -7 22 -5
43 2 21 3 49 3 63 -2 34 -2 99 -1 130 1 14 0 39 -2 55 -1 17 1 38 5 47 5 9 5
19 0 21 -9 6 -8 90 2 105 3 6 2 13 -2 16 -5 3 -7 22 -5 43 2 21 3 49 3 63 -2
34 -2 99 -1 130 1 14 0 39 -2 55 -1 17 1 38 5 47 5 9 5 19 1 21 -10 6 -9 210
1 225 3 6 3 13 -1 15 -10 6 -9 89 1 105 3 6 3 13 -2 16 -9 5 -8 89 2 104 3 6
3 13 -1 15 -10 6 -9 89 1 105 3 6 2 13 -2 16 -5 3 -7 22 -5 43 2 21 3 49 3 63
-2 34 -2 99 -1 130 1 14 0 39 -2 55 -1 17 1 38 5 47 5 9 5 19 0 21 -9 6 -8 90
2 105 3 6 2 13 -2 16 -5 3 -7 22 -5 43 2 21 3 49 3 63 -2 34 -2 99 -1 130 1
14 0 39 -2 55 -1 17 1 38 5 47 5 9 5 19 0 21 -9 6 -8 90 2 105 3 6 2 13 -2 16
-5 3 -7 22 -5 43 2 21 3 49 3 63 -2 34 -2 99 -1 130 1 14 0 39 -2 55 -1 17 1
38 5 47 5 9 5 19 0 21 -9 6 -8 90 2 105 3 6 2 13 -2 16 -5 3 -7 22 -5 43 2 21
3 49 3 63 -2 34 -2 99 -1 130 1 14 0 39 -2 55 -1 17 1 38 5 47 5 9 5 19 0 21
-9 6 -8 90 2 105 3 6 2 13 -2 16 -5 3 -7 22 -5 43 4 44 4 36 0 128 -1 39 1 78
5 87 5 9 5 19 0 21 -9 6 -8 90 2 105 3 6 3 13 -2 16 -9 5 -8 89 2 104 3 6 3
13 -1 15 -10 6 -9 89 1 105 3 6 2 13 -2 16 -5 3 -7 22 -5 43 2 21 3 49 3 63
-2 27 -1 85 1 110 0 8 0 26 -1 40 -5 88 21 376 43 475 10 43 28 111 34 125 4
8 7 17 8 20 16 56 86 163 140 213 26 24 110 80 125 83 3 0 12 3 20 7 43 17
153 46 201 52 30 4 70 9 89 12 19 2 87 7 150 9 63 3 120 7 125 8 6 2 17 1 25
0 8 -2 65 -6 125 -8z"/>
</g>
</svg>
